SplineFontDB: 3.0
FontName: NeutonCursive-Regular
FullName: Neuton Cursive
FamilyName: Neuton Cursive
Weight: Book
Copyright: Copyright (c) 2010, 2011 Brian M Zick (http://21326.info/), \nwith Reserved Font Name 'Neuton'.\n\nThis Font Software is licensed under the SIL Open Font License, Version 1.1.This license is available with a FAQ at: http://scripts.sil.org/OFL\n   WITHOUT WARRANTIES OR CONDITIONS OF ANY KIND, either express or implied.\n   See the License for the specific language governing permissions and\n   limitations under the License.
Version: 1.41
ItalicAngle: 0
UnderlinePosition: -361
UnderlineWidth: 0
Ascent: 1638
Descent: 410
LayerCount: 2
Layer: 0 0 "Back"  1
Layer: 1 0 "Fore"  0
NeedsXUIDChange: 1
XUID: [1021 467 2011608612 8622985]
FSType: 0
OS2Version: 1
OS2_WeightWidthSlopeOnly: 0
OS2_UseTypoMetrics: 0
CreationTime: 1300472668
ModificationTime: 1316648210
PfmFamily: 17
TTFWeight: 500
TTFWidth: 5
LineGap: 0
VLineGap: 0
OS2TypoAscent: 2106
OS2TypoAOffset: 0
OS2TypoDescent: -485
OS2TypoDOffset: 0
OS2TypoLinegap: 0
OS2WinAscent: 2106
OS2WinAOffset: 0
OS2WinDescent: 485
OS2WinDOffset: 0
HheadAscent: 2106
HheadAOffset: 0
HheadDescent: -485
HheadDOffset: 0
OS2SubXSize: 1095
OS2SubYSize: 1179
OS2SubXOff: 0
OS2SubYOff: 235
OS2SupXSize: 1095
OS2SupYSize: 1179
OS2SupXOff: 0
OS2SupYOff: 809
OS2StrikeYSize: 84
OS2StrikeYPos: 436
OS2Vendor: 'PfEd'
OS2CodePages: 20000093.00000000
OS2UnicodeRanges: a00000ef.0000204a.00000000.00000000
MarkAttachClasses: 1
DEI: 91125
ShortTable: maxp 16
  1
  0
  367
  132
  7
  0
  0
  2
  0
  1
  1
  0
  64
  0
  0
  0
EndShort

StartChar: .notdef
Encoding: 65536 -1 0
Width: 1208
VWidth: 1655
Flags: HMW
LayerCount: 2
Fore
SplineSet
220 109 m 1
 881 109 l 1
 881 1508 l 1
 220 1508 l 1
 220 109 l 1
109 0 m 1
 109 1617 l 1
 990 1617 l 1
 990 0 l 1
 109 0 l 1
EndSplineSet
EndChar

StartChar: exclam
Encoding: 33 33 2
Width: 318
VWidth: 1655
GlyphClass: 2
Flags: HMW
LayerCount: 2
Fore
SplineSet
49 1257 m 1
 80 1279 116 1290 157 1290 c 128
 198 1290 232 1278 258 1254 c 128
 284 1230 300 1196 308 1152 c 1
 312 1136 314 1114 313 1085 c 0
 311 1000 294 872 259 699 c 5
 184 338 l 1
 113 325 l 1
 125 495 l 2
 130 561 132 666 132 811 c 2
 132 874 l 1
 127 1022 100 1150 49 1257 c 1
178 206 m 128
 190 200 200 192 210 178 c 128
 220 164 225 154 228 143 c 128
 231 132 232 125 232 120 c 128
 232 115 230 100 224 73 c 128
 218 46 204 22 181 -1 c 128
 158 -24 131 -35 101 -35 c 1
 74 -33 54 -24 38 -8 c 128
 22 8 14 24 11 42 c 128
 8 60 7 68 7 71 c 128
 7 74 9 86 14 108 c 128
 19 130 31 153 54 176 c 128
 77 199 100 211 124 212 c 128
 148 213 166 212 178 206 c 128
EndSplineSet
EndChar

StartChar: quotedbl
Encoding: 34 34 3
Width: 404
VWidth: 1655
GlyphClass: 2
Flags: HMW
LayerCount: 2
Fore
SplineSet
8 1308 m 1
 14 1310 32 1311 66 1310 c 128
 100 1309 142 1304 191 1292 c 1
 106 906 l 1
 83 898 58 894 31 895 c 2
 10 895 l 1
 8 1308 l 1
217 1308 m 1
 223 1310 242 1311 276 1310 c 128
 310 1309 351 1304 400 1292 c 1
 315 906 l 1
 292 898 267 894 240 895 c 2
 220 895 l 1
 217 1308 l 1
EndSplineSet
EndChar

StartChar: numbersign
Encoding: 35 35 4
Width: 918
VWidth: 1655
GlyphClass: 2
Flags: HMW
LayerCount: 2
Fore
SplineSet
383 355 m 1
 332 174 l 1
 227 167 l 1
 282 355 l 1
 116 355 l 1
 157 455 l 1
 315 455 l 1
 378 662 l 1
 220 662 l 1
 259 760 l 1
 411 760 l 1
 468 931 l 1
 569 941 l 1
 512 760 l 1
 712 760 l 1
 766 931 l 1
 869 940 l 1
 812 760 l 1
 977 760 l 1
 938 662 l 1
 780 662 l 1
 718 455 l 1
 874 455 l 1
 835 355 l 1
 683 355 l 1
 632 174 l 1
 527 167 l 1
 583 355 l 1
 383 355 l 1
416 455 m 1
 615 455 l 1
 680 662 l 1
 479 662 l 1
 416 455 l 1
EndSplineSet
EndChar

StartChar: dollar
Encoding: 36 36 5
Width: 856
VWidth: 1655
GlyphClass: 2
Flags: HMW
LayerCount: 2
Fore
SplineSet
538 1184 m 1
 534 1184 l 2
 489 1184 449 1168 411 1138 c 128
 373 1108 353 1067 349 1016 c 1
 349 1003 l 2
 349 945 369 894 409 850 c 1
 425 833 446 813 472 788 c 1
 538 1184 l 1
418 80 m 1
 459 83 497 94 530 116 c 0
 584 151 611 200 611 262 c 128
 611 324 589 378 546 423 c 1
 532 440 512 458 486 479 c 1
 418 80 l 1
265 401 m 1
 245 346 235 297 237 256 c 0
 237 193 259 146 302 113 c 1
 316 104 333 96 355 88 c 1
 429 525 l 1
 348 591 285 650 242 702 c 1
 186 773 158 841 158 906 c 2
 158 928 l 1
 162 966 173 1004 193 1043 c 1
 227 1108 273 1161 332 1200 c 128
 391 1239 453 1263 520 1273 c 1
 545 1417 l 1
 678 1426 l 1
 653 1271 l 1
 734 1256 801 1225 855 1178 c 1
 790 832 l 1
 702 851 l 1
 695 1101 l 1
 672 1134 641 1157 602 1171 c 1
 529 741 l 1
 616 668 670 621 693 600 c 0
 762 532 801 457 812 376 c 0
 814 371 814 362 813 346 c 0
 813 261 782 185 719 120 c 1
 668 66 603 26 524 0 c 0
 495 -10 465 -15 434 -19 c 1
 411 -157 l 1
 282 -167 l 1
 307 -19 l 1
 234 -11 170 12 113 49 c 0
 83 70 59 94 41 123 c 128
 23 152 13 180 10 207 c 1
 8 211 8 218 8 232 c 128
 8 246 10 264 16 286 c 1
 34 339 68 375 120 395 c 1
 143 406 167 411 193 411 c 128
 219 411 244 408 265 401 c 1
EndSplineSet
EndChar

StartChar: percent
Encoding: 37 37 6
Width: 1095
VWidth: 1655
GlyphClass: 2
Flags: HMW
LayerCount: 2
Fore
SplineSet
940 962 m 1
 1076 971 l 1
 267 -23 l 1
 125 -31 l 1
 940 962 l 1
585 770 m 0
 585 768 585 754 583 727 c 1
 573 649 544 587 494 541 c 128
 444 495 383 471 312 471 c 128
 241 471 187 491 152 530 c 128
 117 569 99 621 99 686 c 0
 99 769 127 838 183 893 c 128
 239 948 302 975 374 975 c 128
 446 975 500 957 534 920 c 128
 568 883 585 833 585 770 c 0
355 883 m 0
 262 883 216 821 217 699 c 0
 217 608 254 563 328 562 c 0
 410 562 456 619 468 733 c 0
 470 745 470 752 470 754 c 0
 470 794 461 825 440 848 c 128
 419 871 391 883 355 883 c 0
1127 274 m 0
 1127 270 1126 257 1123 233 c 1
 1114 156 1085 94 1034 47 c 128
 983 0 922 -24 851 -24 c 128
 780 -24 727 -3 692 37 c 128
 657 77 639 128 639 191 c 0
 639 272 668 339 727 394 c 128
 786 449 851 476 921 476 c 128
 991 476 1043 458 1077 421 c 128
 1111 384 1127 335 1127 274 c 0
757 202 m 0
 757 113 794 68 869 68 c 0
 950 68 996 119 1008 220 c 0
 1010 226 1010 236 1010 254 c 0
 1010 295 1000 327 979 350 c 128
 958 373 931 385 895 385 c 0
 816 385 771 337 759 240 c 0
 757 234 757 222 757 202 c 0
EndSplineSet
EndChar

StartChar: ampersand
Encoding: 38 38 7
Width: 1384
VWidth: 1655
GlyphClass: 2
Flags: HMW
LayerCount: 2
Fore
SplineSet
293 279 m 0
 293 227 307 180 335 139 c 128
 363 98 410 67 474 46 c 1
 508 34 550 28 602 28 c 128
 654 28 706 37 757 57 c 1
 728 112 692 173 648 240 c 1
 525 409 l 2
 514 425 486 469 440 543 c 1
 342 467 293 379 293 279 c 0
701 785 m 128
 733 827 750 866 755 901 c 128
 760 936 762 960 762 973 c 128
 762 986 760 998 755 1011 c 1
 746 1045 730 1072 705 1094 c 128
 680 1116 651 1127 618 1127 c 128
 585 1127 556 1114 531 1087 c 0
 499 1055 483 1013 484 961 c 0
 484 938 489 906 499 866 c 128
 509 826 538 766 585 685 c 1
 630 710 669 743 701 785 c 128
962 63 m 1
 1005 -24 1027 -94 1027 -149 c 0
 1027 -163 1027 -172 1026 -176 c 1
 1022 -213 1011 -246 990 -275 c 128
 969 -304 942 -324 909 -338 c 128
 876 -352 837 -359 794 -359 c 1
 712 -351 l 1
 691 -315 l 1
 725 -307 754 -298 779 -285 c 128
 804 -272 819 -259 827 -246 c 1
 836 -233 840 -222 841 -211 c 128
 842 -200 843 -195 845 -193 c 1
 845 -184 l 2
 845 -150 829 -99 797 -30 c 1
 700 -70 603 -90 505 -89 c 1
 437 -86 l 1
 346 -78 269 -52 205 -8 c 1
 130 47 89 116 83 199 c 1
 83 211 l 1
 81 215 81 217 81 220 c 0
 81 283 102 344 143 403 c 128
 184 462 239 514 308 558 c 1
 334 577 365 595 400 615 c 1
 372 670 l 1
 332 756 312 823 311 872 c 0
 311 877 311 880 313 883 c 1
 313 893 l 1
 319 958 351 1018 408 1074 c 0
 481 1147 564 1193 657 1213 c 1
 681 1218 697 1220 707 1220 c 128
 717 1220 736 1219 766 1216 c 128
 796 1213 826 1201 855 1180 c 1
 912 1139 941 1086 945 1020 c 1
 945 1005 l 2
 945 968 937 930 920 891 c 128
 903 852 882 817 855 786 c 1
 797 717 720 662 625 620 c 1
 762 385 l 2
 776 360 802 319 841 259 c 128
 880 199 906 158 920 137 c 1
 993 186 1033 248 1041 323 c 0
 1041 328 1041 331 1042 334 c 1
 1042 346 l 2
 1042 401 1022 458 983 517 c 1
 949 565 910 605 867 637 c 1
 899 682 942 706 996 712 c 1
 1013 712 l 2
 1062 712 1106 694 1147 657 c 0
 1195 614 1220 556 1219 483 c 128
 1218 410 1197 337 1154 264 c 128
 1111 191 1047 124 962 63 c 1
EndSplineSet
EndChar

StartChar: quotesingle
Encoding: 39 39 8
Width: 195
VWidth: 1655
GlyphClass: 2
Flags: HMW
LayerCount: 2
Fore
SplineSet
8 1308 m 5
 14 1310 32 1311 66 1310 c 128
 100 1309 142 1304 191 1292 c 1
 106 906 l 1
 83 898 58 894 31 895 c 2
 10 895 l 1
 8 1308 l 5
EndSplineSet
EndChar

StartChar: parenleft
Encoding: 40 40 9
Width: 503
VWidth: 1655
GlyphClass: 2
Flags: HMW
LayerCount: 2
Fore
SplineSet
251 -378 m 1
 90 -195 9 27 8 287 c 0
 8 338 12 402 21 477 c 128
 30 552 49 635 79 724 c 128
 109 813 141 885 173 940 c 128
 205 995 243 1047 286 1098 c 128
 329 1149 364 1187 393 1212 c 128
 422 1237 443 1254 458 1266 c 1
 500 1199 l 1
 339 1020 239 774 200 460 c 0
 192 401 189 341 188 282 c 1
 190 72 237 -129 328 -320 c 1
 251 -378 l 1
EndSplineSet
EndChar

StartChar: parenright
Encoding: 41 41 10
Width: 524
VWidth: 1655
GlyphClass: 2
Flags: HMW
LayerCount: 2
Fore
SplineSet
8 -320 m 1
 231 -16 342 319 343 685 c 0
 343 886 299 1057 211 1199 c 1
 269 1266 l 1
 435 1111 518 897 517 621 c 0
 517 467 491 317 440 170 c 0
 409 84 378 12 346 -45 c 128
 314 -102 279 -152 242 -197 c 128
 205 -242 177 -276 157 -298 c 0
 133 -325 104 -351 70 -378 c 1
 8 -320 l 1
EndSplineSet
EndChar

StartChar: asterisk
Encoding: 42 42 11
Width: 808
VWidth: 0
GlyphClass: 2
Flags: HMW
LayerCount: 2
Fore
SplineSet
328 1292 m 1
 464 1279 l 1
 438 988 l 1
 727 1119 l 1
 756 989 l 1
 471 921 l 1
 690 692 l 1
 572 623 l 1
 419 870 l 1
 264 593 l 1
 162 685 l 1
 355 904 l 1
 43 964 l 1
 98 1091 l 1
 365 977 l 1
 328 1292 l 1
EndSplineSet
EndChar

StartChar: plus
Encoding: 43 43 12
Width: 579
VWidth: 1655
GlyphClass: 2
Flags: HMW
LayerCount: 2
Fore
SplineSet
341 413 m 1
 313 174 l 1
 204 186 l 1
 232 413 l 1
 8 413 l 1
 33 514 l 1
 242 514 l 1
 272 747 l 1
 378 734 l 1
 353 514 l 1
 576 514 l 1
 550 413 l 1
 341 413 l 1
EndSplineSet
EndChar

StartChar: comma
Encoding: 44 44 13
Width: 344
VWidth: 1655
GlyphClass: 2
Flags: HMW
LayerCount: 2
Fore
SplineSet
197 227 m 2
 212 227 l 1
 264 221 301 188 323 127 c 0
 333 103 337 80 338 57 c 0
 338 -44 288 -132 189 -209 c 1
 145 -245 95 -276 40 -303 c 1
 8 -251 l 1
 67 -220 109 -187 134 -149 c 128
 159 -111 171 -74 171 -39 c 0
 171 -37 169 -26 165 -4 c 128
 161 18 150 42 130 64 c 128
 110 86 88 103 63 116 c 1
 73 152 90 179 117 198 c 128
 144 217 170 227 197 227 c 2
EndSplineSet
EndChar

StartChar: hyphen
Encoding: 45 45 14
Width: 556
VWidth: 1655
GlyphClass: 2
Flags: HMW
LayerCount: 2
Fore
SplineSet
89 489 m 1
 489 507 l 1
 477 408 l 1
 78 390 l 1
 89 489 l 1
EndSplineSet
EndChar

StartChar: period
Encoding: 46 46 15
Width: 235
VWidth: 1655
GlyphClass: 2
Flags: HMW
LayerCount: 2
Fore
SplineSet
178 206 m 128
 190 200 200 192 210 178 c 128
 220 164 225 154 228 143 c 128
 231 132 232 125 232 120 c 128
 232 115 230 100 224 73 c 128
 218 46 204 22 181 -1 c 128
 158 -24 131 -35 101 -35 c 1
 74 -33 54 -24 38 -8 c 128
 22 8 14 24 11 42 c 128
 8 60 7 68 7 71 c 128
 7 74 9 86 14 108 c 128
 19 130 31 153 54 176 c 128
 77 199 100 211 124 212 c 128
 148 213 166 212 178 206 c 128
EndSplineSet
EndChar

StartChar: slash
Encoding: 47 47 16
Width: 613
VWidth: 1655
GlyphClass: 2
Flags: HMW
LayerCount: 2
Fore
SplineSet
474 1245 m 1
 608 1252 l 1
 139 -357 l 1
 8 -367 l 1
 474 1245 l 1
EndSplineSet
EndChar

StartChar: zero
Encoding: 48 48 17
Width: 848
VWidth: 1655
GlyphClass: 2
Flags: HMW
LayerCount: 2
Fore
SplineSet
488 1158 m 1
 553 1154 610 1133 659 1092 c 128
 708 1051 749 997 780 931 c 0
 823 840 845 736 845 618 c 0
 845 611 844 586 841 543 c 1
 829 402 790 282 721 181 c 0
 683 126 639 81 590 45 c 128
 541 9 497 -11 457 -16 c 128
 417 -21 397 -23 393 -23 c 0
 330 -23 270 -5 214 30 c 128
 158 65 112 119 77 191 c 128
 42 263 21 345 13 437 c 1
 9 466 8 503 8 548 c 128
 8 593 14 644 28 702 c 0
 55 818 106 921 183 1011 c 1
 228 1063 274 1100 320 1123 c 128
 366 1146 416 1158 471 1158 c 2
 488 1158 l 1
197 864 m 1
 177 801 167 731 168 653 c 0
 168 509 200 375 263 251 c 1
 315 151 382 101 463 101 c 0
 525 101 572 125 605 173 c 0
 626 204 645 252 662 317 c 128
 679 382 686 448 686 517 c 0
 686 624 663 728 619 829 c 128
 575 930 520 995 453 1022 c 1
 429 1031 412 1035 401 1036 c 128
 390 1037 375 1035 355 1032 c 1
 277 1015 224 959 197 864 c 1
EndSplineSet
EndChar

StartChar: one
Encoding: 49 49 18
Width: 530
VWidth: 1655
GlyphClass: 2
Flags: HMW
LayerCount: 2
Fore
SplineSet
205 -14 m 1
 253 261 282 438 293 516 c 128
 304 594 311 658 319 707 c 128
 327 756 333 806 340 857 c 128
 347 908 354 968 364 1036 c 1
 355 1032 l 1
 329 959 301 907 272 879 c 128
 243 851 216 834 191 826 c 128
 166 818 145 815 128 815 c 128
 111 815 93 820 72 830 c 0
 30 850 9 885 8 935 c 0
 8 937 9 944 12 959 c 1
 116 966 210 997 295 1053 c 1
 333 1078 367 1107 398 1138 c 1
 524 1154 l 1
 425 -8 l 1
 205 -14 l 1
EndSplineSet
EndChar

StartChar: two
Encoding: 50 50 19
Width: 850
VWidth: 1655
GlyphClass: 2
Flags: HMW
LayerCount: 2
Fore
SplineSet
381 664 m 1
 350 626 316 607 279 607 c 0
 207 607 157 639 129 702 c 1
 118 725 113 758 113 802 c 128
 113 846 132 899 169 961 c 128
 206 1023 255 1074 316 1114 c 128
 377 1154 446 1176 522 1178 c 1
 536 1178 l 2
 625 1178 696 1150 750 1094 c 1
 813 1031 844 948 845 845 c 0
 844 698 773 558 629 424 c 0
 566 365 468 291 336 200 c 2
 223 123 l 1
 223 113 l 1
 424 121 l 1
 440 121 459 121 483 123 c 128
 507 125 522 125 530 125 c 0
 599 131 651 159 686 212 c 0
 702 234 715 262 729 296 c 2
 762 376 l 1
 836 349 l 1
 835 343 829 297 815 210 c 0
 801 123 785 48 766 -16 c 1
 611 -16 l 1
 449 -14 303 -10 171 -3 c 2
 8 5 l 1
 19 101 l 1
 200 211 l 2
 315 281 398 337 447 381 c 128
 496 425 532 464 556 499 c 128
 580 534 601 574 620 621 c 128
 639 668 649 723 651 786 c 1
 651 797 l 2
 651 863 637 922 609 974 c 128
 581 1026 542 1061 493 1078 c 1
 473 1084 451 1086 427 1086 c 128
 403 1086 376 1075 346 1054 c 128
 316 1033 297 1005 284 973 c 128
 271 941 265 912 265 885 c 0
 265 797 304 723 381 664 c 1
EndSplineSet
EndChar

StartChar: three
Encoding: 51 51 20
Width: 784
VWidth: 1655
GlyphClass: 2
Flags: HMW
LayerCount: 2
Fore
SplineSet
313 589 m 1
 414 639 l 1
 445 653 468 669 486 686 c 128
 504 703 525 727 550 760 c 1
 586 811 604 863 604 915 c 2
 604 925 l 1
 602 929 602 931 602 935 c 0
 594 1016 564 1066 509 1087 c 1
 490 1095 472 1099 452 1099 c 128
 432 1099 422 1099 418 1097 c 1
 383 1091 353 1077 331 1052 c 128
 309 1027 298 999 298 969 c 128
 298 939 303 916 314 895 c 128
 325 874 344 848 372 815 c 1
 354 781 325 762 286 757 c 1
 279 757 l 1
 277 755 276 755 272 755 c 0
 240 755 213 767 190 791 c 128
 167 815 154 844 151 881 c 1
 151 888 l 2
 151 954 183 1015 246 1071 c 0
 326 1143 422 1179 534 1179 c 0
 613 1179 674 1158 718 1115 c 1
 739 1095 754 1071 765 1041 c 128
 776 1011 780 977 780 939 c 128
 780 901 767 860 743 816 c 128
 719 772 687 735 648 706 c 1
 512 625 l 1
 512 621 l 1
 520 621 l 2
 603 621 670 586 720 515 c 0
 749 474 764 427 764 372 c 2
 764 355 l 1
 760 298 745 248 717 203 c 128
 689 158 657 121 619 90 c 128
 581 59 542 36 502 19 c 0
 424 -12 349 -28 277 -28 c 128
 205 -28 143 -11 93 23 c 0
 37 61 9 109 8 167 c 0
 8 199 15 226 30 249 c 0
 63 305 116 333 188 332 c 1
 183 309 181 290 181 273 c 128
 181 256 182 240 186 223 c 1
 196 154 226 107 275 84 c 1
 300 71 322 65 343 63 c 1
 357 63 l 2
 413 63 463 83 506 125 c 128
 549 167 573 218 579 279 c 0
 579 283 579 285 581 288 c 1
 581 298 l 2
 581 351 566 399 536 439 c 128
 506 479 464 506 411 522 c 1
 387 529 365 532 344 532 c 128
 323 532 311 532 307 530 c 1
 313 589 l 1
EndSplineSet
EndChar

StartChar: four
Encoding: 52 52 21
Width: 846
VWidth: 1655
GlyphClass: 2
Flags: HMW
LayerCount: 2
Fore
SplineSet
343 532 m 2
 153 353 l 1
 499 360 l 1
 520 585 l 1
 690 702 l 1
 646 365 l 1
 841 369 l 1
 808 233 l 1
 637 241 l 1
 618 14 l 1
 460 -12 l 1
 491 246 l 1
 23 267 l 1
 8 323 l 1
 197 510 l 1
 284 597 357 679 415 757 c 128
 473 835 514 915 537 995 c 1
 555 1048 563 1111 562 1184 c 1
 573 1186 590 1187 613 1187 c 128
 636 1187 659 1179 681 1162 c 128
 703 1145 717 1124 725 1100 c 128
 733 1076 736 1059 736 1046 c 128
 736 1033 736 1026 734 1022 c 1
 728 971 699 910 643 841 c 128
 587 772 487 669 343 532 c 2
EndSplineSet
EndChar

StartChar: five
Encoding: 53 53 22
Width: 815
VWidth: 1655
GlyphClass: 2
Flags: HMW
LayerCount: 2
Fore
SplineSet
809 1092 m 1
 800 998 733 951 608 951 c 0
 551 951 493 954 436 962 c 0
 379 970 348 973 343 973 c 1
 290 750 l 1
 298 747 l 1
 304 747 307 747 311 748 c 1
 327 748 l 2
 443 748 540 712 618 641 c 1
 694 567 732 480 733 380 c 0
 733 281 701 192 638 114 c 0
 591 57 532 17 460 -5 c 1
 413 -23 369 -31 330 -31 c 128
 291 -31 270 -31 264 -30 c 1
 202 -26 148 -11 103 18 c 1
 40 57 9 112 8 184 c 0
 8 188 9 198 12 216 c 1
 20 247 35 277 59 303 c 128
 83 329 115 343 155 346 c 1
 157 336 161 310 171 269 c 1
 204 161 263 99 349 81 c 1
 372 79 384 78 386 78 c 0
 426 78 463 89 499 111 c 128
 535 133 557 160 566 193 c 128
 575 226 579 250 579 267 c 128
 579 284 579 298 577 311 c 128
 575 324 568 348 553 383 c 1
 530 441 496 488 451 524 c 128
 406 560 355 582 298 592 c 1
 265 599 232 602 199 602 c 1
 176 620 l 1
 311 1115 l 1
 327 1113 363 1113 418 1113 c 0
 569 1113 696 1129 799 1160 c 1
 806 1140 809 1121 809 1104 c 2
 809 1092 l 1
EndSplineSet
EndChar

StartChar: six
Encoding: 54 54 23
Width: 777
VWidth: 1655
GlyphClass: 2
Flags: HMW
LayerCount: 2
Fore
SplineSet
179 423 m 2
 179 388 l 1
 185 264 209 178 253 129 c 1
 287 89 324 69 365 70 c 0
 367 70 370 70 374 72 c 1
 381 72 l 1
 408 76 433 86 456 104 c 0
 500 144 527 213 537 310 c 0
 541 334 542 359 541 385 c 0
 541 434 532 477 514 514 c 1
 505 534 491 551 471 566 c 1
 440 589 405 600 366 601 c 128
 327 602 290 596 256 584 c 128
 222 572 198 556 184 534 c 1
 180 498 179 461 179 423 c 2
65 675 m 0
 134 866 244 1009 395 1104 c 1
 462 1145 524 1165 579 1164 c 0
 631 1164 673 1151 706 1124 c 0
 749 1087 771 1044 770 995 c 0
 770 966 763 938 747 912 c 128
 731 886 708 866 676 853 c 1
 649 922 610 972 561 1003 c 0
 538 1017 516 1025 493 1029 c 1
 477 1029 l 2
 418 1029 368 1001 326 945 c 128
 284 889 253 825 232 752 c 0
 211 679 199 630 195 604 c 1
 224 642 261 670 308 690 c 128
 355 710 403 718 453 717 c 128
 503 716 547 705 585 682 c 128
 623 659 653 630 674 594 c 128
 695 558 706 523 710 487 c 128
 714 451 716 432 716 427 c 0
 716 372 703 312 677 249 c 128
 651 186 615 134 569 91 c 1
 490 20 406 -15 317 -16 c 0
 301 -16 291 -16 286 -14 c 1
 179 -5 99 52 46 158 c 1
 21 213 9 275 8 344 c 0
 8 372 8 390 10 398 c 1
 16 497 34 590 65 675 c 0
EndSplineSet
EndChar

StartChar: seven
Encoding: 55 55 24
Width: 837
VWidth: 1655
GlyphClass: 2
Flags: HMW
LayerCount: 2
Fore
SplineSet
411 537 m 0
 372 454 353 369 353 282 c 128
 353 195 384 117 446 49 c 1
 428 26 403 9 369 -3 c 1
 359 -8 346 -10 330 -10 c 128
 314 -10 294 -6 268 2 c 128
 242 10 217 28 194 58 c 128
 171 88 159 120 155 153 c 128
 151 186 149 210 149 228 c 0
 149 269 171 335 214 427 c 1
 260 515 329 619 421 738 c 2
 641 1022 l 1
 525 1018 418 1013 319 1005 c 128
 220 997 164 993 149 990 c 1
 83 830 l 1
 8 851 l 1
 42 1142 l 1
 58 1144 115 1147 217 1153 c 128
 319 1159 406 1161 477 1161 c 1
 832 1148 l 1
 829 1090 l 1
 595 812 l 2
 511 711 450 619 411 537 c 0
EndSplineSet
EndChar

StartChar: eight
Encoding: 56 56 25
Width: 729
VWidth: 1655
GlyphClass: 2
Flags: HMW
LayerCount: 2
Fore
SplineSet
471 653 m 1
 532 707 562 783 561 882 c 0
 561 935 553 978 535 1012 c 128
 517 1046 497 1068 475 1077 c 128
 453 1086 435 1090 419 1090 c 1
 398 1089 l 1
 375 1085 355 1076 337 1059 c 128
 319 1042 308 1021 301 997 c 128
 294 973 291 955 291 941 c 2
 291 931 l 1
 295 878 317 826 359 775 c 0
 393 733 430 692 471 653 c 1
246 618 m 1
 173 701 137 783 136 864 c 0
 136 878 136 886 137 890 c 1
 148 981 199 1056 291 1117 c 1
 353 1156 417 1175 484 1175 c 128
 551 1175 608 1152 654 1106 c 128
 700 1060 722 1005 722 941 c 0
 722 925 722 915 721 911 c 1
 715 852 693 795 653 740 c 128
 613 685 568 641 517 608 c 1
 578 547 622 492 647 443 c 128
 672 394 685 345 685 296 c 0
 685 280 685 270 683 265 c 1
 679 229 669 194 649 160 c 128
 629 126 604 98 573 75 c 1
 518 30 450 -1 369 -18 c 0
 342 -24 313 -26 282 -26 c 0
 170 -26 89 16 39 99 c 1
 18 132 8 171 8 216 c 0
 8 232 8 240 10 242 c 1
 14 287 26 327 47 363 c 0
 68 398 101 441 146 492 c 1
 189 535 228 570 264 599 c 1
 246 618 l 1
307 557 m 1
 225 465 183 375 181 286 c 1
 181 269 l 2
 181 186 210 126 269 89 c 0
 295 72 322 63 351 61 c 1
 355 61 l 2
 402 61 440 77 471 110 c 128
 502 143 517 189 517 246 c 128
 517 303 486 367 425 437 c 0
 409 458 370 498 307 557 c 1
EndSplineSet
EndChar

StartChar: nine
Encoding: 57 57 26
Width: 719
VWidth: 1655
GlyphClass: 2
Flags: HMW
LayerCount: 2
Fore
SplineSet
349 1090 m 0
 250 1090 195 1003 181 830 c 1
 181 812 l 1
 179 806 179 801 179 794 c 0
 179 682 212 609 279 574 c 0
 304 561 331 555 360 555 c 0
 364 555 379 557 406 561 c 128
 433 565 457 571 480 583 c 128
 503 595 518 602 526 609 c 128
 534 616 541 624 550 636 c 1
 550 681 l 2
 550 782 539 866 517 933 c 0
 484 1038 428 1090 349 1090 c 0
714 739 m 2
 714 632 702 534 677 445 c 128
 652 356 608 270 546 188 c 1
 441 53 329 -14 211 -14 c 2
 204 -14 l 2
 170 -14 138 -7 108 6 c 128
 78 19 55 38 36 64 c 128
 17 90 8 120 8 153 c 0
 8 157 9 166 12 184 c 1
 24 229 50 263 91 284 c 1
 111 248 137 217 168 191 c 1
 218 157 261 140 298 141 c 0
 312 141 320 141 323 142 c 1
 384 148 433 181 472 242 c 1
 500 289 520 357 534 448 c 0
 535 452 538 488 545 557 c 1
 520 522 487 494 445 472 c 128
 403 450 360 438 317 434 c 1
 312 432 297 432 269 432 c 128
 241 432 208 441 170 460 c 128
 132 479 102 503 81 534 c 1
 45 583 27 647 28 726 c 0
 28 827 55 920 109 1005 c 0
 143 1057 184 1098 233 1130 c 128
 282 1162 335 1178 392 1180 c 1
 401 1180 l 2
 453 1180 501 1167 544 1143 c 128
 587 1119 622 1084 649 1039 c 1
 688 975 709 891 714 788 c 1
 714 739 l 2
EndSplineSet
EndChar

StartChar: colon
Encoding: 58 58 27
Width: 300
VWidth: 1655
GlyphClass: 2
Flags: HMW
LayerCount: 2
Fore
SplineSet
296 755 m 0
 296 753 295 744 293 726 c 1
 285 695 271 672 251 653 c 128
 231 634 208 625 182 625 c 128
 156 625 135 632 122 646 c 128
 109 660 102 676 98 696 c 1
 96 698 96 701 96 708 c 128
 96 715 97 728 101 750 c 128
 105 772 118 794 139 815 c 128
 160 836 185 846 212 847 c 128
 239 848 260 839 275 820 c 128
 290 801 296 779 296 755 c 0
189 165 m 1
 202 147 207 132 208 120 c 128
 209 108 208 95 205 77 c 1
 198 50 185 27 164 5 c 128
 143 -17 118 -28 91 -28 c 1
 68 -26 49 -18 35 -3 c 1
 15 17 5 41 7 68 c 0
 7 104 20 134 45 159 c 128
 70 184 92 195 112 196 c 128
 132 197 147 196 157 191 c 128
 167 186 177 178 189 165 c 1
EndSplineSet
EndChar

StartChar: semicolon
Encoding: 59 59 28
Width: 385
VWidth: 1655
GlyphClass: 2
Flags: HMW
LayerCount: 2
Fore
SplineSet
116 181 m 1
 139 194 160 200 181 200 c 2
 191 200 l 1
 238 194 271 164 291 109 c 1
 300 82 304 63 305 51 c 128
 306 39 303 18 299 -11 c 128
 295 -40 281 -70 258 -103 c 0
 210 -172 136 -231 37 -280 c 1
 8 -230 l 1
 41 -210 63 -196 75 -187 c 128
 87 -178 102 -160 123 -134 c 128
 144 -108 155 -76 155 -40 c 0
 155 -38 153 -28 149 -9 c 128
 145 10 134 30 116 50 c 128
 98 70 79 87 58 101 c 1
 66 133 85 160 116 181 c 1
360 815 m 1
 373 797 378 782 379 770 c 128
 380 758 379 744 377 726 c 1
 369 695 356 672 336 653 c 128
 316 634 294 625 267 625 c 128
 240 625 221 632 207 646 c 0
 187 667 177 691 178 719 c 0
 178 754 190 785 215 810 c 128
 240 835 263 846 283 847 c 128
 303 848 317 846 327 841 c 128
 337 836 348 829 360 815 c 1
EndSplineSet
EndChar

StartChar: less
Encoding: 60 60 29
Width: 667
VWidth: 1655
GlyphClass: 2
Flags: HMW
LayerCount: 2
Fore
SplineSet
106 419 m 1
 113 446 l 1
 721 952 l 1
 765 883 l 1
 341 446 l 1
 644 -13 l 1
 571 -81 l 1
 106 419 l 1
EndSplineSet
EndChar

StartChar: equal
Encoding: 61 61 30
Width: 777
VWidth: 1655
GlyphClass: 2
Flags: HMW
LayerCount: 2
Fore
SplineSet
108 416 m 1
 711 416 l 1
 683 311 l 1
 81 311 l 1
 108 416 l 1
149 651 m 1
 750 651 l 1
 722 546 l 1
 121 546 l 1
 149 651 l 1
EndSplineSet
EndChar

StartChar: greater
Encoding: 62 62 31
Width: 667
VWidth: 1655
GlyphClass: 2
Flags: HMW
LayerCount: 2
Fore
SplineSet
718 419 m 1
 94 -81 l 1
 44 -13 l 1
 489 446 l 1
 204 883 l 1
 270 952 l 1
 720 446 l 1
 718 419 l 1
EndSplineSet
EndChar

StartChar: question
Encoding: 63 63 32
Width: 561
VWidth: 1655
GlyphClass: 2
Flags: HMW
LayerCount: 2
Fore
SplineSet
178 206 m 128
 190 200 200 192 210 178 c 128
 220 164 225 154 228 143 c 128
 231 132 232 125 232 120 c 128
 232 115 230 100 224 73 c 128
 218 46 204 22 181 -1 c 128
 158 -24 131 -35 101 -35 c 1
 74 -33 54 -24 38 -8 c 128
 22 8 14 24 11 42 c 128
 8 60 7 68 7 71 c 128
 7 74 9 86 14 108 c 128
 19 130 31 153 54 176 c 128
 77 199 100 211 124 212 c 128
 148 213 166 212 178 206 c 128
86 504 m 1
 81 555 l 1
 81 595 92 631 115 662 c 128
 138 693 161 715 184 730 c 128
 207 745 237 759 275 775 c 128
 313 791 341 804 360 816 c 128
 379 828 397 844 417 866 c 128
 437 888 447 913 450 941 c 0
 450 945 450 947 451 951 c 1
 451 959 l 2
 451 1012 427 1057 378 1092 c 1
 358 1105 342 1112 328 1114 c 128
 314 1116 308 1117 307 1118 c 1
 298 1118 l 2
 263 1118 227 1110 190 1093 c 128
 153 1076 126 1061 109 1045 c 1
 98 1050 89 1057 80 1069 c 1
 62 1089 54 1107 54 1125 c 128
 54 1143 54 1153 56 1156 c 1
 64 1204 95 1242 149 1269 c 0
 181 1285 215 1292 251 1292 c 2
 272 1292 l 1
 331 1288 383 1269 427 1234 c 128
 471 1199 504 1154 525 1101 c 128
 546 1048 557 1000 557 957 c 128
 557 914 555 884 550 864 c 0
 537 801 504 746 450 699 c 1
 415 669 372 646 323 628 c 1
 288 614 267 604 257 594 c 128
 247 584 237 574 227 562 c 0
 209 543 201 513 200 472 c 0
 200 464 200 457 202 451 c 1
 202 430 l 2
 202 428 203 414 207 385 c 1
 129 369 l 1
 106 428 92 473 86 504 c 1
EndSplineSet
EndChar

StartChar: at
Encoding: 64 64 33
Width: 1277
VWidth: 1655
GlyphClass: 2
Flags: HMW
LayerCount: 2
Fore
SplineSet
764 602 m 1
 723 663 682 693 641 693 c 2
 634 693 l 2
 614 693 595 687 574 673 c 128
 553 659 538 644 527 625 c 1
 510 600 494 553 478 485 c 128
 462 417 455 363 455 320 c 2
 455 307 l 2
 455 284 456 263 459 244 c 128
 462 225 465 214 467 210 c 128
 469 206 471 203 475 199 c 128
 479 195 480 194 481 193 c 128
 482 192 484 191 488 188 c 0
 493 183 501 181 513 181 c 128
 525 181 539 186 555 198 c 128
 571 210 589 228 610 253 c 128
 631 278 659 326 694 398 c 128
 729 470 752 538 764 602 c 1
703 83 m 128
 691 98 686 124 686 159 c 128
 686 194 696 242 716 305 c 1
 704 307 l 1
 679 254 655 211 631 177 c 128
 607 143 578 115 545 93 c 128
 512 71 478 60 444 60 c 128
 410 60 381 74 357 104 c 128
 333 134 321 167 317 204 c 1
 315 210 315 224 315 249 c 128
 315 274 322 323 338 395 c 0
 368 532 436 646 543 738 c 1
 588 773 629 790 667 790 c 128
 705 790 741 771 776 733 c 1
 790 731 l 1
 796 802 l 1
 815 809 l 1
 920 778 l 1
 859 463 l 1
 844 356 837 301 835 296 c 1
 832 253 l 2
 830 218 829 201 829 199 c 2
 829 188 l 2
 829 184 830 181 835 176 c 128
 840 171 844 168 849 168 c 128
 854 168 857 168 859 170 c 1
 867 170 l 1
 883 172 894 173 900 175 c 128
 906 177 912 177 919 179 c 128
 926 181 930 182 932 183 c 128
 934 184 937 185 943 187 c 128
 949 189 953 190 956 192 c 128
 959 194 962 196 967 199 c 128
 972 202 976 204 980 208 c 128
 984 212 988 214 994 218 c 0
 1047 262 1083 310 1104 362 c 128
 1125 414 1135 478 1135 553 c 0
 1136 720 1067 840 927 913 c 1
 860 946 789 962 712 961 c 0
 607 961 511 932 426 876 c 128
 341 820 276 745 233 651 c 1
 188 557 165 458 165 355 c 128
 165 252 186 164 228 90 c 128
 270 16 330 -39 407 -78 c 128
 484 -117 570 -137 665 -137 c 2
 686 -137 l 1
 729 -136 777 -130 828 -117 c 128
 879 -104 923 -88 961 -67 c 0
 1005 -44 1032 -29 1042 -21 c 1
 1078 -75 l 1
 1069 -80 l 1
 1008 -139 937 -178 855 -199 c 128
 773 -220 705 -230 651 -230 c 2
 637 -230 l 2
 531 -230 430 -210 334 -170 c 128
 238 -130 163 -72 106 3 c 1
 40 93 7 202 8 331 c 128
 9 460 40 581 103 692 c 128
 166 803 254 890 365 955 c 128
 476 1020 601 1052 738 1052 c 2
 747 1052 l 1
 845 1049 933 1029 1013 991 c 128
 1093 953 1156 899 1202 828 c 128
 1248 757 1270 679 1271 594 c 1
 1271 583 l 2
 1271 498 1250 416 1209 340 c 128
 1168 264 1112 200 1040 148 c 128
 968 96 891 64 809 52 c 1
 805 50 797 50 783 51 c 1
 750 54 l 1
 730 59 715 68 703 83 c 128
EndSplineSet
EndChar

StartChar: A
Encoding: 65 65 34
Width: 1214
VWidth: 1655
GlyphClass: 2
Flags: HMW
LayerCount: 2
Fore
SplineSet
768 505 m 1
 680 1062 l 1
 676 1062 l 1
 645 911 562 655 520 536 c 1
 768 505 l 1
824 1271 m 1
 1032 132 l 1
 1210 81 l 1
 1187 0 l 1
 611 0 l 1
 634 72 l 1
 832 108 l 1
 780 432 l 1
 489 446 l 1
 456 310 311 -28 142 -28 c 3
 59 -28 -9 35 -31 101 c 1
 362 253 540 765 644 1241 c 1
 824 1271 l 1
EndSplineSet
EndChar

StartChar: B
Encoding: 66 66 35
Width: 1140
VWidth: 1655
GlyphClass: 2
Flags: HMW
LayerCount: 2
Fore
SplineSet
499 678 m 1
 595 674 l 1
 665 674 720 680 761 693 c 128
 802 706 839 731 873 767 c 128
 907 803 925 846 929 897 c 0
 929 902 929 905 931 908 c 1
 931 920 l 2
 931 994 905 1054 854 1100 c 128
 803 1146 739 1171 662 1176 c 1
 656 1178 647 1178 632 1178 c 128
 617 1178 594 1177 560 1175 c 1
 499 678 l 1
425 101 m 1
 478 94 533 91 589 91 c 2
 621 91 l 1
 715 93 788 111 839 144 c 1
 906 191 940 249 940 318 c 0
 940 332 940 341 938 346 c 1
 931 399 907 445 865 486 c 128
 823 527 771 556 709 572 c 128
 647 588 573 595 488 595 c 1
 425 101 l 1
8 0 m 1
 30 75 l 1
 240 129 l 1
 369 1062 l 1
 146 1078 l 1
 165 1155 l 1
 423 1224 610 1259 727 1260 c 128
 844 1261 939 1235 1010 1184 c 1
 1081 1130 1116 1064 1117 985 c 0
 1117 942 1103 896 1074 845 c 1
 1015 751 934 692 830 667 c 1
 830 660 l 1
 853 656 883 648 921 634 c 0
 959 620 991 603 1016 583 c 1
 1055 554 1083 520 1103 481 c 128
 1123 442 1133 408 1133 379 c 0
 1132 350 1132 333 1132 328 c 1
 1125 265 1100 209 1054 161 c 128
 1008 113 953 77 889 54 c 128
 825 31 769 17 722 10 c 128
 675 3 611 0 530 0 c 2
 8 0 l 1
EndSplineSet
EndChar

StartChar: C
Encoding: 67 67 36
Width: 951
VWidth: 1655
GlyphClass: 2
Flags: HMW
LayerCount: 2
Fore
SplineSet
724 927 m 2
 724 960 721 989 715 1014 c 128
 709 1039 697 1061 676 1081 c 1
 645 1118 600 1137 541 1135 c 1
 439 1129 361 1075 307 971 c 1
 255 877 229 744 228 571 c 0
 228 475 240 397 265 338 c 128
 290 279 321 231 359 195 c 0
 411 147 473 123 545 125 c 0
 633 125 713 164 786 241 c 1
 807 262 825 285 841 310 c 1
 883 248 l 1
 869 213 849 177 820 142 c 0
 759 69 683 19 594 -10 c 0
 552 -23 510 -29 468 -30 c 128
 426 -31 384 -24 339 -12 c 1
 246 17 170 71 109 151 c 128
 48 231 16 332 10 455 c 1
 10 486 l 2
 10 707 80 900 221 1064 c 1
 333 1193 462 1257 608 1255 c 0
 709 1255 791 1227 855 1170 c 0
 882 1147 903 1119 920 1088 c 128
 937 1057 945 1021 945 982 c 2
 945 971 l 1
 942 931 929 895 906 864 c 128
 883 833 857 814 829 806 c 128
 801 798 779 794 764 794 c 1
 712 802 l 1
 719 831 722 865 724 904 c 1
 724 927 l 2
EndSplineSet
EndChar

StartChar: D
Encoding: 68 68 37
Width: 1388
VWidth: 1655
GlyphClass: 2
Flags: HMW
LayerCount: 2
Fore
SplineSet
434 106 m 1
 818 106 1054 221 1143 450 c 1
 1168 515 1180 589 1180 672 c 128
 1180 755 1162 832 1127 904 c 1
 1102 957 1068 1001 1026 1037 c 128
 984 1073 925 1104 849 1132 c 128
 773 1160 713 1174 668 1175 c 128
 623 1176 587 1175 561 1171 c 1
 434 106 l 1
8 0 m 1
 28 77 l 1
 237 129 l 1
 364 1068 l 1
 147 1085 l 1
 168 1156 l 1
 337 1219 529 1250 745 1250 c 0
 782 1250 806 1250 817 1249 c 1
 997 1240 1131 1200 1220 1127 c 1
 1260 1094 1293 1055 1319 1009 c 0
 1362 932 1384 846 1383 752 c 0
 1383 729 1382 706 1378 681 c 1
 1360 507 1284 358 1150 234 c 0
 1025 119 868 47 680 18 c 0
 601 6 487 0 336 0 c 2
 8 0 l 1
EndSplineSet
EndChar

StartChar: E
Encoding: 69 69 38
Width: 1203
VWidth: 1655
GlyphClass: 2
Flags: HMW
LayerCount: 2
Fore
SplineSet
1058 0 m 1
 690 2 483 3 440 3 c 1
 8 -3 l 1
 31 80 l 1
 249 134 l 1
 374 1094 l 1
 147 1117 l 1
 167 1192 l 1
 245 1208 355 1220 500 1233 c 128
 645 1246 778 1252 900 1252 c 1
 1197 1246 l 1
 1117 835 l 1
 1031 848 l 1
 999 1111 l 1
 971 1117 l 1
 876 1136 753 1145 602 1143 c 2
 569 1143 l 1
 514 680 l 1
 969 714 l 1
 935 569 l 1
 502 578 l 1
 440 98 l 1
 657 108 l 2
 779 115 863 122 908 132 c 1
 931 169 957 222 988 292 c 128
 1019 362 1038 415 1048 451 c 1
 1135 440 l 1
 1135 434 l 2
 1135 345 1128 262 1114 182 c 128
 1100 102 1082 41 1058 0 c 1
EndSplineSet
EndChar

StartChar: F
Encoding: 70 70 39
Width: 1203
VWidth: 1655
GlyphClass: 2
Flags: HMW
LayerCount: 2
Fore
SplineSet
900 1252 m 1
 1197 1246 l 1
 1117 818 l 1
 1022 832 l 1
 994 1102 l 1
 962 1107 l 1
 869 1123 759 1134 631 1142 c 1
 569 1143 l 1
 514 637 l 1
 969 670 l 1
 935 519 l 1
 500 537 l 1
 446 109 l 1
 696 80 l 1
 676 -2 l 1
 8 -2 l 1
 31 80 l 1
 249 134 l 1
 374 1094 l 1
 147 1117 l 1
 167 1192 l 1
 245 1208 356 1220 500 1233 c 128
 644 1246 778 1252 900 1252 c 1
EndSplineSet
EndChar

StartChar: G
Encoding: 71 71 40
Width: 1236
VWidth: 1655
GlyphClass: 2
Flags: HMW
LayerCount: 2
Fore
SplineSet
1107 843 m 1
 1019 858 l 1
 1008 1050 l 1
 986 1084 948 1111 894 1132 c 128
 840 1153 773 1164 695 1164 c 0
 575 1164 470 1123 381 1041 c 0
 335 997 300 937 275 861 c 128
 250 785 237 699 237 602 c 2
 237 540 l 1
 244 403 284 292 358 206 c 128
 432 120 533 77 658 77 c 0
 746 77 809 92 848 123 c 1
 885 437 l 1
 653 474 l 1
 675 557 l 1
 1233 557 l 1
 1212 483 l 1
 1081 440 l 1
 1039 88 l 1
 917 8 745 -32 524 -33 c 0
 419 -33 328 -11 251 33 c 0
 100 118 20 263 10 468 c 1
 10 492 l 1
 8 499 8 506 8 514 c 0
 8 603 22 689 51 771 c 128
 80 853 119 923 168 983 c 0
 268 1104 392 1188 540 1233 c 0
 613 1255 685 1266 757 1266 c 0
 943 1266 1082 1233 1173 1166 c 1
 1107 843 l 1
EndSplineSet
EndChar

StartChar: H
Encoding: 72 72 41
Width: 1565
VWidth: 1655
GlyphClass: 2
Flags: HMW
LayerCount: 2
Fore
SplineSet
1148 1113 m 1
 920 1122 l 1
 938 1197 l 1
 1095 1228 1252 1244 1407 1245 c 0
 1459 1245 1510 1243 1559 1239 c 1
 1541 1163 l 1
 1336 1109 l 1
 1220 129 l 1
 1431 81 l 1
 1410 0 l 1
 783 0 l 1
 802 78 l 1
 1024 113 l 1
 1085 600 l 1
 497 567 l 1
 440 106 l 1
 651 81 l 1
 627 0 l 1
 8 0 l 1
 26 78 l 1
 249 129 l 1
 372 1090 l 1
 146 1123 l 1
 165 1199 l 1
 273 1222 362 1235 428 1239 c 128
 494 1243 556 1245 613 1245 c 128
 670 1245 728 1243 786 1239 c 1
 766 1164 l 1
 567 1142 l 1
 512 680 l 1
 1097 701 l 1
 1148 1113 l 1
EndSplineSet
EndChar

StartChar: I
Encoding: 73 73 42
Width: 791
VWidth: 1655
GlyphClass: 2
Flags: HMW
LayerCount: 2
Fore
SplineSet
634 0 m 1
 8 0 l 1
 26 78 l 1
 249 129 l 1
 372 1090 l 1
 146 1123 l 1
 165 1199 l 1
 313 1230 467 1246 629 1246 c 0
 672 1246 724 1244 786 1239 c 1
 766 1164 l 1
 567 1142 l 1
 440 106 l 1
 658 81 l 1
 634 0 l 1
EndSplineSet
EndChar

StartChar: J
Encoding: 74 74 43
Width: 960
VWidth: 1655
GlyphClass: 2
Flags: HMW
LayerCount: 2
Fore
SplineSet
267 -365 m 0
 246 -372 226 -374 207 -375 c 128
 188 -376 178 -376 174 -374 c 1
 140 -370 109 -359 82 -339 c 128
 55 -319 36 -292 23 -259 c 1
 14 -239 10 -217 10 -191 c 128
 10 -165 15 -139 26 -113 c 1
 88 -142 146 -158 200 -163 c 1
 212 -163 l 1
 216 -165 219 -165 223 -165 c 0
 296 -165 347 -140 378 -89 c 1
 394 -64 405 -41 413 -17 c 128
 421 7 426 37 432 74 c 128
 438 111 441 143 445 172 c 128
 449 201 450 222 452 238 c 0
 456 272 458 306 461 340 c 128
 464 374 472 457 488 589 c 2
 545 1087 l 1
 320 1117 l 1
 336 1194 l 1
 444 1220 557 1236 675 1243 c 1
 722 1247 770 1248 817 1248 c 128
 864 1248 911 1247 957 1243 c 1
 938 1166 l 1
 743 1142 l 1
 648 385 l 1
 622 198 592 59 557 -33 c 128
 522 -125 481 -197 436 -251 c 128
 391 -305 334 -343 267 -365 c 0
EndSplineSet
EndChar

StartChar: K
Encoding: 75 75 44
Width: 1323
VWidth: 1655
GlyphClass: 2
Flags: HMW
LayerCount: 2
Fore
SplineSet
560 512 m 1
 529 560 506 591 489 607 c 1
 492 631 l 1
 544 669 585 705 615 738 c 2
 957 1127 l 1
 801 1171 l 1
 818 1248 l 1
 1317 1248 l 1
 1298 1171 l 1
 1113 1127 l 1
 683 657 l 1
 877 385 l 2
 954 278 1012 205 1051 167 c 128
 1090 129 1137 101 1192 83 c 2
 1226 72 l 1
 1207 2 l 1
 1160 -14 1115 -22 1074 -23 c 0
 1001 -23 935 0 877 47 c 128
 819 94 763 166 706 263 c 1
 560 512 l 1
401 125 m 1
 585 81 l 1
 562 0 l 1
 8 0 l 1
 28 75 l 1
 207 129 l 1
 328 1122 l 1
 146 1171 l 1
 168 1248 l 1
 719 1248 l 1
 699 1171 l 1
 520 1127 l 1
 401 125 l 1
EndSplineSet
EndChar

StartChar: L
Encoding: 76 76 45
Width: 1142
VWidth: 1655
GlyphClass: 2
Flags: HMW
LayerCount: 2
Fore
SplineSet
1058 0 m 1
 690 2 483 3 440 3 c 1
 8 -3 l 1
 31 80 l 1
 249 134 l 1
 374 1094 l 1
 147 1117 l 1
 167 1192 l 1
 285 1228 431 1246 605 1246 c 0
 643 1246 689 1245 744 1241 c 128
 799 1237 828 1236 834 1236 c 1
 820 1155 l 1
 573 1132 l 1
 440 106 l 1
 657 116 l 1
 755 122 834 129 893 139 c 1
 934 183 984 293 1043 470 c 1
 1135 456 l 1
 1135 448 1135 441 1137 434 c 1
 1137 408 l 2
 1137 335 1129 259 1114 179 c 128
 1099 99 1081 39 1058 0 c 1
EndSplineSet
EndChar

StartChar: M
Encoding: 77 77 46
Width: 1699
VWidth: 1655
GlyphClass: 2
Flags: HMW
LayerCount: 2
Fore
SplineSet
1380 186 m 0
 1380 151 1391 134 1412 134 c 0
 1414 134 1420 136 1434 140 c 128
 1448 144 1464 157 1484 178 c 128
 1504 199 1531 232 1566 279 c 1
 1614 244 l 1
 1588 145 1531 68 1442 13 c 1
 1397 -14 1352 -28 1305 -29 c 128
 1258 -30 1225 -20 1205 0 c 128
 1185 20 1176 50 1176 89 c 0
 1176 95 1176 99 1178 103 c 1
 1178 114 l 1
 1180 159 1187 235 1201 343 c 2
 1283 999 l 1
 1207 814 1132 645 1058 492 c 128
 984 339 921 224 872 146 c 0
 866 137 845 106 809 52 c 1
 681 33 l 1
 440 999 l 1
 437 999 l 1
 418 486 l 2
 413 374 406 291 395 236 c 128
 384 181 363 129 330 78 c 0
 283 6 229 -30 168 -31 c 0
 141 -31 116 -25 93 -12 c 128
 70 1 52 19 38 41 c 128
 24 63 17 80 13 94 c 1
 89 128 148 174 191 233 c 0
 270 345 316 555 332 864 c 1
 334 925 335 994 336 1071 c 1
 109 1125 l 1
 132 1201 l 1
 291 1231 437 1246 573 1248 c 1
 628 1055 l 1
 812 343 l 1
 1205 1068 l 1
 1298 1231 l 1
 1311 1234 1340 1236 1387 1240 c 128
 1434 1244 1483 1246 1533 1246 c 128
 1583 1246 1637 1243 1696 1236 c 1
 1673 1158 l 1
 1456 1101 l 1
 1385 287 l 1
 1383 252 1382 233 1382 227 c 2
 1382 207 l 1
 1380 201 1380 195 1380 186 c 0
EndSplineSet
EndChar

StartChar: N
Encoding: 78 78 47
Width: 1506
VWidth: 1655
GlyphClass: 2
Flags: HMW
LayerCount: 2
Fore
SplineSet
1011 -31 m 1
 456 999 l 1
 453 999 l 1
 434 486 l 2
 429 381 421 298 407 239 c 128
 393 180 366 124 327 70 c 1
 274 3 218 -31 158 -31 c 2
 151 -31 l 1
 92 -25 51 1 26 49 c 1
 17 69 12 87 8 103 c 1
 89 140 152 187 197 242 c 1
 291 356 341 564 349 864 c 1
 351 984 352 1053 353 1071 c 1
 127 1125 l 1
 149 1201 l 1
 242 1220 316 1230 373 1235 c 128
 430 1240 491 1243 558 1246 c 1
 646 1078 l 1
 1081 274 l 1
 1152 1106 l 1
 925 1122 l 1
 945 1197 l 1
 1050 1220 1134 1233 1195 1238 c 128
 1256 1243 1311 1245 1358 1245 c 128
 1405 1245 1453 1243 1501 1239 c 1
 1480 1163 l 1
 1275 1109 l 1
 1171 2 l 1
 1011 -31 l 1
EndSplineSet
EndChar

StartChar: O
Encoding: 79 79 48
Width: 1078
VWidth: 1655
GlyphClass: 2
Flags: HMW
LayerCount: 2
Fore
SplineSet
251 888 m 128
 228 817 217 734 217 639 c 128
 217 544 230 455 257 375 c 128
 284 295 321 233 371 188 c 128
 421 143 477 120 540 120 c 0
 637 120 715 167 776 260 c 128
 837 353 867 475 867 625 c 0
 867 720 854 805 827 881 c 128
 800 957 759 1018 706 1063 c 128
 653 1108 592 1130 525 1130 c 128
 458 1130 401 1108 355 1063 c 128
 309 1018 274 959 251 888 c 128
1074 744 m 1
 1072 596 1037 457 969 325 c 1
 892 179 793 78 675 21 c 0
 608 -12 534 -28 452 -28 c 128
 370 -28 294 -4 224 45 c 128
 154 94 101 158 64 238 c 128
 27 318 8 408 8 505 c 0
 8 642 34 769 86 886 c 128
 138 1003 212 1098 307 1169 c 128
 402 1240 511 1275 631 1275 c 0
 722 1275 802 1249 873 1196 c 128
 944 1143 996 1077 1027 998 c 128
 1058 919 1074 836 1074 748 c 2
 1074 744 l 1
EndSplineSet
EndChar

StartChar: P
Encoding: 80 80 49
Width: 1165
VWidth: 1655
GlyphClass: 2
Flags: HMW
LayerCount: 2
Fore
SplineSet
540 534 m 1
 579 538 616 543 653 553 c 1
 752 576 829 615 883 670 c 128
 937 725 964 795 964 881 c 128
 964 967 934 1040 875 1100 c 128
 816 1160 734 1191 631 1191 c 0
 611 1191 592 1190 573 1186 c 1
 439 116 l 1
 667 84 l 1
 643 0 l 1
 8 0 l 1
 26 78 l 1
 242 132 l 1
 365 1066 l 1
 149 1089 l 1
 165 1158 l 1
 362 1227 550 1261 727 1262 c 0
 866 1262 973 1232 1047 1172 c 128
 1121 1112 1158 1025 1158 913 c 0
 1158 798 1106 697 1001 610 c 0
 950 569 886 534 808 506 c 128
 730 478 643 460 546 451 c 1
 540 534 l 1
EndSplineSet
EndChar

StartChar: Q
Encoding: 81 81 50
Width: 1090
VWidth: 1655
GlyphClass: 2
Flags: HMW
LayerCount: 2
Fore
SplineSet
627 1275 m 2
 648 1275 l 1
 792 1267 899 1204 971 1085 c 1
 1032 984 1062 868 1062 736 c 0
 1062 681 1056 621 1042 555 c 0
 1016 427 970 317 904 223 c 128
 838 129 753 59 649 14 c 1
 658 -55 689 -111 742 -155 c 0
 780 -186 822 -202 869 -202 c 2
 874 -202 l 2
 900 -202 931 -196 966 -183 c 128
 1001 -170 1034 -154 1064 -134 c 1
 1086 -216 l 1
 1011 -317 915 -373 801 -385 c 1
 786 -385 l 1
 781 -387 777 -387 771 -386 c 0
 695 -386 634 -362 590 -314 c 128
 546 -266 521 -201 515 -120 c 1
 515 -103 l 1
 513 -98 513 -89 514 -74 c 128
 515 -59 515 -42 519 -21 c 1
 499 -25 475 -26 446 -26 c 128
 417 -26 389 -22 360 -14 c 1
 269 8 192 58 127 135 c 0
 48 231 9 364 10 534 c 0
 10 770 87 962 240 1109 c 0
 306 1172 380 1217 463 1246 c 1
 515 1266 570 1275 627 1275 c 2
334 1052 m 0
 251 965 209 832 211 651 c 0
 211 498 232 378 275 293 c 1
 310 224 359 175 421 144 c 1
 456 125 488 116 514 116 c 128
 540 116 555 116 560 118 c 1
 610 124 654 140 693 168 c 0
 762 219 809 294 835 395 c 1
 853 454 861 523 861 602 c 0
 861 607 860 634 858 683 c 1
 844 872 787 1004 686 1078 c 1
 639 1115 585 1133 524 1132 c 0
 449 1133 386 1106 334 1052 c 0
EndSplineSet
EndChar

StartChar: R
Encoding: 82 82 51
Width: 1234
VWidth: 1655
GlyphClass: 2
Flags: HMW
LayerCount: 2
Fore
SplineSet
424 106 m 1
 608 72 l 1
 589 0 l 1
 8 0 l 1
 26 75 l 1
 240 127 l 1
 365 1065 l 1
 144 1078 l 1
 158 1155 l 1
 225 1178 314 1201 424 1224 c 128
 534 1247 615 1259 667 1259 c 128
 719 1259 747 1259 755 1257 c 1
 935 1244 1050 1174 1101 1048 c 1
 1113 1019 1119 992 1118 967 c 0
 1118 891 1095 824 1050 765 c 0
 1017 724 974 687 918 654 c 128
 862 621 808 594 755 574 c 1
 755 571 l 1
 902 325 l 1
 933 270 958 231 979 206 c 128
 1000 181 1023 161 1049 144 c 128
 1075 127 1109 115 1152 106 c 1
 1231 91 l 1
 1224 31 l 1
 1169 -2 1111 -18 1052 -18 c 0
 950 -18 867 24 804 108 c 0
 784 134 763 171 738 218 c 2
 613 453 l 1
 597 478 587 494 583 500 c 2
 546 546 l 1
 529 567 l 1
 540 597 l 1
 618 615 l 1
 732 638 812 679 857 739 c 0
 877 765 891 793 901 821 c 128
 911 849 915 878 915 908 c 0
 915 981 891 1044 843 1098 c 128
 795 1152 734 1179 660 1179 c 0
 625 1179 595 1176 569 1168 c 1
 424 106 l 1
EndSplineSet
EndChar

StartChar: S
Encoding: 83 83 52
Width: 856
VWidth: 1655
GlyphClass: 2
Flags: HMW
LayerCount: 2
Fore
SplineSet
265 401 m 1
 245 346 235 297 237 256 c 0
 237 193 259 146 302 113 c 1
 325 97 347 87 370 84 c 128
 393 81 406 80 411 80 c 0
 452 80 490 91 526 114 c 0
 583 150 611 200 611 262 c 128
 611 324 589 378 546 423 c 1
 530 442 504 465 468 493 c 1
 363 577 285 650 234 712 c 128
 183 774 157 839 157 906 c 0
 157 911 157 914 158 918 c 1
 158 928 l 1
 162 969 173 1007 193 1043 c 0
 228 1109 278 1163 345 1206 c 128
 412 1249 482 1272 557 1278 c 1
 581 1278 l 2
 686 1278 778 1245 855 1178 c 1
 790 832 l 1
 702 851 l 1
 695 1101 l 1
 663 1144 623 1170 576 1179 c 1
 563 1183 550 1184 536 1184 c 0
 490 1184 449 1169 411 1139 c 128
 373 1109 353 1068 349 1016 c 1
 349 1005 l 2
 349 956 362 914 387 878 c 128
 412 842 456 799 518 749 c 128
 580 699 629 658 666 623 c 128
 703 588 734 552 761 513 c 128
 788 474 805 429 812 376 c 1
 814 372 814 364 813 348 c 0
 813 261 782 185 719 120 c 1
 628 24 512 -24 369 -24 c 0
 270 -24 184 0 113 49 c 0
 83 70 59 94 41 123 c 128
 23 152 13 180 10 207 c 1
 8 211 8 218 8 232 c 128
 8 246 10 264 16 286 c 1
 34 339 68 375 120 395 c 1
 143 406 167 411 193 411 c 128
 219 411 244 408 265 401 c 1
EndSplineSet
EndChar

StartChar: T
Encoding: 84 84 53
Width: 1099
VWidth: 1655
GlyphClass: 2
Flags: HMW
LayerCount: 2
Fore
SplineSet
434 1123 m 1
 349 1135 292 1141 261 1140 c 128
 230 1139 209 1140 199 1138 c 1
 103 818 l 1
 8 832 l 1
 8 1224 l 1
 189 1240 393 1249 620 1252 c 1
 731 1252 l 1
 1096 1246 l 1
 1015 818 l 1
 920 832 l 1
 890 1117 l 1
 796 1133 711 1141 636 1143 c 1
 512 109 l 1
 762 80 l 1
 744 -2 l 1
 75 -2 l 1
 98 80 l 1
 315 134 l 1
 434 1123 l 1
EndSplineSet
EndChar

StartChar: U
Encoding: 85 85 54
Width: 1425
VWidth: 1655
GlyphClass: 2
Flags: HMW
LayerCount: 2
Fore
SplineSet
230 1087 m 1
 8 1123 l 1
 30 1201 l 1
 191 1230 355 1245 522 1245 c 1
 646 1243 l 1
 628 1166 l 1
 429 1138 l 1
 381 745 l 2
 381 743 381 735 379 721 c 128
 377 707 375 682 370 647 c 128
 365 612 364 585 362 566 c 128
 360 547 360 520 360 487 c 128
 360 454 361 426 364 404 c 0
 367 382 371 357 378 329 c 0
 393 274 424 227 472 188 c 1
 522 145 582 123 651 123 c 128
 720 123 779 139 826 170 c 128
 873 201 908 241 933 291 c 128
 958 341 978 422 994 534 c 1
 1068 1111 l 1
 843 1120 l 1
 861 1197 l 1
 1002 1228 1151 1243 1309 1243 c 0
 1317 1243 1354 1242 1421 1239 c 1
 1401 1163 l 1
 1194 1096 l 1
 1109 517 l 1
 1086 362 1051 249 1005 178 c 1
 980 140 954 109 925 85 c 128
 896 61 861 40 820 19 c 0
 746 -16 669 -34 589 -34 c 2
 579 -34 l 1
 451 -28 351 11 280 83 c 0
 199 164 159 277 158 425 c 0
 158 477 166 569 184 702 c 1
 230 1087 l 1
EndSplineSet
EndChar

StartChar: V
Encoding: 86 86 55
Width: 1076
VWidth: 1655
GlyphClass: 2
Flags: HMW
LayerCount: 2
Fore
SplineSet
719 1201 m 1
 761 1243 810 1264 866 1264 c 0
 947 1264 1006 1226 1045 1150 c 0
 1063 1117 1071 1075 1071 1024 c 0
 1071 1019 1070 999 1068 962 c 1
 1055 836 1015 698 947 547 c 128
 879 396 799 261 706 142 c 1
 657 83 616 37 583 5 c 1
 439 -26 l 1
 230 1081 l 1
 8 1122 l 1
 28 1197 l 1
 163 1228 293 1244 418 1246 c 1
 605 188 l 1
 613 188 l 1
 650 227 686 273 721 327 c 1
 794 442 841 572 864 716 c 0
 869 743 871 777 871 817 c 0
 871 904 855 985 822 1058 c 1
 793 1118 759 1166 719 1201 c 1
EndSplineSet
EndChar

StartChar: W
Encoding: 87 87 56
Width: 1543
VWidth: 1655
GlyphClass: 2
Flags: HMW
LayerCount: 2
Fore
SplineSet
835 -28 m 1
 806 621 l 1
 796 621 l 1
 737 455 667 301 585 158 c 0
 563 121 532 70 491 5 c 1
 317 -26 l 1
 225 1081 l 1
 8 1122 l 1
 35 1197 l 1
 175 1228 307 1244 432 1246 c 1
 499 237 l 1
 509 237 l 1
 609 382 689 553 750 752 c 0
 773 829 796 912 817 999 c 1
 966 1034 l 1
 1018 195 l 1
 1026 195 l 1
 1162 339 1250 510 1292 709 c 1
 1305 776 1311 835 1311 888 c 0
 1311 996 1288 1102 1243 1207 c 1
 1286 1238 1333 1253 1383 1252 c 2
 1389 1252 l 1
 1468 1246 1515 1206 1531 1130 c 0
 1536 1110 1538 1081 1538 1041 c 128
 1538 1001 1532 951 1518 892 c 1
 1494 773 1444 648 1367 517 c 1
 1298 395 1215 276 1118 162 c 1
 1095 131 1048 78 977 3 c 1
 835 -28 l 1
EndSplineSet
EndChar

StartChar: X
Encoding: 88 88 57
Width: 1300
VWidth: 1655
GlyphClass: 2
Flags: HMW
LayerCount: 2
Fore
SplineSet
336 1071 m 1
 94 1122 l 1
 113 1197 l 1
 216 1220 293 1233 343 1237 c 128
 393 1241 442 1244 488 1246 c 1
 721 729 l 1
 736 770 750 803 764 829 c 1
 792 891 829 960 876 1036 c 128
 923 1112 964 1163 999 1192 c 0
 1049 1232 1100 1252 1150 1252 c 128
 1200 1252 1239 1233 1266 1194 c 1
 1282 1168 1290 1150 1292 1140 c 128
 1294 1130 1294 1114 1294 1092 c 128
 1294 1070 1287 1045 1271 1019 c 1
 1244 1026 1217 1029 1191 1029 c 1
 1145 1026 l 1
 1027 1010 924 934 838 797 c 1
 811 750 787 698 764 639 c 1
 892 357 l 2
 931 272 966 214 995 184 c 0
 1011 168 1027 161 1046 162 c 128
 1065 163 1081 169 1097 184 c 1
 1128 207 1160 245 1194 298 c 1
 1243 264 l 1
 1231 219 1216 181 1197 151 c 0
 1149 75 1091 24 1022 -2 c 1
 996 -11 972 -15 951 -14 c 0
 902 -14 860 4 825 39 c 0
 807 57 794 73 785 88 c 128
 776 103 754 147 721 220 c 1
 583 529 l 1
 548 435 497 329 430 211 c 1
 380 126 334 68 291 35 c 1
 252 4 210 -11 167 -10 c 1
 142 -8 l 1
 107 -2 78 13 55 39 c 0
 24 73 10 107 9 142 c 128
 8 177 13 205 24 228 c 1
 44 226 65 225 88 225 c 1
 150 228 l 1
 282 242 383 314 456 446 c 0
 479 487 506 546 538 623 c 1
 336 1071 l 1
EndSplineSet
EndChar

StartChar: Y
Encoding: 89 89 58
Width: 1078
VWidth: 1655
GlyphClass: 2
Flags: HMW
LayerCount: 2
Fore
SplineSet
608 680 m 1
 579 583 557 476 543 359 c 2
 514 106 l 1
 727 81 l 1
 706 0 l 1
 80 0 l 1
 99 83 l 1
 320 129 l 1
 359 423 l 2
 366 470 369 519 369 569 c 0
 369 688 347 796 302 893 c 1
 241 1019 144 1092 8 1111 c 1
 18 1160 39 1197 73 1221 c 128
 107 1245 147 1259 191 1262 c 1
 202 1262 l 2
 310 1262 391 1203 446 1086 c 0
 483 1006 504 915 512 812 c 1
 514 749 515 713 514 702 c 2
 514 664 l 1
 530 664 l 1
 553 763 587 863 632 962 c 1
 715 1153 816 1249 933 1249 c 2
 951 1249 l 1
 988 1245 1018 1231 1040 1204 c 128
 1062 1177 1073 1149 1073 1118 c 0
 1073 1105 1072 1095 1069 1087 c 1
 1030 1085 986 1078 936 1063 c 128
 886 1048 840 1026 799 995 c 1
 752 957 715 915 688 869 c 128
 661 823 635 760 608 680 c 1
EndSplineSet
EndChar

StartChar: Z
Encoding: 90 90 59
Width: 1090
VWidth: 1655
GlyphClass: 2
Flags: HMW
LayerCount: 2
Fore
SplineSet
162 1248 m 1
 1085 1248 l 1
 1076 1171 l 1
 230 94 l 1
 440 103 l 1
 591 112 713 123 806 139 c 1
 856 257 890 362 908 453 c 1
 999 440 l 1
 999 428 999 418 1001 409 c 1
 1001 378 l 1
 999 241 990 129 971 42 c 1
 961 0 l 1
 8 0 l 1
 13 103 l 1
 848 1152 l 1
 323 1135 l 1
 248 874 l 1
 146 900 l 1
 162 1248 l 1
EndSplineSet
EndChar

StartChar: bracketleft
Encoding: 91 91 60
Width: 572
VWidth: 1655
GlyphClass: 2
Flags: HMW
LayerCount: 2
Fore
SplineSet
369 -378 m 1
 8 -380 l 1
 211 1266 l 1
 566 1266 l 1
 566 1175 l 1
 349 1154 l 1
 174 -263 l 1
 392 -282 l 1
 369 -378 l 1
EndSplineSet
EndChar

StartChar: backslash
Encoding: 92 92 61
Width: 408
VWidth: 1655
GlyphClass: 2
Flags: HMW
LayerCount: 2
Fore
SplineSet
141 1275 m 1
 404 -380 l 1
 275 -372 l 1
 8 1283 l 1
 141 1275 l 1
EndSplineSet
EndChar

StartChar: bracketright
Encoding: 93 93 62
Width: 573
VWidth: 1655
GlyphClass: 2
Flags: HMW
LayerCount: 2
Fore
SplineSet
8 -378 m 1
 10 -282 l 1
 230 -263 l 1
 404 1154 l 1
 191 1175 l 1
 214 1266 l 1
 569 1266 l 1
 369 -380 l 1
 8 -378 l 1
EndSplineSet
EndChar

StartChar: asciicircum
Encoding: 94 94 63
Width: 733
VWidth: 1655
GlyphClass: 2
Flags: HMW
LayerCount: 2
Fore
SplineSet
567 1224 m 1
 809 808 l 1
 747 771 l 1
 514 1052 l 1
 505 1052 l 1
 227 776 l 1
 181 809 l 1
 514 1212 l 1
 567 1224 l 1
EndSplineSet
EndChar

StartChar: underscore
Encoding: 95 95 64
Width: 872
VWidth: 1655
GlyphClass: 2
Flags: HMW
LayerCount: 2
Fore
SplineSet
33 -28 m 1
 867 -28 l 1
 843 -134 l 1
 8 -134 l 1
 33 -28 l 1
EndSplineSet
EndChar

StartChar: grave
Encoding: 96 96 65
Width: 618
VWidth: 1655
GlyphClass: 2
Flags: HMW
LayerCount: 2
Fore
SplineSet
160 1626 m 1
 274 1663 l 1
 402 1336 l 1
 346 1303 l 1
 160 1626 l 1
EndSplineSet
EndChar

StartChar: a
Encoding: 97 97 66
Width: 839
VWidth: 1655
GlyphClass: 2
Flags: HMW
LayerCount: 2
Fore
SplineSet
587 918 m 1
 706 881 l 1
 634 491 l 1
 604 253 l 1
 599 214 597 186 597 168 c 0
 597 133 612 116 641 116 c 0
 659 116 683 133 713 166 c 128
 743 199 771 236 794 275 c 1
 835 240 l 1
 798 147 758 79 714 35 c 128
 670 -9 613 -31 543 -31 c 0
 510 -31 484 -18 466 6 c 128
 448 30 440 66 440 113 c 0
 440 161 452 219 476 287 c 1
 463 287 l 1
 428 203 382 131 325 70 c 128
 268 9 212 -21 157 -21 c 128
 102 -21 63 0 41 41 c 128
 19 82 8 143 8 225 c 128
 8 307 27 401 65 505 c 128
 103 609 154 701 218 779 c 128
 282 857 346 895 409 895 c 128
 472 895 520 870 553 820 c 1
 562 820 l 1
 576 909 l 1
 587 918 l 1
162 288 m 0
 162 229 166 188 175 166 c 128
 184 144 200 132 227 132 c 0
 276 132 331 183 394 285 c 128
 457 387 501 512 527 660 c 1
 517 688 498 713 468 736 c 128
 438 759 408 770 376 770 c 128
 344 770 314 754 284 722 c 128
 254 690 231 648 214 595 c 1
 179 491 162 389 162 288 c 0
EndSplineSet
EndChar

StartChar: b
Encoding: 98 98 67
Width: 733
VWidth: 1655
GlyphClass: 2
Flags: HMW
LayerCount: 2
Fore
SplineSet
437 762 m 0
 392 762 344 714 293 618 c 128
 242 522 209 400 191 249 c 1
 178 153 l 1
 209 108 264 86 341 88 c 0
 399 88 450 120 494 184 c 128
 538 248 560 355 560 505 c 0
 560 581 550 643 529 691 c 128
 508 739 478 762 437 762 c 0
313 1245 m 1
 264 845 l 1
 214 592 l 1
 223 592 l 1
 243 677 279 748 331 806 c 128
 383 864 442 893 506 893 c 128
 570 893 624 859 665 792 c 128
 706 725 727 639 727 535 c 128
 727 431 707 335 667 250 c 128
 627 165 569 99 495 50 c 128
 421 1 336 -24 239 -24 c 128
 142 -24 67 0 12 49 c 1
 144 1142 l 1
 8 1170 l 1
 19 1243 l 1
 298 1266 l 1
 313 1245 l 1
EndSplineSet
EndChar

StartChar: c
Encoding: 99 99 68
Width: 601
VWidth: 1655
GlyphClass: 2
Flags: HMW
LayerCount: 2
Fore
SplineSet
456 592 m 1
 456 602 453 625 446 663 c 0
 433 732 413 774 386 790 c 0
 376 795 366 797 354 796 c 0
 294 796 248 759 216 686 c 128
 184 613 168 514 168 392 c 0
 168 328 173 276 183 237 c 128
 193 198 212 166 240 139 c 128
 268 112 306 98 353 98 c 2
 355 98 l 2
 387 98 418 110 450 133 c 128
 482 156 509 188 530 227 c 1
 566 195 l 1
 553 136 517 84 456 38 c 128
 395 -8 332 -31 265 -31 c 0
 181 -31 117 2 73 68 c 128
 29 134 8 222 8 332 c 0
 8 405 20 478 44 548 c 128
 68 618 100 677 138 727 c 128
 176 777 220 817 269 847 c 128
 318 877 370 893 422 893 c 128
 474 893 516 878 548 847 c 128
 580 816 595 778 595 732 c 128
 595 686 584 653 562 632 c 128
 540 611 505 598 456 592 c 1
EndSplineSet
EndChar

StartChar: d
Encoding: 100 100 69
Width: 835
VWidth: 1655
GlyphClass: 2
Flags: HMW
LayerCount: 2
Fore
SplineSet
168 287 m 2
 168 224 171 179 178 151 c 128
 185 123 200 109 223 109 c 0
 264 109 304 136 346 188 c 128
 388 240 424 310 455 398 c 128
 486 486 507 579 517 678 c 1
 486 743 442 776 385 775 c 0
 344 775 306 752 271 705 c 128
 236 658 210 600 193 529 c 128
 176 458 168 384 168 305 c 2
 168 287 l 2
608 284 m 1
 601 242 597 209 598 185 c 128
 599 161 602 145 609 136 c 128
 616 127 627 123 643 123 c 128
 659 123 682 139 713 170 c 0
 745 201 770 234 790 270 c 1
 830 242 l 1
 778 64 680 -25 534 -24 c 0
 478 -24 450 17 450 98 c 0
 450 146 458 200 476 259 c 1
 463 263 l 1
 430 172 388 102 338 51 c 128
 288 0 234 -26 176 -26 c 128
 118 -26 75 -3 48 41 c 128
 21 85 8 146 8 225 c 128
 8 304 26 394 63 494 c 128
 100 594 151 684 217 763 c 128
 283 842 356 882 434 882 c 0
 486 882 517 872 527 851 c 1
 541 855 l 1
 561 1142 l 1
 427 1170 l 1
 437 1243 l 1
 712 1269 l 1
 731 1245 l 1
 608 284 l 1
EndSplineSet
EndChar

StartChar: e
Encoding: 101 101 70
Width: 598
VWidth: 1655
GlyphClass: 2
Flags: HMW
LayerCount: 2
Fore
SplineSet
548 849 m 128
 578 817 592 777 592 726 c 0
 592 630 543 547 444 477 c 0
 363 419 271 374 168 341 c 1
 172 182 225 103 330 103 c 0
 407 103 476 151 536 246 c 1
 573 214 l 1
 550 147 508 89 450 41 c 128
 392 -7 325 -31 249 -31 c 128
 173 -31 115 -2 72 56 c 128
 29 114 8 193 8 293 c 128
 8 393 27 488 66 580 c 128
 105 672 157 749 222 808 c 128
 287 867 354 897 425 897 c 0
 477 897 518 881 548 849 c 128
440 698 m 0
 440 760 413 791 360 790 c 0
 248 790 184 664 168 414 c 1
 349 481 440 576 440 698 c 0
EndSplineSet
EndChar

StartChar: f
Encoding: 102 102 71
Width: 514
VWidth: 1655
GlyphClass: 2
Flags: HMW
LayerCount: 2
Fore
SplineSet
-168 -132 m 5
 -102 -196 -35 -228 33 -228 c 4
 55 -228 70 -225 81 -218 c 5
 103 -208 117 -186 125 -150 c 5
 141 -55 150 28 155 102 c 132
 160 176 162 229 164 260 c 132
 166 291 166 309 167 313 c 6
 199 775 l 5
 91 766 l 5
 103 871 l 5
 211 855 l 5
 218 896 221 919 221 925 c 4
 237 1000 266 1068 308 1130 c 5
 355 1193 412 1238 479 1266 c 5
 515 1280 548 1287 579 1287 c 6
 587 1287 l 5
 626 1285 657 1273 680 1252 c 4
 714 1221 731 1185 731 1143 c 4
 731 1126 729 1114 724 1104 c 5
 712 1069 690 1040 657 1019 c 5
 600 1085 561 1123 539 1135 c 132
 517 1147 495 1152 475 1152 c 132
 455 1152 439 1145 424 1131 c 132
 409 1117 401 1105 397 1094 c 132
 393 1083 391 1068 386 1047 c 132
 381 1026 377 992 372 947 c 132
 367 902 365 870 365 850 c 5
 595 871 l 5
 576 760 l 5
 359 771 l 5
 317 178 l 5
 308 69 295 -18 277 -83 c 132
 259 -148 236 -198 208 -233 c 4
 154 -301 92 -345 23 -365 c 4
 -11 -376 -43 -381 -72 -381 c 6
 -83 -381 l 5
 -154 -375 -198 -347 -218 -296 c 5
 -224 -280 -226 -266 -227 -253 c 6
 -227 -242 l 5
 -225 -226 -220 -208 -209 -187 c 132
 -198 -166 -185 -148 -168 -132 c 5
EndSplineSet
EndChar

StartChar: g
Encoding: 103 103 72
Width: 769
VWidth: 1655
GlyphClass: 2
Flags: HMW
LayerCount: 2
Fore
SplineSet
248 23 m 1
 185 0 142 -28 119 -60 c 128
 96 -92 84 -124 84 -158 c 0
 84 -172 88 -187 96 -205 c 0
 112 -239 135 -263 167 -279 c 1
 219 -305 281 -318 353 -317 c 2
 381 -317 l 2
 428 -317 467 -305 499 -280 c 1
 530 -254 545 -220 544 -177 c 128
 543 -134 521 -100 476 -73 c 1
 443 -54 412 -40 381 -29 c 128
 350 -18 331 -11 323 -8 c 128
 315 -5 304 0 288 7 c 2
 248 23 l 1
235 205 m 0
 235 197 241 192 253 188 c 2
 300 170 l 2
 428 121 496 95 505 91 c 0
 596 51 657 2 688 -56 c 1
 702 -79 709 -106 709 -137 c 0
 709 -139 708 -150 706 -170 c 1
 694 -231 652 -282 578 -322 c 128
 504 -362 422 -384 332 -388 c 1
 308 -388 l 2
 251 -388 198 -382 148 -369 c 128
 98 -356 60 -345 34 -331 c 128
 8 -317 -17 -298 -40 -272 c 128
 -63 -246 -75 -212 -75 -173 c 128
 -75 -134 -63 -100 -39 -72 c 128
 -15 -44 25 -18 81 8 c 0
 91 14 123 27 179 49 c 1
 140 67 116 82 106 95 c 128
 96 108 92 120 92 131 c 128
 92 142 92 151 94 158 c 128
 96 165 103 177 116 196 c 128
 129 215 147 235 170 255 c 128
 193 275 211 290 225 300 c 1
 210 308 195 320 178 336 c 1
 133 384 110 444 106 515 c 1
 106 525 l 2
 106 572 116 621 137 670 c 128
 158 719 185 763 220 802 c 1
 279 864 340 895 404 895 c 128
 468 895 519 871 557 824 c 1
 617 872 669 896 712 895 c 1
 731 893 l 1
 751 889 766 880 779 865 c 128
 792 850 797 835 797 817 c 2
 797 812 l 1
 795 810 795 808 796 806 c 0
 789 765 763 730 718 702 c 1
 681 734 655 755 639 766 c 128
 623 777 606 781 585 781 c 1
 608 736 619 683 620 623 c 0
 620 531 590 452 530 385 c 0
 507 360 479 338 446 318 c 0
 398 290 353 276 310 277 c 0
 296 277 288 277 286 279 c 1
 262 259 246 237 237 214 c 1
 237 211 l 1
 235 209 235 207 235 205 c 0
282 754 m 1
 259 704 248 650 247 593 c 128
 246 536 247 495 251 471 c 128
 255 447 262 424 275 401 c 1
 297 366 320 349 343 349 c 128
 366 349 389 356 411 372 c 1
 462 416 488 487 488 585 c 0
 488 623 483 661 471 699 c 0
 448 779 412 819 362 818 c 0
 342 818 327 812 313 800 c 128
 299 788 290 773 282 754 c 1
EndSplineSet
EndChar

StartChar: h
Encoding: 104 104 73
Width: 882
VWidth: 1655
GlyphClass: 2
Flags: HMW
LayerCount: 2
Fore
SplineSet
178 1142 m 1
 42 1170 l 1
 52 1243 l 1
 339 1266 l 1
 355 1245 l 1
 293 825 l 1
 230 564 l 1
 242 561 l 1
 273 653 317 731 375 795 c 128
 433 859 489 890 542 890 c 128
 595 890 634 876 661 849 c 128
 688 822 701 785 701 741 c 128
 701 697 699 653 693 608 c 2
 648 256 l 2
 644 227 643 203 643 183 c 0
 643 143 654 123 677 123 c 128
 700 123 726 134 758 157 c 128
 790 180 816 209 836 246 c 1
 877 217 l 1
 846 137 807 77 759 37 c 128
 711 -3 651 -23 576 -23 c 0
 511 -23 478 19 479 103 c 0
 479 138 485 203 499 298 c 1
 520 481 l 2
 530 557 534 610 535 638 c 128
 536 666 532 686 524 698 c 128
 516 710 503 716 483 716 c 0
 431 716 384 688 343 631 c 128
 302 574 267 480 237 346 c 1
 233 210 219 115 192 60 c 128
 165 5 123 -23 67 -23 c 0
 65 -23 51 -22 23 -19 c 1
 8 8 l 1
 88 434 l 1
 178 1142 l 1
EndSplineSet
EndChar

StartChar: i
Encoding: 105 105 74
Width: 584
VWidth: 1655
GlyphClass: 2
Flags: HMW
LayerCount: 2
Fore
SplineSet
412 1278 m 132
 429 1258 437 1233 437 1203 c 132
 437 1173 426 1144 404 1119 c 132
 382 1094 356 1081 328 1081 c 132
 300 1081 279 1089 262 1108 c 132
 245 1127 237 1151 237 1180 c 132
 237 1209 248 1238 271 1266 c 132
 294 1294 318 1308 345 1308 c 132
 372 1308 395 1298 412 1278 c 132
348 254 m 5
 344 225 343 201 343 181 c 4
 343 142 354 123 377 123 c 132
 400 123 427 134 459 157 c 132
 491 180 517 209 537 246 c 5
 579 217 l 5
 519 57 423 -23 291 -23 c 4
 250 -23 220 -10 203 15 c 132
 186 40 178 71 178 108 c 132
 178 145 182 208 191 296 c 5
 227 611 l 6
 229 634 230 656 230 676 c 4
 230 728 218 754 194 754 c 132
 170 754 125 702 56 599 c 5
 8 631 l 5
 37 707 80 772 136 826 c 132
 192 880 247 906 302 906 c 4
 364 906 395 859 393 766 c 4
 393 758 388 692 376 569 c 5
 348 254 l 5
EndSplineSet
EndChar

StartChar: j
Encoding: 106 106 75
Width: 590
VWidth: 1655
GlyphClass: 2
Flags: HMW
LayerCount: 2
Fore
SplineSet
-13 -132 m 1
 53 -196 119 -228 186 -228 c 0
 209 -228 225 -225 237 -218 c 1
 262 -207 276 -182 281 -143 c 128
 286 -104 297 21 317 232 c 1
 353 634 l 2
 354 644 354 659 354 681 c 0
 354 728 347 751 332 750 c 1
 330 752 326 752 317 752 c 0
 305 752 290 742 270 722 c 1
 227 667 l 1
 201 629 186 605 181 595 c 1
 130 631 l 1
 140 658 154 687 173 716 c 0
 216 785 268 839 328 877 c 1
 358 895 378 904 388 906 c 128
 398 908 410 909 427 909 c 128
 444 909 459 904 476 893 c 0
 507 873 522 835 520 780 c 2
 520 765 l 2
 520 740 517 692 510 621 c 1
 471 160 l 2
 462 59 450 -22 433 -85 c 128
 416 -148 393 -196 366 -230 c 128
 339 -264 311 -292 282 -313 c 1
 213 -358 147 -381 84 -381 c 2
 73 -381 l 1
 2 -375 -43 -347 -63 -296 c 1
 -69 -280 -71 -266 -72 -253 c 2
 -72 -242 l 1
 -70 -226 -65 -208 -54 -187 c 128
 -43 -166 -30 -148 -13 -132 c 1
539 1291 m 128
 555 1279 566 1266 574 1249 c 128
 582 1232 585 1216 585 1199 c 128
 585 1182 581 1162 570 1141 c 128
 559 1120 545 1104 526 1091 c 128
 507 1078 487 1071 467 1071 c 0
 426 1071 399 1087 385 1120 c 0
 376 1141 372 1159 372 1176 c 128
 372 1193 377 1212 389 1235 c 128
 401 1258 416 1276 437 1289 c 128
 458 1302 474 1308 491 1308 c 128
 508 1308 523 1303 539 1291 c 128
EndSplineSet
EndChar

StartChar: k
Encoding: 107 107 76
Width: 796
VWidth: 1655
GlyphClass: 2
Flags: HMW
LayerCount: 2
Fore
SplineSet
298 411 m 1
 459 438 539 515 538 641 c 0
 538 695 518 722 477 721 c 0
 426 721 381 693 343 636 c 128
 305 579 271 483 240 346 c 1
 236 212 223 117 199 60 c 128
 175 3 137 -26 84 -26 c 0
 66 -26 43 -22 14 -13 c 1
 8 0 l 1
 91 440 l 1
 181 1142 l 1
 46 1170 l 1
 56 1243 l 1
 343 1266 l 1
 359 1245 l 1
 298 832 l 1
 233 571 l 1
 246 566 l 1
 277 659 321 737 379 801 c 128
 437 865 493 897 546 897 c 128
 599 897 639 883 665 855 c 128
 691 827 704 791 704 746 c 128
 704 701 697 659 682 621 c 128
 667 583 648 549 623 520 c 0
 574 462 516 420 450 395 c 1
 493 282 l 2
 534 177 569 124 599 123 c 0
 652 123 701 164 748 246 c 1
 790 216 l 1
 767 147 733 92 688 50 c 128
 643 8 591 -13 532 -13 c 0
 493 -13 460 6 433 43 c 128
 406 80 378 136 351 212 c 2
 287 395 l 1
 298 411 l 1
EndSplineSet
EndChar

StartChar: l
Encoding: 108 108 77
Width: 439
VWidth: 1655
GlyphClass: 2
Flags: HMW
LayerCount: 2
Fore
SplineSet
116 885 m 5
 144 1142 l 5
 8 1170 l 5
 19 1243 l 5
 298 1266 l 5
 313 1245 l 5
 240 623 l 5
 200 253 l 6
 198 230 197 208 197 188 c 4
 197 143 208 121 231 121 c 132
 254 121 281 133 313 156 c 132
 345 179 371 209 392 246 c 5
 434 216 l 5
 374 56 273 -24 129 -24 c 4
 60 -24 26 24 26 120 c 4
 26 158 31 216 42 295 c 5
 116 885 l 5
EndSplineSet
EndChar

StartChar: m
Encoding: 109 109 78
Width: 1406
VWidth: 1655
GlyphClass: 2
Flags: HMW
LayerCount: 2
Fore
SplineSet
786 618 m 1
 796 613 l 1
 869 798 961 890 1071 890 c 0
 1116 890 1153 875 1180 847 c 128
 1207 819 1220 779 1220 726 c 128
 1220 673 1218 633 1213 605 c 1
 1170 253 l 2
 1166 224 1165 199 1164 179 c 0
 1164 139 1176 118 1199 119 c 128
 1222 120 1249 131 1281 154 c 128
 1313 177 1339 206 1359 242 c 1
 1401 214 l 1
 1341 54 1240 -26 1097 -26 c 0
 1032 -26 999 16 999 99 c 0
 999 130 1006 195 1020 293 c 1
 1043 477 l 2
 1053 553 1057 604 1058 631 c 0
 1058 687 1040 715 1003 716 c 0
 952 716 906 687 867 630 c 128
 828 573 794 478 764 343 c 1
 760 206 747 110 722 53 c 128
 697 -4 656 -33 599 -33 c 0
 597 -33 583 -32 557 -30 c 1
 541 -2 l 1
 620 378 l 1
 636 486 644 563 644 609 c 128
 644 655 640 683 630 695 c 128
 620 707 606 712 585 712 c 0
 536 712 493 684 454 628 c 128
 415 572 380 478 349 344 c 1
 345 207 332 112 306 58 c 128
 280 4 238 -23 181 -23 c 0
 179 -23 165 -22 137 -19 c 1
 123 8 l 1
 205 378 l 1
 227 611 l 2
 229 639 230 664 230 686 c 0
 230 736 218 761 193 760 c 0
 180 760 160 743 131 710 c 128
 102 677 77 642 56 605 c 1
 8 641 l 1
 35 714 78 778 134 832 c 128
 190 886 248 913 308 913 c 0
 360 913 386 879 385 811 c 0
 385 780 381 745 372 704 c 0
 362 663 357 634 354 616 c 0
 348 584 345 566 344 562 c 1
 355 560 l 1
 385 651 430 729 489 793 c 128
 548 857 604 888 657 888 c 128
 710 888 747 878 769 858 c 128
 791 838 802 801 802 746 c 128
 802 691 797 649 786 618 c 1
EndSplineSet
EndChar

StartChar: n
Encoding: 110 110 79
Width: 998
VWidth: 1655
GlyphClass: 2
Flags: HMW
LayerCount: 2
Fore
SplineSet
349 344 m 1
 345 207 332 112 306 56 c 128
 280 0 238 -28 179 -28 c 0
 177 -28 163 -27 137 -24 c 1
 123 3 l 1
 205 388 l 1
 227 620 l 2
 229 648 230 673 230 696 c 0
 230 745 218 769 193 768 c 0
 180 768 160 751 131 718 c 128
 102 685 77 650 56 613 c 1
 8 651 l 1
 35 724 78 787 134 841 c 128
 190 895 248 923 308 923 c 0
 360 923 386 888 385 818 c 0
 385 788 381 753 372 713 c 0
 362 672 357 644 354 627 c 0
 346 592 343 574 344 573 c 1
 355 567 l 1
 385 658 430 737 489 801 c 128
 548 865 604 897 657 897 c 128
 710 897 750 883 776 856 c 128
 802 829 815 794 815 750 c 128
 815 706 812 662 806 615 c 1
 762 253 l 2
 758 224 757 200 757 181 c 0
 757 141 768 121 791 121 c 128
 814 121 841 133 873 156 c 128
 905 179 931 209 951 246 c 1
 994 216 l 1
 934 56 833 -24 690 -24 c 0
 625 -24 592 18 592 101 c 0
 592 112 599 177 613 295 c 2
 636 488 l 2
 646 571 650 625 651 649 c 0
 651 698 632 722 595 721 c 0
 490 721 408 595 349 344 c 1
EndSplineSet
EndChar

StartChar: o
Encoding: 111 111 80
Width: 672
VWidth: 1655
GlyphClass: 2
Flags: HMW
LayerCount: 2
Fore
SplineSet
79 79 m 128
 31 149 8 236 8 340 c 128
 8 444 26 537 61 620 c 128
 96 703 143 770 204 820 c 128
 265 870 332 895 405 895 c 128
 478 895 540 861 591 794 c 128
 642 727 667 644 667 546 c 128
 667 448 652 358 621 274 c 128
 590 190 544 119 484 61 c 128
 424 3 354 -26 273 -26 c 128
 192 -26 127 9 79 79 c 128
230 733 m 0
 176 672 149 581 149 460 c 0
 149 325 180 221 241 146 c 0
 271 109 304 89 341 90 c 128
 378 91 411 107 440 139 c 0
 496 204 524 300 524 424 c 0
 524 558 494 659 435 730 c 0
 405 765 371 783 333 784 c 128
 295 785 261 767 230 733 c 0
EndSplineSet
EndChar

StartChar: p
Encoding: 112 112 81
Width: 896
VWidth: 1655
GlyphClass: 2
Flags: HMW
LayerCount: 2
Fore
SplineSet
225 205 m 1
 272 602 l 2
 277 641 279 667 279 681 c 0
 279 730 266 754 240 754 c 0
 228 754 207 737 178 703 c 128
 149 669 124 633 103 595 c 1
 57 632 l 1
 84 708 126 775 181 831 c 128
 236 887 294 915 353 915 c 0
 407 915 434 880 434 809 c 0
 434 778 429 733 416 673 c 128
 403 613 397 579 395 570 c 128
 393 561 392 557 392 555 c 1
 402 553 l 1
 439 647 483 725 534 786 c 128
 585 847 639 877 695 877 c 128
 751 877 797 847 834 785 c 128
 871 723 890 641 890 540 c 128
 890 439 875 350 846 274 c 128
 817 198 776 139 724 99 c 0
 627 23 518 -15 398 -16 c 2
 395 -16 l 1
 388 58 l 1
 429 63 462 68 486 75 c 128
 510 82 539 95 571 115 c 128
 603 135 628 159 648 190 c 0
 693 263 716 374 716 524 c 0
 716 593 710 642 696 673 c 128
 682 704 661 719 631 719 c 0
 579 719 527 670 475 572 c 128
 423 474 387 341 365 174 c 1
 302 -275 l 1
 486 -296 l 1
 468 -367 l 1
 8 -367 l 1
 30 -296 l 1
 158 -256 l 1
 225 205 l 1
EndSplineSet
EndChar

StartChar: q
Encoding: 113 113 82
Width: 707
VWidth: 1655
GlyphClass: 2
Flags: HMW
LayerCount: 2
Fore
SplineSet
408 80 m 1
 386 53 353 29 309 7 c 128
 265 -15 218 -26 170 -26 c 128
 122 -26 83 -2 53 45 c 128
 23 92 8 158 8 243 c 128
 8 328 27 423 64 528 c 128
 101 633 152 720 216 791 c 128
 280 862 349 897 421 897 c 0
 470 897 506 875 530 830 c 1
 540 830 l 1
 550 923 l 1
 576 923 l 1
 690 890 l 1
 546 -275 l 1
 702 -290 l 1
 686 -360 l 1
 197 -360 l 1
 216 -287 l 1
 395 -246 l 1
 477 317 l 1
 514 675 l 1
 500 698 480 721 451 743 c 128
 422 765 393 776 362 776 c 128
 331 776 303 761 275 732 c 128
 247 703 226 664 211 613 c 0
 183 518 169 415 168 305 c 0
 168 248 176 199 193 159 c 128
 210 119 236 99 272 99 c 128
 308 99 348 107 393 125 c 1
 408 80 l 1
EndSplineSet
EndChar

StartChar: r
Encoding: 114 114 83
Width: 740
VWidth: 1655
GlyphClass: 2
Flags: HMW
LayerCount: 2
Fore
SplineSet
352 360 m 128
 345 325 341 281 337 229 c 128
 333 177 330 136 325 106 c 1
 310 48 290 11 263 -7 c 1
 243 -21 228 -29 215 -31 c 128
 202 -33 191 -34 178 -34 c 128
 165 -34 152 -31 137 -24 c 1
 123 3 l 1
 205 388 l 1
 227 595 l 1
 229 623 230 649 230 673 c 128
 230 697 229 711 227 717 c 128
 225 723 223 728 217 734 c 128
 211 740 206 743 199 744 c 0
 190 746 180 743 167 734 c 128
 154 725 132 701 101 660 c 1
 75 622 60 599 56 589 c 1
 8 625 l 1
 41 715 97 792 178 855 c 1
 204 873 224 884 240 890 c 1
 287 899 l 1
 335 899 366 877 381 834 c 0
 386 821 388 805 388 785 c 2
 388 768 l 1
 386 743 383 718 378 693 c 2
 348 546 l 1
 360 543 l 1
 376 598 400 653 431 708 c 128
 462 763 493 803 524 829 c 1
 558 854 589 866 616 866 c 2
 627 866 l 1
 658 864 682 852 702 829 c 0
 722 807 732 779 734 744 c 1
 734 733 l 2
 734 686 719 646 688 611 c 0
 673 594 653 581 628 571 c 1
 608 607 l 1
 596 632 584 650 569 662 c 128
 554 674 542 679 531 679 c 128
 520 679 510 676 499 669 c 0
 479 655 461 633 445 601 c 128
 429 569 412 530 392 483 c 128
 372 436 359 395 352 360 c 128
EndSplineSet
EndChar

StartChar: s
Encoding: 115 115 84
Width: 592
VWidth: 1655
GlyphClass: 2
Flags: HMW
LayerCount: 2
Fore
SplineSet
308 339 m 1
 221 410 166 465 141 506 c 128
 116 547 103 585 103 620 c 0
 103 697 133 762 192 816 c 128
 251 870 320 897 398 897 c 0
 453 897 498 886 533 863 c 128
 568 840 585 811 585 775 c 0
 585 717 553 675 489 648 c 1
 463 700 436 739 406 766 c 128
 376 793 349 806 326 806 c 128
 303 806 282 797 261 777 c 128
 240 757 230 734 230 706 c 0
 230 661 270 605 349 537 c 0
 356 531 356 531 377 513 c 128
 391 501 401 493 407 487 c 128
 413 481 422 473 434 462 c 128
 446 451 455 443 462 435 c 128
 469 427 478 419 488 408 c 0
 542 349 569 292 568 239 c 128
 567 186 551 139 519 98 c 128
 487 57 445 25 391 1 c 128
 337 -23 280 -35 220 -35 c 128
 160 -35 110 -21 69 6 c 128
 28 33 8 64 8 99 c 128
 8 134 19 164 41 189 c 128
 63 214 90 229 123 233 c 1
 137 188 160 147 191 111 c 128
 222 75 256 57 293 57 c 128
 330 57 361 67 385 87 c 128
 409 107 421 135 421 171 c 0
 419 220 382 276 308 339 c 1
EndSplineSet
EndChar

StartChar: t
Encoding: 116 116 85
Width: 515
VWidth: 1655
GlyphClass: 2
Flags: HMW
LayerCount: 2
Fore
SplineSet
233 151 m 0
 264 151 292 166 317 196 c 128
 342 226 383 292 440 393 c 1
 489 355 l 1
 458 238 414 145 355 78 c 128
 296 11 230 -23 155 -23 c 0
 112 -23 83 -13 65 8 c 128
 47 29 39 60 39 103 c 0
 39 145 46 229 61 354 c 1
 120 766 l 1
 8 759 l 1
 33 864 l 1
 130 855 l 1
 150 1062 l 1
 302 1081 l 1
 313 1068 l 1
 280 855 l 1
 512 871 l 1
 486 754 l 1
 269 766 l 1
 225 392 l 1
 213 280 207 215 207 197 c 128
 207 179 209 168 213 161 c 128
 217 154 223 151 233 151 c 0
EndSplineSet
EndChar

StartChar: u
Encoding: 117 117 86
Width: 975
VWidth: 1655
GlyphClass: 2
Flags: HMW
LayerCount: 2
Fore
SplineSet
620 527 m 1
 622 668 634 765 657 819 c 128
 680 873 719 899 776 899 c 0
 792 899 805 898 818 895 c 1
 834 867 l 1
 764 484 l 1
 747 284 l 2
 742 233 739 199 740 178 c 128
 741 157 743 143 749 135 c 128
 755 127 766 123 782 123 c 128
 798 123 821 139 852 170 c 128
 883 201 908 234 928 270 c 1
 969 242 l 1
 917 64 819 -25 674 -24 c 0
 615 -24 586 17 585 98 c 0
 585 139 594 194 613 263 c 1
 602 265 l 1
 569 174 527 102 478 51 c 128
 429 0 377 -26 324 -26 c 128
 271 -26 230 -12 204 16 c 128
 178 44 165 82 165 130 c 128
 165 178 168 220 174 256 c 1
 227 602 l 1
 232 637 234 661 233 676 c 0
 233 717 222 737 199 738 c 0
 168 738 120 689 56 592 c 1
 8 623 l 1
 37 699 80 764 136 818 c 128
 192 872 247 899 302 899 c 0
 366 899 398 856 397 770 c 0
 397 739 389 669 372 561 c 1
 344 385 l 2
 335 332 330 284 331 244 c 128
 332 204 335 179 343 167 c 128
 351 155 365 150 385 150 c 0
 433 150 476 179 515 237 c 1
 554 296 589 392 620 527 c 1
EndSplineSet
EndChar

StartChar: v
Encoding: 118 118 87
Width: 800
VWidth: 1655
GlyphClass: 2
Flags: HMW
LayerCount: 2
Fore
SplineSet
354 400 m 1
 350 367 349 327 349 279 c 128
 349 231 358 187 378 149 c 128
 398 111 427 91 465 91 c 128
 503 91 540 115 574 162 c 128
 608 209 633 267 650 338 c 128
 667 409 674 478 674 545 c 0
 674 667 632 768 548 845 c 1
 579 879 616 897 659 896 c 128
 702 895 736 875 760 835 c 128
 784 795 796 747 796 688 c 0
 796 576 779 466 746 360 c 128
 713 254 664 164 599 90 c 128
 534 16 461 -21 378 -21 c 0
 252 -21 189 70 189 253 c 0
 189 277 191 309 195 349 c 1
 227 592 l 1
 231 623 232 648 232 669 c 0
 232 714 221 736 200 735 c 128
 179 734 136 689 70 599 c 0
 63 591 59 585 56 579 c 1
 8 611 l 1
 39 686 83 752 141 806 c 128
 199 860 255 887 310 887 c 0
 365 888 392 840 392 744 c 0
 392 719 383 631 365 481 c 1
 354 400 l 1
EndSplineSet
EndChar

StartChar: w
Encoding: 119 119 88
Width: 1149
VWidth: 1655
GlyphClass: 2
Flags: HMW
LayerCount: 2
Fore
SplineSet
221 618 m 1
 233 673 238 710 239 730 c 128
 240 750 233 760 217 760 c 0
 194 760 138 709 49 607 c 1
 8 637 l 1
 50 713 104 778 169 832 c 128
 234 886 294 913 349 913 c 0
 399 913 424 886 424 832 c 0
 424 794 415 743 396 679 c 128
 377 615 367 581 365 576 c 2
 317 385 l 2
 305 339 299 294 300 249 c 0
 300 161 334 117 401 116 c 0
 451 116 493 142 527 195 c 128
 561 248 584 344 599 484 c 1
 597 525 596 576 595 639 c 0
 595 772 639 838 727 838 c 0
 743 838 759 837 775 835 c 1
 786 817 l 1
 727 456 l 1
 731 284 l 2
 733 229 743 186 763 154 c 128
 783 122 806 106 832 106 c 0
 869 106 902 128 931 173 c 0
 990 260 1020 381 1020 534 c 0
 1020 591 1010 648 990 706 c 128
 970 764 947 815 920 858 c 1
 957 886 992 900 1027 900 c 128
 1062 900 1089 879 1110 837 c 128
 1131 795 1142 742 1142 676 c 128
 1142 610 1133 535 1114 451 c 128
 1095 367 1071 289 1037 216 c 128
 1003 143 960 86 906 42 c 128
 852 -2 794 -24 731 -24 c 0
 637 -24 590 40 590 168 c 0
 590 174 590 177 592 181 c 1
 592 193 l 1
 579 195 l 1
 556 126 520 72 470 33 c 128
 420 -6 363 -26 298 -26 c 0
 190 -26 136 42 136 178 c 0
 136 225 143 282 158 351 c 1
 221 618 l 1
EndSplineSet
EndChar

StartChar: x
Encoding: 120 120 89
Width: 868
VWidth: 1655
GlyphClass: 2
Flags: HMW
LayerCount: 2
Fore
SplineSet
444 130 m 1
 400 302 l 1
 299 80 202 -32 109 -34 c 0
 76 -34 51 -24 34 -4 c 128
 17 16 8 41 8 70 c 0
 8 127 24 170 56 197 c 1
 85 171 119 158 158 158 c 0
 231 158 300 239 365 401 c 1
 353 439 340 484 326 537 c 0
 299 634 281 690 269 707 c 128
 257 724 245 731 232 731 c 0
 210 731 174 685 125 592 c 1
 78 629 l 1
 140 798 223 882 328 882 c 0
 363 882 391 861 413 818 c 0
 429 787 445 740 463 675 c 0
 480 610 489 572 492 562 c 1
 536 653 582 727 631 785 c 128
 680 843 721 871 756 871 c 128
 791 871 817 863 836 846 c 128
 855 829 864 810 864 786 c 0
 864 733 849 690 818 657 c 1
 798 675 766 683 719 683 c 0
 648 683 581 614 520 474 c 1
 610 188 l 1
 626 138 643 113 661 113 c 128
 679 113 699 124 723 146 c 128
 747 168 770 198 792 237 c 1
 835 207 l 1
 778 54 691 -23 574 -23 c 0
 518 -23 475 28 444 130 c 1
EndSplineSet
EndChar

StartChar: y
Encoding: 121 121 90
Width: 835
VWidth: 1655
GlyphClass: 2
Flags: HMW
LayerCount: 2
Fore
SplineSet
57 592 m 1
 8 629 l 1
 33 700 70 764 122 819 c 128
 174 874 225 902 273 902 c 128
 321 902 357 885 382 852 c 128
 407 819 424 766 434 693 c 2
 495 205 l 1
 500 162 l 1
 509 162 l 1
 585 276 631 354 646 395 c 128
 661 436 669 467 672 490 c 128
 675 513 676 545 676 585 c 128
 676 625 662 671 635 723 c 128
 608 775 576 817 541 848 c 1
 554 864 572 877 596 889 c 128
 620 901 644 906 667 906 c 0
 712 906 750 886 783 846 c 128
 816 806 832 760 832 707 c 0
 832 616 807 524 758 429 c 128
 709 334 623 206 499 46 c 1
 490 -33 470 -105 437 -170 c 128
 404 -235 362 -286 312 -324 c 128
 262 -362 214 -381 166 -381 c 128
 118 -381 80 -370 52 -349 c 128
 24 -328 10 -302 10 -270 c 2
 10 -265 l 1
 13 -236 18 -213 27 -195 c 128
 36 -177 52 -160 75 -141 c 1
 126 -189 177 -213 226 -212 c 128
 275 -211 311 -198 334 -170 c 128
 357 -142 369 -93 369 -24 c 0
 369 13 366 57 359 109 c 2
 295 610 l 2
 289 652 279 685 261 710 c 128
 243 735 224 748 203 748 c 128
 182 748 160 733 133 703 c 128
 106 673 80 635 57 592 c 1
EndSplineSet
EndChar

StartChar: z
Encoding: 122 122 91
Width: 721
VWidth: 1655
GlyphClass: 2
Flags: HMW
LayerCount: 2
Fore
SplineSet
545 858 m 1
 614 858 672 866 721 883 c 1
 739 855 l 1
 421 414 l 1
 221 113 l 1
 227 115 242 114 267 113 c 128
 292 112 317 107 342 97 c 128
 367 87 391 79 414 69 c 0
 437 60 456 56 470 56 c 2
 477 56 l 2
 485 56 493 58 503 63 c 128
 513 68 520 73 525 81 c 1
 535 94 539 110 540 129 c 128
 541 148 537 175 530 212 c 128
 523 249 515 280 507 303 c 1
 539 319 568 327 594 327 c 0
 596 327 604 325 622 322 c 128
 640 319 654 313 666 302 c 128
 678 291 685 281 689 269 c 128
 693 257 695 244 695 227 c 0
 695 155 665 93 604 42 c 0
 564 8 514 -10 455 -13 c 1
 444 -13 l 1
 440 -15 433 -16 420 -15 c 128
 407 -14 372 -10 313 -2 c 0
 237 10 177 16 134 16 c 128
 91 16 46 10 0 -2 c 1
 -19 26 l 1
 251 395 l 1
 509 765 l 1
 498 763 485 762 470 762 c 128
 455 762 437 766 414 774 c 128
 391 782 367 790 343 800 c 128
 319 810 299 815 282 815 c 0
 239 815 216 776 212 699 c 1
 212 680 l 2
 212 647 215 615 221 583 c 1
 205 577 187 575 167 574 c 0
 112 574 74 596 54 641 c 0
 47 656 44 669 44 681 c 128
 44 693 44 700 46 702 c 1
 54 745 84 783 137 818 c 128
 190 853 246 872 305 877 c 1
 320 877 l 2
 369 877 423 871 483 859 c 1
 545 858 l 1
EndSplineSet
EndChar

StartChar: braceleft
Encoding: 123 123 92
Width: 646
VWidth: 1655
GlyphClass: 2
Flags: HMW
LayerCount: 2
Fore
SplineSet
448 -280 m 1
 444 -381 l 1
 339 -381 l 2
 268 -381 217 -361 187 -321 c 128
 157 -281 142 -220 142 -139 c 0
 142 -108 146 -53 155 25 c 128
 164 103 167 160 167 199 c 0
 167 311 131 373 60 385 c 2
 8 393 l 1
 21 492 l 1
 72 500 l 2
 117 508 153 531 181 572 c 128
 209 613 227 662 237 721 c 0
 260 874 282 993 303 1080 c 0
 318 1136 346 1181 386 1215 c 128
 426 1249 477 1266 540 1266 c 2
 641 1266 l 1
 620 1164 l 1
 538 1158 l 2
 485 1153 451 1076 437 925 c 0
 432 880 430 853 428 843 c 128
 426 833 425 818 422 797 c 128
 419 776 417 762 415 752 c 128
 413 742 411 729 407 711 c 128
 403 693 400 680 396 669 c 128
 392 658 387 646 381 630 c 0
 346 532 288 471 207 448 c 1
 205 442 l 1
 293 415 337 331 338 191 c 0
 338 155 334 95 324 11 c 128
 314 -73 310 -129 310 -158 c 0
 310 -232 331 -271 374 -275 c 2
 448 -280 l 1
EndSplineSet
EndChar

StartChar: bar
Encoding: 124 124 93
Width: 556
VWidth: 1655
GlyphClass: 2
Flags: HMW
LayerCount: 2
Fore
SplineSet
286 -355 m 1
 173 -343 l 1
 365 1229 l 1
 477 1218 l 1
 286 -355 l 1
EndSplineSet
EndChar

StartChar: braceright
Encoding: 125 125 94
Width: 651
VWidth: 1655
GlyphClass: 2
Flags: HMW
LayerCount: 2
Fore
SplineSet
317 686 m 2
 317 706 l 2
 317 753 321 816 332 894 c 128
 343 972 348 1024 348 1053 c 0
 348 1120 330 1155 293 1158 c 2
 211 1164 l 1
 216 1266 l 1
 317 1266 l 2
 387 1266 437 1246 468 1205 c 128
 499 1164 514 1104 514 1026 c 0
 514 985 510 926 501 850 c 128
 492 774 489 722 489 693 c 0
 489 578 526 514 599 500 c 2
 646 492 l 1
 634 393 l 1
 581 385 l 2
 538 377 502 354 475 314 c 128
 448 274 431 224 423 165 c 0
 400 11 377 -109 354 -195 c 0
 338 -252 311 -296 269 -330 c 128
 227 -364 174 -381 111 -381 c 2
 8 -381 l 1
 30 -280 l 1
 104 -275 l 1
 163 -270 200 -192 218 -40 c 1
 236 107 251 200 267 239 c 128
 283 278 297 311 313 336 c 0
 348 390 393 425 450 442 c 1
 450 448 l 1
 361 473 317 552 317 686 c 2
EndSplineSet
EndChar

StartChar: asciitilde
Encoding: 126 126 95
Width: 830
VWidth: 1655
GlyphClass: 2
Flags: HMW
LayerCount: 2
Fore
SplineSet
8 416 m 1
 10 423 13 430 18 440 c 0
 50 514 91 566 141 595 c 0
 164 609 187 616 211 616 c 2
 217 616 l 1
 219 614 221 614 225 615 c 2
 667 571 l 1
 672 571 l 2
 693 571 718 586 747 616 c 2
 762 631 l 1
 827 631 l 1
 820 611 809 589 793 562 c 128
 777 535 761 513 745 495 c 128
 729 477 711 462 688 448 c 128
 665 434 641 427 618 427 c 2
 602 427 l 1
 158 472 l 1
 153 472 l 2
 129 472 103 455 75 421 c 1
 61 402 l 1
 8 416 l 1
EndSplineSet
EndChar

StartChar: exclamdown
Encoding: 161 161 97
Width: 494
VWidth: 1655
GlyphClass: 2
Flags: HMW
LayerCount: 2
Fore
SplineSet
362 -296 m 1
 331 -318 295 -329 254 -328 c 128
 213 -327 180 -316 154 -293 c 128
 128 -270 111 -236 103 -191 c 1
 98 -171 96 -149 98 -123 c 0
 98 -48 116 81 151 263 c 1
 227 623 l 1
 298 636 l 1
 287 467 l 2
 281 381 279 275 279 150 c 2
 279 88 l 1
 284 -61 311 -189 362 -296 c 1
233 755 m 128
 222 761 212 770 201 783 c 128
 190 796 186 807 183 818 c 128
 180 829 179 836 179 841 c 128
 179 846 181 861 187 888 c 128
 193 915 207 939 230 962 c 128
 253 985 280 996 310 996 c 1
 337 994 357 985 373 969 c 128
 389 953 397 937 400 919 c 128
 403 901 404 892 404 890 c 128
 404 888 403 876 398 853 c 128
 393 830 380 808 357 785 c 128
 334 762 311 749 287 748 c 128
 263 747 244 749 233 755 c 128
EndSplineSet
EndChar

StartChar: cent
Encoding: 162 162 98
Width: 808
VWidth: 0
GlyphClass: 2
Flags: HMW
LayerCount: 2
Fore
SplineSet
476 92 m 3
 559 92 609 122 659 157 c 1
 683 106 l 1
 622 30 512 -30 415 -30 c 3
 253 -30 152 92 152 307 c 0
 152 674 430 900 602 900 c 3
 709 900 770 842 770 756 c 27
 770 687 705 649 631 642 c 1
 626 710 608 806 552 806 c 3
 455 806 324 621 324 330 c 0
 324 191 369 92 476 92 c 3
557.595 1114 m 1
 706.275 1131 l 1
 640.011 863 l 1
 549.011 863 l 1
 557.595 1114 l 1
285.05 -266 m 1
 353 0 l 1
 442 0 l 1
 435.573 -250 l 1
 285.05 -266 l 1
EndSplineSet
EndChar

StartChar: sterling
Encoding: 163 163 99
Width: 1041
VWidth: 1655
GlyphClass: 2
Flags: HMW
LayerCount: 2
Fore
SplineSet
959 877 m 1
 879 890 l 1
 861 1099 l 1
 834 1115 808 1122 781 1122 c 0
 702 1122 646 1092 615 1032 c 1
 581 971 552 857 527 690 c 1
 520 643 l 1
 739 655 l 1
 716 557 l 1
 509 543 l 1
 502 505 l 1
 475 309 437 173 390 98 c 1
 843 94 l 1
 1001 341 l 1
 1083 323 l 1
 1006 0 l 1
 37 0 l 1
 56 73 l 1
 221 118 l 1
 250 183 278 294 303 451 c 1
 313 537 l 1
 137 527 l 1
 163 627 l 1
 330 636 l 1
 349 770 l 1
 372 918 423 1031 504 1108 c 128
 585 1185 686 1224 804 1224 c 0
 894 1224 969 1211 1029 1186 c 1
 959 877 l 1
EndSplineSet
EndChar

StartChar: currency
Encoding: 164 164 100
Width: 760
VWidth: 1655
GlyphClass: 2
Flags: HMW
LayerCount: 2
Fore
SplineSet
604 512 m 0
 604 557 592 592 567 618 c 128
 542 644 508 657 464 657 c 128
 420 657 382 641 351 609 c 0
 312 570 293 523 293 468 c 128
 293 413 304 373 328 347 c 128
 352 321 386 308 429 308 c 0
 472 307 510 323 543 354 c 0
 584 393 604 445 604 512 c 0
709 514 m 0
 709 442 688 382 646 334 c 1
 729 251 l 1
 632 170 l 1
 566 259 l 1
 510 228 460 212 414 212 c 128
 368 212 324 226 282 253 c 1
 195 165 l 1
 123 249 l 1
 214 325 l 1
 196 358 188 403 188 460 c 128
 188 517 207 568 244 615 c 1
 168 699 l 1
 261 780 l 1
 323 695 l 1
 376 734 431 753 486 752 c 0
 541 752 588 736 629 704 c 1
 718 781 l 1
 780 696 l 1
 688 623 l 1
 702 593 709 557 709 514 c 0
EndSplineSet
EndChar

StartChar: yen
Encoding: 165 165 101
Width: 1055
VWidth: 1655
GlyphClass: 2
Flags: HMW
LayerCount: 2
Fore
SplineSet
349 484 m 1
 42 484 l 1
 65 583 l 1
 332 583 l 1
 151 1133 l 1
 23 1176 l 1
 44 1252 l 1
 509 1252 l 1
 486 1176 l 1
 348 1137 l 1
 505 641 l 1
 786 1133 l 1
 632 1176 l 1
 653 1252 l 1
 1052 1252 l 1
 1032 1176 l 1
 904 1137 l 1
 579 583 l 1
 881 583 l 1
 858 484 l 1
 540 484 l 1
 520 339 l 1
 848 339 l 1
 825 242 l 1
 510 242 l 1
 493 113 l 1
 653 78 l 1
 634 0 l 1
 129 0 l 1
 149 72 l 1
 307 120 l 1
 320 242 l 1
 8 242 l 1
 33 339 l 1
 332 339 l 1
 349 484 l 1
EndSplineSet
EndChar

StartChar: brokenbar
Encoding: 166 166 102
Width: 556
VWidth: 1655
GlyphClass: 2
Flags: HMW
LayerCount: 2
Fore
SplineSet
173 -343 m 1
 267 423 l 1
 374 411 l 1
 280 -355 l 1
 173 -343 l 1
279 529 m 1
 365 1229 l 1
 472 1218 l 1
 380 517 l 1
 279 529 l 1
EndSplineSet
EndChar

StartChar: section
Encoding: 167 167 103
Width: 876
VWidth: 1655
GlyphClass: 2
Flags: HMW
LayerCount: 2
Fore
SplineSet
790 832 m 1
 702 851 l 1
 695 1101 l 1
 663 1144 623 1170 576 1179 c 1
 563 1183 550 1184 536 1184 c 0
 490 1184 449 1169 411 1139 c 128
 373 1109 353 1068 349 1016 c 1
 349 1005 l 2
 349 956 362 914 387 878 c 128
 412 842 456 799 518 749 c 128
 580 699 629 658 666 623 c 128
 703 588 734 552 761 513 c 128
 788 474 805 429 812 376 c 1
 814 371 815 353 814 322 c 128
 813 291 805 258 788 225 c 1
 468 493 l 1
 363 577 285 650 234 712 c 128
 183 774 157 839 157 906 c 0
 157 911 157 914 158 918 c 1
 158 928 l 1
 162 969 173 1007 193 1043 c 0
 228 1109 278 1163 345 1206 c 128
 412 1249 482 1272 557 1278 c 1
 581 1278 l 2
 686 1278 778 1245 855 1178 c 1
 790 832 l 1
199 46 m 1
 179 -7 169 -56 170 -99 c 0
 170 -166 192 -214 237 -241 c 1
 266 -264 302 -276 345 -277 c 128
 388 -278 427 -266 462 -244 c 128
 497 -222 521 -191 536 -150 c 1
 544 -131 548 -110 546 -86 c 0
 546 -29 525 22 483 67 c 1
 471 81 430 117 357 176 c 128
 284 235 225 291 178 346 c 1
 146 386 124 421 111 452 c 128
 98 483 93 508 93 528 c 128
 93 548 93 558 94 561 c 1
 94 574 l 1
 98 607 106 641 121 676 c 1
 430 414 586 281 590 277 c 0
 639 232 676 191 701 152 c 128
 726 113 740 68 745 19 c 1
 747 14 747 4 747 -12 c 0
 747 -95 716 -170 653 -237 c 0
 607 -286 552 -322 488 -345 c 128
 424 -368 363 -380 305 -380 c 0
 201 -380 116 -356 49 -307 c 1
 20 -288 -4 -263 -24 -231 c 128
 -44 -199 -54 -172 -57 -149 c 1
 -59 -145 -60 -137 -59 -123 c 128
 -58 -109 -56 -92 -51 -72 c 1
 -34 -20 1 17 54 39 c 1
 77 50 102 55 128 56 c 128
 154 57 178 53 199 46 c 1
EndSplineSet
EndChar

StartChar: dieresis
Encoding: 168 168 104
Width: 670
VWidth: 1655
GlyphClass: 2
Flags: HMW
LayerCount: 2
Fore
SplineSet
526 1490 m 128
 543 1475 551 1457 551 1435 c 128
 551 1413 543 1393 526 1378 c 128
 509 1363 489 1356 466 1356 c 128
 443 1356 425 1363 408 1378 c 128
 391 1393 383 1412 383 1435 c 128
 383 1458 391 1475 408 1490 c 128
 425 1505 443 1512 466 1512 c 128
 489 1512 509 1505 526 1490 c 128
264 1490 m 128
 281 1475 288 1457 288 1434 c 128
 288 1411 281 1393 264 1378 c 128
 247 1363 227 1356 204 1356 c 128
 181 1356 163 1363 146 1378 c 128
 129 1393 121 1412 121 1435 c 128
 121 1458 129 1475 146 1490 c 128
 163 1505 181 1512 204 1512 c 128
 227 1512 247 1505 264 1490 c 128
EndSplineSet
EndChar

StartChar: copyright
Encoding: 169 169 105
Width: 1267
VWidth: 1655
GlyphClass: 2
Flags: HMW
LayerCount: 2
Fore
SplineSet
490 421 m 128
 539 366 605 338 687 338 c 128
 769 338 839 361 897 408 c 1
 906 399 915 383 925 360 c 1
 848 286 753 249 641 249 c 0
 573 249 511 264 456 294 c 128
 401 324 356 367 322 425 c 128
 288 483 272 548 272 623 c 0
 272 771 330 886 446 971 c 1
 510 1016 586 1039 674 1038 c 128
 762 1037 833 1016 887 975 c 1
 871 780 l 1
 818 786 l 1
 796 916 l 1
 768 951 718 968 645 967 c 128
 572 966 515 940 475 886 c 128
 435 832 416 756 416 655 c 128
 416 554 441 476 490 421 c 128
620 -28 m 128
 532 -28 449 -11 373 22 c 128
 297 55 232 101 179 158 c 128
 126 215 84 284 54 364 c 128
 24 444 8 531 8 622 c 128
 8 713 25 800 59 882 c 128
 93 964 137 1035 194 1093 c 128
 251 1151 318 1198 394 1233 c 128
 470 1268 552 1285 642 1285 c 128
 732 1285 818 1267 899 1232 c 128
 980 1197 1047 1149 1101 1087 c 1
 1209 958 1263 804 1262 625 c 0
 1262 539 1246 455 1212 375 c 128
 1178 295 1133 226 1077 167 c 128
 1021 108 952 62 872 26 c 128
 792 -10 708 -28 620 -28 c 128
194 908 m 128
 150 824 129 730 129 627 c 128
 129 524 150 430 193 346 c 128
 236 262 294 196 370 149 c 128
 446 102 525 78 608 78 c 128
 691 78 765 91 828 118 c 128
 891 145 946 182 992 230 c 128
 1038 278 1074 335 1101 402 c 128
 1128 469 1142 540 1142 615 c 0
 1142 767 1101 898 1020 1008 c 0
 979 1063 924 1106 856 1137 c 128
 788 1168 710 1184 623 1184 c 128
 536 1184 453 1159 376 1109 c 128
 299 1059 238 992 194 908 c 128
EndSplineSet
EndChar

StartChar: ordfeminine
Encoding: 170 170 106
Width: 830
VWidth: 0
GlyphClass: 2
Flags: HMW
LayerCount: 2
Fore
SplineSet
644.114 932 m 1
 649.499 966 l 2
 666.104 1074 673.246 1169.6 571.297 1169.6 c 0
 501.246 1169.6 480.44 1114 446.537 977.6 c 1
 365.633 970 324 1004 324 1066 c 0
 324 1168 525.564 1254 642.864 1254 c 0
 794.164 1254 840.418 1177 813.915 1008.4 c 2
 772.672 748 l 2
 761.015 674.4 776.633 648 849.942 634.8 c 2
 891.302 627.6 l 1
 870.464 565.8 l 1
 823.785 529 797.696 519.6 747.547 519.6 c 0
 639.517 519.6 605.774 582.606 614.676 638.8 c 1
 605.326 638.8 l 1
 575.66 596.4 512.187 514.8 372.786 514.8 c 0
 292.061 514.8 228.327 573.613 228.327 654.585 c 0
 228.327 796.262 356.373 932 644.114 932 c 1
405.447 700.979 m 0
 405.447 665.387 423.774 631.2 477.938 631.2 c 0
 537.438 631.2 575.744 679.8 608.482 709.4 c 1
 633.833 874.4 l 1
 475.205 846.688 405.447 793.795 405.447 700.979 c 0
EndSplineSet
EndChar

StartChar: guillemotleft
Encoding: 171 171 107
Width: 721
VWidth: 0
GlyphClass: 2
Flags: HMW
LayerCount: 2
Fore
SplineSet
401 469 m 5
 725 821 l 5
 760 761 l 5
 547 461 l 5
 664 140 l 5
 601 78 l 5
 400 449 l 5
 401 469 l 5
154 469 m 5
 477 821 l 5
 512 761 l 5
 299 461 l 5
 416 140 l 5
 353 78 l 5
 152 449 l 5
 154 469 l 5
EndSplineSet
EndChar

StartChar: logicalnot
Encoding: 172 172 108
Width: 956
VWidth: 0
GlyphClass: 2
Flags: HMW
LayerCount: 2
Fore
SplineSet
200 664 m 1
 945 664 l 1
 897 350 l 1
 788 332 l 1
 824 558 l 1
 172 558 l 1
 200 664 l 1
EndSplineSet
EndChar

StartChar: softhyphen
Encoding: 173 173 109
Width: 569
VWidth: 0
GlyphClass: 2
Flags: HMW
LayerCount: 2
Fore
SplineSet
170 522 m 1
 588 581 l 1
 562 466 l 1
 144 406 l 1
 170 522 l 1
EndSplineSet
EndChar

StartChar: registered
Encoding: 174 174 110
Width: 1257
VWidth: 0
GlyphClass: 2
Flags: HMW
LayerCount: 2
Fore
SplineSet
373.25 776.9 m 1
 380 824.601 l 1
 460.1 852.95 l 1
 460.1 1248.5 l 1
 378.65 1265.6 l 1
 383.6 1319.15 l 1
 449.3 1329.5 562.7 1341.2 629.3 1341.2 c 0
 781.85 1341.2 874.1 1304.3 874.1 1193.6 c 0
 874.1 1123.4 815.25 1051.3 748.65 1027.9 c 1
 748 1026 l 5
 825.6 935.2 l 2
 876 877 895.079 862.651 945.3 839.4 c 2
 961.5 831.9 l 1
 951.15 776.9 l 1
 931.8 770.601 900.6 766.101 869.1 766.101 c 0
 778.2 766.101 736.504 822.362 686.6 917.5 c 2
 642.8 1001 l 1
 587 1001 l 1
 587 857 l 1
 661.25 830.45 l 1
 656.3 776.9 l 1
 373.25 776.9 l 1
587 1068.5 m 1
 665.75 1068.5 l 1
 705.35 1085.6 737.3 1117.1 737.3 1170.2 c 0
 737.3 1232.75 694.1 1271.8 621.2 1271.8 c 0
 603.2 1271.8 589.7 1270.45 587 1270.45 c 1
 587 1068.5 l 1
173.1 1022.5 m 0
 173.1 1344 384.1 1522.5 652.1 1522.5 c 0
 928.1 1522.5 1147.1 1352 1147.1 1026.5 c 0
 1147.1 716 924.1 540.5 642.1 540.5 c 0
 380.1 540.5 173.1 724 173.1 1022.5 c 0
261.1 1036.5 m 0
 261.1 776 432.1 616.5 650.1 616.5 c 0
 878.1 616.5 1059.1 784 1059.1 1016.5 c 0
 1059.1 1280 878.1 1446.5 652.1 1446.5 c 0
 430.1 1446.5 261.1 1300 261.1 1036.5 c 0
EndSplineSet
EndChar

StartChar: macron
Encoding: 175 175 111
Width: 685
VWidth: 1655
GlyphClass: 2
Flags: HMW
LayerCount: 2
Fore
SplineSet
134 1450 m 1
 566 1450 l 1
 553 1351 l 1
 121 1351 l 1
 134 1450 l 1
EndSplineSet
EndChar

StartChar: degree
Encoding: 176 176 112
Width: 338
VWidth: 1655
GlyphClass: 2
Flags: HMW
LayerCount: 2
Fore
SplineSet
291 1243 m 128
 319 1213 332 1173 332 1125 c 128
 332 1077 316 1036 285 1002 c 128
 254 968 214 951 166 951 c 128
 118 951 80 966 51 996 c 128
 22 1026 8 1065 8 1114 c 128
 8 1163 25 1203 58 1237 c 128
 91 1271 132 1288 179 1288 c 128
 226 1288 263 1273 291 1243 c 128
102 1210 m 128
 87 1189 80 1160 80 1126 c 128
 80 1092 88 1062 105 1037 c 128
 122 1012 145 999 174 999 c 0
 233 999 262 1037 263 1113 c 0
 263 1150 254 1181 236 1205 c 128
 218 1229 195 1241 167 1241 c 128
 139 1241 117 1231 102 1210 c 128
EndSplineSet
EndChar

StartChar: plusminus
Encoding: 177 177 113
Width: 792
VWidth: 0
GlyphClass: 2
Flags: HMW
LayerCount: 2
Fore
SplineSet
81.4688 117 m 1
 693.36 124 l 1
 676.832 20 l 1
 64.9414 13 l 1
 81.4688 117 l 1
EndSplineSet
Refer: 12 43 S 1 0 -4.47035e-07 1 140.171 81 2
EndChar

StartChar: two.superior
Encoding: 178 178 114
Width: 622
VWidth: 0
GlyphClass: 2
Flags: HMW
LayerCount: 2
Fore
SplineSet
136.049 638 m 1
 310.53 761 l 1
 447.945 860.438 536.845 928.414 536.845 1056.71 c 0
 536.845 1109.26 517.927 1153 446.617 1153 c 0
 397.617 1153 353.499 1127 333.431 1095 c 1
 290.999 966 l 1
 223.791 971 l 1
 235.717 1141 l 1
 288.912 1218 426.089 1257 527.089 1257 c 0
 665.028 1257 741.38 1201.73 741.38 1104.38 c 0
 741.38 922.489 551.305 804.898 368.235 696 c 2
 294.267 652 l 1
 564.267 652 l 1
 667.499 805 l 1
 721.174 784 l 1
 662.103 531 l 1
 111.103 531 l 1
 136.049 638 l 1
EndSplineSet
EndChar

StartChar: three.superior
Encoding: 179 179 115
Width: 635
VWidth: 0
GlyphClass: 2
Flags: HMW
LayerCount: 2
Fore
SplineSet
110.171 563 m 1
 171.688 762 l 1
 245.422 754 l 1
 232.04 619 l 1
 246.714 598 281.705 579 324.705 579 c 0
 418.352 579 499.007 639.22 499.007 733.142 c 0
 499.007 797.666 427.335 849 314.469 849 c 1
 307.813 908 l 1
 362.523 924.291 519.231 975.102 519.231 1092.15 c 0
 519.231 1141.95 492.039 1189 429.319 1189 c 0
 398.319 1189 366.844 1186 342.835 1167 c 1
 293.969 1010 l 1
 218.919 1016 l 1
 234.002 1187 l 1
 271.972 1231 394.573 1279 497.573 1279 c 0
 622.281 1279 713.819 1231.21 713.819 1140.37 c 0
 713.819 1018.9 605.985 955.477 502.822 927 c 1
 501.714 920 l 1
 629.597 906.55 693.101 852.098 693.101 766.735 c 0
 693.101 604.157 501.038 495 307.4 495 c 0
 212.4 495 123.519 521 110.171 563 c 1
EndSplineSet
EndChar

StartChar: acute
Encoding: 180 180 116
Width: 605
VWidth: 1655
GlyphClass: 2
Flags: HMW
LayerCount: 2
Fore
SplineSet
455 1633 m 1
 275 1322 l 1
 225 1352 l 1
 344 1671 l 1
 455 1633 l 1
EndSplineSet
EndChar

StartChar: micro
Encoding: 181 181 117
Width: 983
VWidth: 1655
GlyphClass: 2
Flags: HMW
LayerCount: 2
Fore
SplineSet
237 738 m 1
 106 792 l 1
 129 874 l 1
 401 895 l 1
 421 871 l 1
 353 317 l 2
 351 299 350 282 349 264 c 0
 349 159 394 107 484 106 c 0
 511 106 532 108 547 114 c 128
 562 120 572 123 579 125 c 128
 586 127 596 132 608 140 c 128
 620 148 627 152 631 154 c 0
 658 170 674 180 681 188 c 1
 747 734 l 1
 592 775 l 1
 613 867 l 1
 913 895 l 1
 929 871 l 1
 851 214 l 1
 848 178 l 1
 848 144 856 122 875 111 c 128
 894 100 916 94 943 88 c 1
 987 78 l 1
 967 -7 l 1
 910 -20 860 -26 816 -26 c 128
 772 -26 738 -15 716 7 c 128
 694 29 683 59 683 98 c 0
 683 103 683 106 685 108 c 1
 685 121 l 2
 685 123 685 123 686 125 c 1
 686 129 l 1
 674 129 l 1
 567 26 464 -26 365 -26 c 0
 303 -26 259 -4 233 39 c 1
 227 39 l 1
 227 -16 l 2
 227 -51 227 -74 225 -86 c 2
 205 -390 l 1
 75 -364 l 1
 138 -2 182 284 207 495 c 2
 237 738 l 1
EndSplineSet
EndChar

StartChar: paragraph
Encoding: 182 182 118
Width: 1289
VWidth: 0
GlyphClass: 2
Flags: HMW
LayerCount: 2
Fore
SplineSet
684.188 1245 m 2
 1030.19 1245 l 1
 833 0 l 1
 427 0 l 1
 445.721 74 l 1
 694.164 121 l 1
 857.459 1152 l 1
 817.617 1153 760.775 1154 750.775 1154 c 0
 518.095 1154 380.242 1039.23 380.242 816.553 c 0
 380.242 675.835 459.396 546 648.478 546 c 9
 614.956 448 l 1
 377.091 448 169.076 551.091 169.076 785.08 c 0
 169.076 1071.96 424.294 1245 684.188 1245 c 2
912 0 m 1
 1109.19 1245 l 1
 1429.19 1245 l 1
 1407.99 1168 l 1
 1231.97 1130 l 1
 1071.06 114 l 1
 1246.67 80 l 1
 1224 0 l 1
 912 0 l 1
EndSplineSet
EndChar

StartChar: periodcentered
Encoding: 183 183 119
Width: 253
VWidth: 1655
GlyphClass: 2
Flags: HMW
LayerCount: 2
Fore
SplineSet
44 419 m 128
 20 444 8 473 8 507 c 128
 8 541 20 568 43 589 c 128
 66 610 95 620 128 620 c 128
 161 620 189 608 213 586 c 128
 237 564 249 537 249 504 c 128
 249 471 237 443 213 418 c 128
 189 393 161 381 128 381 c 128
 95 381 68 394 44 419 c 128
EndSplineSet
EndChar

StartChar: cedilla
Encoding: 184 184 120
Width: 375
VWidth: 1655
GlyphClass: 2
Flags: HMW
LayerCount: 2
Fore
SplineSet
209 -75 m 1
 268 -126 297 -174 296 -221 c 0
 296 -290 231 -343 101 -381 c 1
 81 -323 l 1
 137 -303 165 -276 165 -242 c 0
 165 -215 141 -179 94 -134 c 1
 189 3 l 1
 263 3 l 1
 209 -75 l 1
EndSplineSet
EndChar

StartChar: one.superior
Encoding: 185 185 121
Width: 512
VWidth: 0
GlyphClass: 2
Flags: HMW
LayerCount: 2
Fore
SplineSet
107.103 531 m 5
 122.822 605 l 5
 279.782 630 l 5
 357.707 1122 l 5
 212.707 1122 l 5
 228.903 1199 l 5
 538.188 1245 l 5
 557.188 1245 l 5
 459.307 627 l 5
 609.248 614 l 5
 590.103 531 l 5
 107.103 531 l 5
EndSplineSet
EndChar

StartChar: ordmasculine
Encoding: 186 186 122
Width: 934
VWidth: 0
GlyphClass: 2
Flags: HMW
LayerCount: 2
Fore
SplineSet
542.919 1258 m 0
 725.186 1258 826.804 1144.33 826.804 969.448 c 0
 826.804 697.528 623.207 514 404.681 514 c 0
 207.926 514 106.72 634.545 106.72 802.837 c 0
 106.72 1090.28 338.268 1258 542.919 1258 c 0
282.348 810.639 m 0
 282.348 691.238 310.166 593.6 435.872 593.6 c 0
 592.954 593.6 649.164 784.34 649.164 948.204 c 0
 649.164 1067.75 613.804 1175 493.915 1175 c 0
 331.231 1175 282.348 984.086 282.348 810.639 c 0
EndSplineSet
EndChar

StartChar: onequarter
Encoding: 188 188 124
Width: 1735
VWidth: 0
GlyphClass: 2
Flags: HMW
LayerCount: 2
Fore
SplineSet
736 270 m 1
 1220 737 l 1
 1275 726 l 1
 1255 641 1237 542 1219 430 c 2
 1194 272 l 1
 1342 272 l 1
 1318 175 l 1
 1179 175 l 1
 1164 83 l 1
 1283 65 l 1
 1266 0 l 1
 852 0 l 1
 865 58 l 1
 1006 85 l 1
 1021 178 l 1
 734 178 l 1
 736 270 l 1
843 272 m 1
 1033 272 l 1
 1071 508 l 1
 843 272 l 1
32 531 m 1
 48 605 l 1
 205 630 l 1
 283 1122 l 1
 138 1122 l 1
 154 1199 l 1
 463 1245 l 1
 482 1245 l 1
 385 627 l 1
 534 614 l 1
 515 531 l 1
 32 531 l 1
158 -10 m 1
 659 588 l 1
 1149 1210 l 1
 1324 1207 l 1
 1318 1178 l 1
 824 591 l 1
 354 -32 l 1
 158 -10 l 1
EndSplineSet
EndChar

StartChar: onehalf
Encoding: 189 189 125
Width: 1735
VWidth: 0
GlyphClass: 2
Flags: HMW
LayerCount: 2
Fore
SplineSet
809 109 m 1
 984 232 l 2
 1018 256 1043 276 1061 290 c 128
 1079 304 1100 320 1122 341 c 128
 1144 362 1160 381 1171 398 c 128
 1182 415 1191 433 1199 456 c 128
 1207 479 1210 503 1210 528 c 0
 1210 592 1180 624 1120 624 c 0
 1096 624 1074 618 1053 607 c 128
 1032 596 1017 583 1006 566 c 1
 964 437 l 1
 897 442 l 1
 909 612 l 1
 934 648 975 676 1032 697 c 128
 1089 718 1145 728 1200 728 c 0
 1269 728 1322 715 1359 688 c 128
 1396 661 1415 624 1415 575 c 0
 1415 550 1411 526 1403 501 c 128
 1395 476 1385 454 1373 434 c 128
 1361 414 1346 394 1325 372 c 128
 1304 350 1284 333 1266 317 c 128
 1248 301 1224 284 1195 264 c 128
 1166 244 1140 228 1120 215 c 128
 1100 202 1075 187 1042 167 c 2
 967 123 l 1
 1237 123 l 1
 1341 276 l 1
 1394 255 l 1
 1335 2 l 1
 785 2 l 1
 809 109 l 1
32 531 m 1
 48 605 l 1
 205 630 l 1
 283 1122 l 1
 138 1122 l 1
 154 1199 l 1
 463 1245 l 1
 482 1245 l 1
 385 627 l 1
 534 614 l 1
 515 531 l 1
 32 531 l 1
138 -10 m 1
 639 588 l 1
 1129 1210 l 1
 1304 1207 l 1
 1298 1178 l 1
 804 591 l 1
 334 -32 l 1
 138 -10 l 1
EndSplineSet
EndChar

StartChar: threequarters
Encoding: 190 190 126
Width: 1735
VWidth: 0
GlyphClass: 2
Flags: HMW
LayerCount: 2
Fore
SplineSet
56 546 m 5
 117 745 l 5
 191 737 l 5
 177 602 l 5
 185 591 197 582 214 574 c 132
 231 566 249 562 270 562 c 4
 318 562 360 576 394 605 c 132
 428 634 444 670 444 716 c 4
 444 749 428 777 394 799 c 132
 360 821 315 832 260 832 c 5
 253 891 l 5
 269 896 283 900 297 905 c 132
 311 910 328 918 350 929 c 132
 372 940 392 951 407 964 c 132
 422 977 435 992 447 1012 c 132
 459 1032 464 1053 464 1075 c 4
 464 1102 457 1125 442 1144 c 132
 427 1163 404 1172 374 1172 c 4
 335 1172 307 1165 288 1150 c 5
 239 993 l 5
 164 999 l 5
 179 1170 l 5
 199 1193 236 1214 289 1233 c 132
 342 1252 393 1262 443 1262 c 4
 507 1262 559 1250 599 1226 c 132
 639 1202 659 1167 659 1123 c 4
 659 1094 653 1067 641 1043 c 132
 629 1019 613 998 592 981 c 132
 571 964 549 951 525 939 c 132
 501 927 476 918 448 910 c 5
 447 903 l 5
 510 896 558 880 590 854 c 132
 622 828 639 793 639 750 c 4
 639 698 620 650 582 608 c 132
 544 566 496 534 438 512 c 132
 380 490 317 478 252 478 c 4
 203 478 160 484 122 497 c 132
 84 510 63 525 56 546 c 5
171 -10 m 5
 673 588 l 5
 1163 1210 l 5
 1338 1207 l 5
 1332 1178 l 5
 838 591 l 5
 368 -32 l 5
 171 -10 l 5
736 270 m 5
 1220 737 l 5
 1275 726 l 5
 1255 641 1237 542 1219 430 c 6
 1194 272 l 5
 1342 272 l 5
 1318 175 l 5
 1179 175 l 5
 1164 83 l 5
 1283 65 l 5
 1266 0 l 5
 852 0 l 5
 865 58 l 5
 1006 85 l 5
 1021 178 l 5
 734 178 l 5
 736 270 l 5
843 272 m 5
 1033 272 l 5
 1071 508 l 5
 843 272 l 5
EndSplineSet
EndChar

StartChar: questiondown
Encoding: 191 191 127
Width: 494
VWidth: 1655
GlyphClass: 2
Flags: HMW
LayerCount: 2
Fore
SplineSet
280 778 m 1
 270 791 266 802 263 813 c 128
 260 824 259 831 259 836 c 128
 259 841 261 857 267 884 c 128
 273 911 287 937 310 959 c 128
 333 981 359 992 390 992 c 1
 417 990 437 981 452 964 c 128
 467 947 476 932 479 914 c 128
 482 896 484 887 484 885 c 128
 484 883 482 871 477 848 c 128
 472 825 459 803 436 780 c 128
 413 757 390 745 366 744 c 128
 342 743 326 745 315 750 c 128
 304 755 293 764 280 778 c 1
404 453 m 1
 409 401 l 1
 409 361 397 326 374 295 c 128
 351 264 329 241 305 225 c 128
 281 209 250 195 213 180 c 128
 176 165 148 152 130 141 c 128
 112 130 93 113 74 91 c 128
 55 69 44 43 40 14 c 1
 40 7 l 1
 38 3 38 1 39 -3 c 0
 39 -56 63 -101 111 -136 c 1
 131 -149 153 -156 176 -160 c 1
 186 -160 l 1
 188 -162 193 -162 201 -162 c 128
 209 -162 226 -159 252 -151 c 0
 311 -135 354 -114 380 -89 c 1
 391 -94 401 -101 411 -113 c 1
 429 -133 437 -151 437 -169 c 128
 437 -187 437 -196 435 -200 c 1
 427 -248 396 -285 341 -311 c 0
 309 -327 275 -334 240 -334 c 2
 218 -334 l 1
 159 -330 108 -312 64 -278 c 128
 20 -244 -13 -199 -35 -146 c 128
 -57 -93 -67 -44 -67 -1 c 128
 -67 42 -65 73 -60 93 c 0
 -47 156 -14 211 40 258 c 1
 71 283 93 299 108 305 c 0
 131 315 145 319 150 321 c 128
 155 323 160 325 167 328 c 128
 174 331 177 331 179 332 c 128
 181 333 184 334 190 337 c 128
 196 340 198 341 201 343 c 128
 205 345 205 345 212 349 c 128
 217 352 220 353 223 355 c 128
 226 357 229 359 233 362 c 0
 243 370 252 380 263 392 c 0
 281 412 290 443 290 484 c 2
 290 505 l 1
 288 512 288 517 288 521 c 128
 288 525 287 542 284 571 c 1
 360 587 l 1
 384 528 398 484 404 453 c 1
EndSplineSet
EndChar

StartChar: Agrave
Encoding: 192 192 128
Width: 1214
VWidth: 1655
GlyphClass: 2
Flags: HMW
LayerCount: 2
Fore
SplineSet
768 505 m 1
 680 1062 l 1
 676 1062 l 1
 579 724 l 1
 550 627 530 564 520 536 c 1
 768 505 l 1
822 1271 m 1
 1032 132 l 1
 1210 81 l 1
 1187 0 l 1
 611 0 l 1
 634 72 l 1
 832 108 l 1
 781 430 l 1
 489 446 l 1
 440 310 399 215 366 157 c 128
 333 99 303 56 275 29 c 128
 247 2 212 -16 173 -24 c 1
 155 -26 146 -27 142 -28 c 0
 104 -28 69 -16 37 8 c 128
 5 32 -18 62 -31 101 c 1
 19 120 64 142 103 168 c 1
 172 213 236 274 295 349 c 0
 372 450 445 596 514 786 c 1
 569 947 613 1098 644 1241 c 1
 822 1271 l 1
543 1655 m 1
 657 1693 l 1
 786 1365 l 1
 729 1332 l 1
 543 1655 l 1
EndSplineSet
EndChar

StartChar: Aacute
Encoding: 193 193 129
Width: 1214
VWidth: 1655
GlyphClass: 2
Flags: HMW
LayerCount: 2
Fore
SplineSet
768 505 m 1
 680 1062 l 1
 676 1062 l 1
 579 724 l 1
 550 627 530 564 520 536 c 1
 768 505 l 1
822 1271 m 1
 1032 132 l 1
 1210 81 l 1
 1187 0 l 1
 611 0 l 1
 634 72 l 1
 832 108 l 1
 781 430 l 1
 489 446 l 1
 440 310 399 215 366 157 c 128
 333 99 303 56 275 29 c 128
 247 2 212 -16 173 -24 c 1
 155 -26 146 -27 142 -28 c 0
 104 -28 69 -16 37 8 c 128
 5 32 -18 62 -31 101 c 1
 19 120 64 142 103 168 c 1
 172 213 236 274 295 349 c 0
 372 450 445 596 514 786 c 1
 569 947 613 1098 644 1241 c 1
 822 1271 l 1
964 1661 m 1
 785 1351 l 1
 734 1382 l 1
 855 1701 l 1
 964 1661 l 1
EndSplineSet
EndChar

StartChar: Acircumflex
Encoding: 194 194 130
Width: 1214
VWidth: 1655
GlyphClass: 2
Flags: HMW
LayerCount: 2
Fore
SplineSet
768 505 m 1
 680 1062 l 1
 676 1062 l 1
 579 724 l 1
 550 627 530 564 520 536 c 1
 768 505 l 1
822 1271 m 1
 1032 132 l 1
 1210 81 l 1
 1187 0 l 1
 611 0 l 1
 634 72 l 1
 832 108 l 1
 781 430 l 1
 489 446 l 1
 440 310 399 215 366 157 c 128
 333 99 303 56 275 29 c 128
 247 2 212 -16 173 -24 c 1
 155 -26 146 -27 142 -28 c 0
 104 -28 69 -16 37 8 c 128
 5 32 -18 62 -31 101 c 1
 19 120 64 142 103 168 c 1
 172 213 236 274 295 349 c 0
 372 450 445 596 514 786 c 1
 569 947 613 1098 644 1241 c 1
 822 1271 l 1
765 1577 m 1
 940 1396 l 1
 892 1361 l 1
 731 1468 l 1
 721 1468 l 1
 583 1359 l 1
 546 1388 l 1
 712 1564 l 1
 765 1577 l 1
EndSplineSet
EndChar

StartChar: Atilde
Encoding: 195 195 131
Width: 1214
VWidth: 1655
GlyphClass: 2
Flags: HMW
LayerCount: 2
Fore
SplineSet
768 505 m 1
 680 1062 l 1
 676 1062 l 1
 579 724 l 1
 550 627 530 564 520 536 c 1
 768 505 l 1
822 1271 m 1
 1032 132 l 1
 1210 81 l 1
 1187 0 l 1
 611 0 l 1
 634 72 l 1
 832 108 l 1
 781 430 l 1
 489 446 l 1
 440 310 399 215 366 157 c 128
 333 99 303 56 275 29 c 128
 247 2 212 -16 173 -24 c 1
 155 -26 146 -27 142 -28 c 0
 104 -28 69 -16 37 8 c 128
 5 32 -18 62 -31 101 c 1
 19 120 64 142 103 168 c 1
 172 213 236 274 295 349 c 0
 372 450 445 596 514 786 c 1
 569 947 613 1098 644 1241 c 1
 822 1271 l 1
611 1419 m 2
 594 1419 575 1403 553 1372 c 1
 515 1380 l 1
 517 1387 520 1397 524 1411 c 128
 528 1425 536 1441 550 1462 c 0
 575 1501 603 1521 636 1522 c 2
 643 1522 l 1
 645 1520 647 1520 649 1520 c 2
 867 1490 l 1
 871 1490 l 2
 885 1490 903 1504 925 1531 c 1
 973 1529 l 1
 942 1435 899 1388 845 1388 c 2
 834 1388 l 1
 615 1419 l 1
 611 1419 l 2
EndSplineSet
EndChar

StartChar: Adieresis
Encoding: 196 196 132
Width: 1214
VWidth: 1655
GlyphClass: 2
Flags: HMW
LayerCount: 2
Fore
SplineSet
768 505 m 1
 680 1062 l 1
 676 1062 l 1
 579 724 l 1
 550 627 530 564 520 536 c 1
 768 505 l 1
822 1271 m 1
 1032 132 l 1
 1210 81 l 1
 1187 0 l 1
 611 0 l 1
 634 72 l 1
 832 108 l 1
 781 430 l 1
 489 446 l 1
 440 310 399 215 366 157 c 128
 333 99 303 56 275 29 c 128
 247 2 212 -16 173 -24 c 1
 155 -26 146 -27 142 -28 c 0
 104 -28 69 -16 37 8 c 128
 5 32 -18 62 -31 101 c 1
 19 120 64 142 103 168 c 1
 172 213 236 274 295 349 c 0
 372 450 445 596 514 786 c 1
 569 947 613 1098 644 1241 c 1
 822 1271 l 1
934 1519 m 128
 951 1504 959 1486 959 1464 c 128
 959 1442 951 1424 934 1408 c 128
 917 1392 897 1385 874 1385 c 128
 851 1385 831 1392 815 1408 c 128
 799 1424 791 1443 791 1465 c 128
 791 1488 799 1504 815 1519 c 128
 831 1534 851 1541 874 1541 c 128
 897 1541 917 1534 934 1519 c 128
672 1519 m 128
 689 1504 696 1486 696 1464 c 128
 696 1442 689 1423 672 1408 c 128
 655 1393 635 1385 612 1385 c 128
 589 1385 571 1392 554 1408 c 128
 537 1424 529 1443 529 1465 c 128
 529 1488 537 1504 554 1519 c 128
 571 1534 589 1541 612 1541 c 128
 635 1541 655 1534 672 1519 c 128
EndSplineSet
EndChar

StartChar: Aring
Encoding: 197 197 133
Width: 1214
VWidth: 1655
GlyphClass: 2
Flags: HMW
LayerCount: 2
Fore
SplineSet
768 505 m 1
 680 1062 l 1
 676 1062 l 1
 579 724 l 1
 550 627 530 564 520 536 c 1
 768 505 l 1
822 1271 m 1
 1032 132 l 1
 1210 81 l 1
 1187 0 l 1
 611 0 l 1
 634 72 l 1
 832 108 l 1
 781 430 l 1
 489 446 l 1
 440 310 399 215 366 157 c 128
 333 99 303 56 275 29 c 128
 247 2 212 -16 173 -24 c 1
 155 -26 146 -27 142 -28 c 0
 104 -28 69 -16 37 8 c 128
 5 32 -18 62 -31 101 c 1
 19 120 64 142 103 168 c 1
 172 213 236 274 295 349 c 0
 372 450 445 596 514 786 c 1
 569 947 613 1098 644 1241 c 1
 822 1271 l 1
678 1615 m 128
 662 1594 655 1568 655 1535 c 128
 655 1502 663 1473 681 1448 c 128
 699 1423 721 1410 748 1410 c 0
 804 1411 832 1448 834 1523 c 0
 834 1558 826 1587 808 1611 c 128
 790 1635 768 1647 741 1647 c 128
 714 1647 694 1636 678 1615 c 128
861 1649 m 128
 889 1619 904 1582 904 1535 c 128
 904 1488 888 1448 856 1414 c 128
 824 1380 785 1363 739 1363 c 128
 693 1363 655 1378 627 1408 c 128
 599 1438 585 1476 585 1523 c 128
 585 1570 601 1609 634 1643 c 128
 667 1677 706 1694 751 1694 c 128
 796 1694 833 1679 861 1649 c 128
EndSplineSet
EndChar

StartChar: AE
Encoding: 198 198 134
Width: 1533
VWidth: 1655
GlyphClass: 2
Flags: HMW
LayerCount: 2
Fore
SplineSet
719 507 m 1
 699 1064 l 1
 693 1064 l 1
 599 726 l 1
 583 671 563 607 538 534 c 1
 719 507 l 1
1414 430 m 1
 1419 412 1421 375 1421 317 c 0
 1421 187 1401 81 1361 0 c 1
 1334 0 l 2
 1303 0 1278 0 1257 2 c 1
 1032 2 l 2
 979 2 940 2 916 3 c 1
 744 3 l 1
 491 -3 l 1
 514 80 l 1
 731 134 l 1
 721 432 l 1
 509 444 l 1
 458 307 415 208 380 146 c 1
 347 91 317 52 291 26 c 128
 265 0 237 -16 209 -21 c 128
 181 -26 166 -28 162 -28 c 0
 125 -28 90 -16 57 8 c 128
 24 32 2 63 -12 101 c 1
 38 120 83 142 123 168 c 1
 189 210 252 270 313 349 c 1
 422 495 525 733 620 1066 c 1
 636 1119 650 1178 662 1241 c 1
 1405 1280 l 1
 1365 862 l 1
 1278 869 l 1
 1222 1125 l 1
 1192 1128 l 1
 1119 1135 1023 1139 904 1142 c 1
 872 1143 l 1
 892 681 l 1
 1259 698 l 1
 1220 557 l 1
 897 578 l 1
 925 101 l 1
 1010 108 l 2
 1124 120 1191 127 1212 132 c 1
 1232 157 1255 203 1280 270 c 128
 1305 337 1320 391 1327 434 c 1
 1414 430 l 1
EndSplineSet
EndChar

StartChar: Ccedilla
Encoding: 199 199 135
Width: 951
VWidth: 1655
GlyphClass: 2
Flags: HMW
LayerCount: 2
Fore
SplineSet
529 -75 m 1
 588 -126 617 -174 616 -221 c 0
 616 -290 551 -343 421 -381 c 1
 401 -323 l 1
 457 -303 485 -276 486 -242 c 0
 486 -215 462 -179 414 -134 c 1
 488 -30 l 1
 465 -30 l 2
 426 -30 384 -24 339 -12 c 1
 246 17 170 71 109 151 c 128
 48 231 16 332 10 455 c 1
 10 471 l 1
 8 477 8 482 8 488 c 0
 8 707 79 899 221 1064 c 1
 331 1192 461 1255 611 1254 c 0
 759 1254 862 1197 921 1085 c 1
 939 1055 947 1021 946 982 c 2
 946 971 l 1
 945 932 933 897 909 865 c 128
 885 833 858 814 829 806 c 128
 800 798 778 794 761 794 c 128
 744 794 728 796 712 802 c 1
 721 847 725 885 725 917 c 128
 725 949 723 978 718 1005 c 0
 708 1058 674 1097 615 1123 c 1
 592 1132 563 1136 526 1134 c 128
 489 1132 450 1117 408 1087 c 128
 366 1057 332 1018 307 971 c 0
 264 894 239 785 230 641 c 0
 228 604 227 583 227 578 c 0
 227 405 271 278 359 196 c 0
 411 148 472 124 541 125 c 0
 583 125 623 133 662 149 c 128
 701 165 736 190 769 223 c 128
 802 256 825 285 841 310 c 1
 883 248 l 1
 869 213 849 177 820 142 c 0
 759 69 683 19 594 -10 c 0
 583 -14 575 -15 569 -16 c 1
 529 -75 l 1
EndSplineSet
EndChar

StartChar: Egrave
Encoding: 200 200 136
Width: 1203
VWidth: 1655
GlyphClass: 2
Flags: HMW
LayerCount: 2
Fore
SplineSet
1058 0 m 1
 690 2 483 3 440 3 c 1
 8 -3 l 1
 31 80 l 1
 249 134 l 1
 374 1094 l 1
 147 1117 l 1
 167 1194 l 1
 240 1209 348 1221 493 1233 c 128
 638 1245 774 1250 900 1250 c 2
 973 1250 l 1
 1197 1246 l 1
 1117 835 l 1
 1031 848 l 1
 999 1111 l 1
 971 1117 l 1
 870 1136 747 1145 602 1143 c 2
 569 1143 l 1
 514 680 l 1
 969 712 l 1
 935 569 l 1
 502 578 l 1
 440 99 l 1
 657 108 l 1
 779 115 863 122 908 132 c 1
 931 169 957 222 988 292 c 128
 1019 362 1038 415 1048 451 c 1
 1135 440 l 1
 1135 434 l 2
 1135 345 1128 262 1114 182 c 128
 1100 102 1082 41 1058 0 c 1
599 1655 m 1
 712 1693 l 1
 841 1365 l 1
 785 1332 l 1
 599 1655 l 1
EndSplineSet
EndChar

StartChar: Eacute
Encoding: 201 201 137
Width: 1203
VWidth: 1655
GlyphClass: 2
Flags: HMW
LayerCount: 2
Fore
SplineSet
1058 0 m 1
 690 2 483 3 440 3 c 1
 8 -3 l 1
 31 80 l 1
 249 134 l 1
 374 1094 l 1
 147 1117 l 1
 167 1194 l 1
 240 1209 348 1221 493 1233 c 128
 638 1245 774 1250 900 1250 c 2
 973 1250 l 1
 1197 1246 l 1
 1117 835 l 1
 1031 848 l 1
 999 1111 l 1
 971 1117 l 1
 870 1136 747 1145 602 1143 c 2
 569 1143 l 1
 514 680 l 1
 969 712 l 1
 935 569 l 1
 502 578 l 1
 440 99 l 1
 657 108 l 1
 779 115 863 122 908 132 c 1
 931 169 957 222 988 292 c 128
 1019 362 1038 415 1048 451 c 1
 1135 440 l 1
 1135 434 l 2
 1135 345 1128 262 1114 182 c 128
 1100 102 1082 41 1058 0 c 1
1019 1661 m 1
 839 1351 l 1
 790 1382 l 1
 909 1701 l 1
 1019 1661 l 1
EndSplineSet
EndChar

StartChar: Ecircumflex
Encoding: 202 202 138
Width: 1203
VWidth: 1655
GlyphClass: 2
Flags: HMW
LayerCount: 2
Fore
SplineSet
1058 0 m 1
 690 2 483 3 440 3 c 1
 8 -3 l 1
 31 80 l 1
 249 134 l 1
 374 1094 l 1
 147 1117 l 1
 167 1194 l 1
 240 1209 348 1221 493 1233 c 128
 638 1245 774 1250 900 1250 c 2
 973 1250 l 1
 1197 1246 l 1
 1117 835 l 1
 1031 848 l 1
 999 1111 l 1
 971 1117 l 1
 870 1136 747 1145 602 1143 c 2
 569 1143 l 1
 514 680 l 1
 969 712 l 1
 935 569 l 1
 502 578 l 1
 440 99 l 1
 657 108 l 1
 779 115 863 122 908 132 c 1
 931 169 957 222 988 292 c 128
 1019 362 1038 415 1048 451 c 1
 1135 440 l 1
 1135 434 l 2
 1135 345 1128 262 1114 182 c 128
 1100 102 1082 41 1058 0 c 1
820 1577 m 1
 995 1396 l 1
 946 1361 l 1
 786 1468 l 1
 776 1468 l 1
 639 1359 l 1
 602 1388 l 1
 766 1564 l 1
 820 1577 l 1
EndSplineSet
EndChar

StartChar: Edieresis
Encoding: 203 203 139
Width: 1203
VWidth: 1655
GlyphClass: 2
Flags: HMW
LayerCount: 2
Fore
SplineSet
1058 0 m 1
 690 2 483 3 440 3 c 1
 8 -3 l 1
 31 80 l 1
 249 134 l 1
 374 1094 l 1
 147 1117 l 1
 167 1194 l 1
 240 1209 348 1221 493 1233 c 128
 638 1245 774 1250 900 1250 c 2
 973 1250 l 1
 1197 1246 l 1
 1117 835 l 1
 1031 848 l 1
 999 1111 l 1
 971 1117 l 1
 870 1136 747 1145 602 1143 c 2
 569 1143 l 1
 514 680 l 1
 969 712 l 1
 935 569 l 1
 502 578 l 1
 440 99 l 1
 657 108 l 1
 779 115 863 122 908 132 c 1
 931 169 957 222 988 292 c 128
 1019 362 1038 415 1048 451 c 1
 1135 440 l 1
 1135 434 l 2
 1135 345 1128 262 1114 182 c 128
 1100 102 1082 41 1058 0 c 1
989 1519 m 128
 1007 1504 1015 1486 1015 1464 c 128
 1015 1442 1007 1424 989 1408 c 128
 971 1392 952 1385 929 1385 c 128
 906 1385 887 1392 870 1408 c 128
 853 1424 846 1443 846 1465 c 128
 846 1488 853 1504 870 1519 c 128
 887 1534 906 1541 929 1541 c 128
 952 1541 971 1534 989 1519 c 128
725 1519 m 128
 742 1504 750 1486 750 1464 c 128
 750 1442 742 1423 725 1408 c 128
 708 1393 690 1385 667 1385 c 128
 644 1385 624 1392 607 1408 c 128
 590 1424 583 1443 583 1465 c 128
 583 1488 590 1504 607 1519 c 128
 624 1534 644 1541 667 1541 c 128
 690 1541 708 1534 725 1519 c 128
EndSplineSet
EndChar

StartChar: Igrave
Encoding: 204 204 140
Width: 791
VWidth: 1655
GlyphClass: 2
Flags: HMW
LayerCount: 2
Fore
SplineSet
634 0 m 1
 8 0 l 1
 26 78 l 1
 249 129 l 1
 372 1090 l 1
 146 1123 l 1
 165 1199 l 1
 313 1230 467 1246 629 1246 c 0
 670 1246 722 1244 785 1239 c 1
 766 1164 l 1
 567 1142 l 1
 440 106 l 1
 658 81 l 1
 634 0 l 1
310 1650 m 1
 424 1687 l 1
 553 1361 l 1
 497 1327 l 1
 310 1650 l 1
EndSplineSet
EndChar

StartChar: Iacute
Encoding: 205 205 141
Width: 791
VWidth: 1655
GlyphClass: 2
Flags: HMW
LayerCount: 2
Fore
SplineSet
634 0 m 1
 8 0 l 1
 26 78 l 1
 249 129 l 1
 372 1090 l 1
 146 1123 l 1
 165 1199 l 1
 313 1230 467 1246 629 1246 c 0
 670 1246 722 1244 785 1239 c 1
 766 1164 l 1
 567 1142 l 1
 440 106 l 1
 658 81 l 1
 634 0 l 1
731 1657 m 1
 551 1345 l 1
 502 1377 l 1
 621 1696 l 1
 731 1657 l 1
EndSplineSet
EndChar

StartChar: Icircumflex
Encoding: 206 206 142
Width: 791
VWidth: 1655
GlyphClass: 2
Flags: HMW
LayerCount: 2
Fore
SplineSet
634 0 m 1
 8 0 l 1
 26 78 l 1
 249 129 l 1
 372 1090 l 1
 146 1123 l 1
 165 1199 l 1
 313 1230 467 1246 629 1246 c 0
 670 1246 722 1244 785 1239 c 1
 766 1164 l 1
 567 1142 l 1
 440 106 l 1
 658 81 l 1
 634 0 l 1
532 1572 m 1
 707 1391 l 1
 658 1356 l 1
 499 1463 l 1
 489 1463 l 1
 351 1354 l 1
 313 1383 l 1
 479 1559 l 1
 532 1572 l 1
EndSplineSet
EndChar

StartChar: Idieresis
Encoding: 207 207 143
Width: 791
VWidth: 1655
GlyphClass: 2
Flags: HMW
LayerCount: 2
Fore
SplineSet
634 0 m 1
 8 0 l 1
 26 78 l 1
 249 129 l 1
 372 1090 l 1
 146 1123 l 1
 165 1199 l 1
 313 1230 467 1246 629 1246 c 0
 672 1246 724 1244 786 1239 c 1
 766 1164 l 1
 567 1142 l 1
 440 106 l 1
 658 81 l 1
 634 0 l 1
701 1514 m 128
 718 1499 726 1481 726 1459 c 128
 726 1437 718 1419 701 1403 c 128
 684 1387 664 1380 641 1380 c 128
 618 1380 599 1387 582 1403 c 128
 565 1419 558 1438 558 1460 c 128
 558 1483 565 1499 582 1514 c 128
 599 1529 618 1536 641 1536 c 128
 664 1536 684 1529 701 1514 c 128
438 1514 m 128
 455 1499 463 1481 463 1459 c 128
 463 1437 455 1418 438 1403 c 128
 421 1388 401 1380 378 1380 c 128
 355 1380 336 1387 320 1403 c 128
 304 1419 296 1438 296 1460 c 128
 296 1483 304 1499 320 1514 c 128
 336 1529 355 1536 378 1536 c 128
 401 1536 421 1529 438 1514 c 128
EndSplineSet
EndChar

StartChar: Eth
Encoding: 208 208 144
Width: 1298
VWidth: 1655
GlyphClass: 2
Flags: HMW
LayerCount: 2
Fore
SplineSet
488 551 m 1
 434 106 l 1
 444 106 l 1
 448 104 458 104 479 104 c 128
 500 104 538 107 595 113 c 0
 735 126 852 160 946 218 c 128
 1040 276 1106 353 1143 450 c 1
 1168 515 1180 589 1180 672 c 0
 1180 755 1162 832 1127 904 c 1
 1102 957 1068 1001 1026 1037 c 128
 984 1073 925 1104 849 1132 c 128
 773 1160 713 1174 668 1175 c 128
 623 1176 587 1175 561 1171 c 1
 499 649 l 1
 750 660 l 1
 722 561 l 1
 488 551 l 1
8 0 m 1
 28 77 l 1
 237 129 l 1
 293 541 l 1
 127 536 l 1
 153 634 l 1
 307 641 l 1
 364 1068 l 1
 147 1085 l 1
 168 1158 l 1
 333 1220 524 1251 741 1250 c 0
 781 1250 806 1250 817 1249 c 1
 997 1240 1131 1200 1220 1127 c 1
 1260 1094 1293 1055 1319 1009 c 0
 1362 932 1384 846 1383 752 c 0
 1383 727 1382 704 1378 681 c 1
 1360 507 1284 358 1150 234 c 0
 1025 119 868 47 680 18 c 0
 601 6 487 0 336 0 c 2
 8 0 l 1
EndSplineSet
EndChar

StartChar: Ntilde
Encoding: 209 209 145
Width: 1506
VWidth: 1655
GlyphClass: 2
Flags: HMW
LayerCount: 2
Fore
SplineSet
1011 -31 m 1
 456 999 l 1
 453 999 l 1
 434 486 l 2
 429 381 421 298 407 239 c 128
 393 180 366 124 327 70 c 1
 274 3 218 -31 158 -31 c 2
 151 -31 l 1
 92 -25 51 1 26 49 c 1
 17 69 12 87 8 103 c 1
 87 140 150 186 197 242 c 1
 291 359 341 567 349 864 c 1
 351 984 352 1053 353 1071 c 1
 127 1125 l 1
 149 1201 l 1
 242 1220 316 1230 373 1235 c 128
 430 1240 491 1243 558 1246 c 1
 646 1078 l 1
 1081 274 l 1
 1152 1106 l 1
 925 1122 l 1
 945 1197 l 1
 1048 1220 1132 1233 1194 1238 c 128
 1256 1243 1311 1245 1358 1245 c 128
 1405 1245 1453 1243 1501 1239 c 1
 1480 1163 l 1
 1275 1109 l 1
 1171 2 l 1
 1011 -31 l 1
698 1419 m 2
 681 1419 662 1403 639 1372 c 1
 602 1380 l 1
 604 1387 606 1397 610 1411 c 128
 614 1425 622 1441 636 1462 c 0
 661 1501 689 1521 721 1522 c 2
 727 1522 l 1
 729 1520 730 1520 734 1520 c 2
 952 1490 l 1
 956 1490 l 2
 970 1490 988 1504 1011 1531 c 1
 1058 1529 l 1
 1027 1435 984 1388 929 1388 c 2
 920 1388 l 1
 701 1419 l 1
 698 1419 l 2
EndSplineSet
EndChar

StartChar: Ograve
Encoding: 210 210 146
Width: 1078
VWidth: 1655
GlyphClass: 2
Flags: HMW
LayerCount: 2
Fore
SplineSet
216 651 m 0
 216 495 246 368 306 269 c 128
 366 170 445 120 541 120 c 128
 637 120 715 167 776 260 c 128
 837 353 867 475 867 625 c 0
 867 720 854 805 827 881 c 128
 800 957 759 1018 706 1063 c 128
 653 1108 592 1130 525 1130 c 128
 458 1130 401 1108 354 1064 c 1
 261 975 215 838 216 651 c 0
1074 744 m 1
 1072 596 1037 457 969 325 c 1
 892 179 793 78 675 21 c 0
 608 -12 534 -28 452 -28 c 128
 370 -28 294 -4 224 45 c 128
 154 94 101 158 64 238 c 128
 27 318 8 408 8 505 c 0
 8 642 34 769 86 886 c 128
 138 1003 212 1098 307 1169 c 128
 402 1240 511 1275 631 1275 c 0
 722 1275 802 1249 873 1196 c 128
 944 1143 996 1077 1027 998 c 128
 1058 919 1074 836 1074 748 c 2
 1074 744 l 1
414 1655 m 1
 527 1693 l 1
 657 1365 l 1
 600 1332 l 1
 414 1655 l 1
EndSplineSet
EndChar

StartChar: Oacute
Encoding: 211 211 147
Width: 1078
VWidth: 1655
GlyphClass: 2
Flags: HMW
LayerCount: 2
Fore
SplineSet
216 651 m 0
 216 495 246 368 306 269 c 128
 366 170 445 120 541 120 c 128
 637 120 715 167 776 260 c 128
 837 353 867 475 867 625 c 0
 867 720 854 805 827 881 c 128
 800 957 759 1018 706 1063 c 128
 653 1108 592 1130 525 1130 c 128
 458 1130 401 1108 354 1064 c 1
 261 975 215 838 216 651 c 0
1074 744 m 1
 1072 596 1037 457 969 325 c 1
 892 179 793 78 675 21 c 0
 608 -12 534 -28 452 -28 c 128
 370 -28 294 -4 224 45 c 128
 154 94 101 158 64 238 c 128
 27 318 8 408 8 505 c 0
 8 642 34 769 86 886 c 128
 138 1003 212 1098 307 1169 c 128
 402 1240 511 1275 631 1275 c 0
 722 1275 802 1249 873 1196 c 128
 944 1143 996 1077 1027 998 c 128
 1058 919 1074 836 1074 748 c 2
 1074 744 l 1
835 1661 m 1
 655 1351 l 1
 605 1382 l 1
 724 1701 l 1
 835 1661 l 1
EndSplineSet
EndChar

StartChar: Ocircumflex
Encoding: 212 212 148
Width: 1078
VWidth: 1655
GlyphClass: 2
Flags: HMW
LayerCount: 2
Fore
SplineSet
216 651 m 0
 216 495 246 368 306 269 c 128
 366 170 445 120 541 120 c 128
 637 120 715 167 776 260 c 128
 837 353 867 475 867 625 c 0
 867 720 854 805 827 881 c 128
 800 957 759 1018 706 1063 c 128
 653 1108 592 1130 525 1130 c 128
 458 1130 401 1108 354 1064 c 1
 261 975 215 838 216 651 c 0
1074 744 m 1
 1072 596 1037 457 969 325 c 1
 892 179 793 78 675 21 c 0
 608 -12 534 -28 452 -28 c 128
 370 -28 294 -4 224 45 c 128
 154 94 101 158 64 238 c 128
 27 318 8 408 8 505 c 0
 8 642 34 769 86 886 c 128
 138 1003 212 1098 307 1169 c 128
 402 1240 511 1275 631 1275 c 0
 722 1275 802 1249 873 1196 c 128
 944 1143 996 1077 1027 998 c 128
 1058 919 1074 836 1074 748 c 2
 1074 744 l 1
636 1577 m 1
 811 1396 l 1
 762 1361 l 1
 602 1468 l 1
 592 1468 l 1
 455 1359 l 1
 418 1388 l 1
 583 1564 l 1
 636 1577 l 1
EndSplineSet
EndChar

StartChar: Otilde
Encoding: 213 213 149
Width: 1078
VWidth: 1655
GlyphClass: 2
Flags: HMW
LayerCount: 2
Fore
SplineSet
216 651 m 0
 216 495 246 368 306 269 c 128
 366 170 445 120 541 120 c 128
 637 120 715 167 776 260 c 128
 837 353 867 475 867 625 c 0
 867 720 854 805 827 881 c 128
 800 957 759 1018 706 1063 c 128
 653 1108 592 1130 525 1130 c 128
 458 1130 401 1108 354 1064 c 1
 261 975 215 838 216 651 c 0
1074 744 m 1
 1072 596 1037 457 969 325 c 1
 892 179 793 78 675 21 c 0
 608 -12 534 -28 452 -28 c 128
 370 -28 294 -4 224 45 c 128
 154 94 101 158 64 238 c 128
 27 318 8 408 8 505 c 0
 8 642 34 769 86 886 c 128
 138 1003 212 1098 307 1169 c 128
 402 1240 511 1275 631 1275 c 0
 722 1275 802 1249 873 1196 c 128
 944 1143 996 1077 1027 998 c 128
 1058 919 1074 836 1074 748 c 2
 1074 744 l 1
483 1419 m 2
 466 1419 447 1403 424 1372 c 1
 386 1380 l 1
 388 1387 391 1397 395 1411 c 128
 399 1425 407 1441 421 1462 c 0
 446 1501 474 1521 507 1522 c 2
 514 1522 l 1
 516 1520 517 1520 519 1520 c 2
 738 1490 l 1
 741 1490 l 2
 755 1490 773 1504 796 1531 c 1
 843 1529 l 1
 812 1435 769 1388 716 1388 c 2
 704 1388 l 1
 486 1419 l 1
 483 1419 l 2
EndSplineSet
EndChar

StartChar: Odieresis
Encoding: 214 214 150
Width: 1078
VWidth: 1655
GlyphClass: 2
Flags: HMW
LayerCount: 2
Fore
SplineSet
216 651 m 0
 216 495 246 368 306 269 c 128
 366 170 445 120 541 120 c 128
 637 120 715 167 776 260 c 128
 837 353 867 475 867 625 c 0
 867 720 854 805 827 881 c 128
 800 957 759 1018 706 1063 c 128
 653 1108 592 1130 525 1130 c 128
 458 1130 401 1108 354 1064 c 1
 261 975 215 838 216 651 c 0
1074 744 m 1
 1072 596 1037 457 969 325 c 1
 892 179 793 78 675 21 c 0
 608 -12 534 -28 452 -28 c 128
 370 -28 294 -4 224 45 c 128
 154 94 101 158 64 238 c 128
 27 318 8 408 8 505 c 0
 8 642 34 769 86 886 c 128
 138 1003 212 1098 307 1169 c 128
 402 1240 511 1275 631 1275 c 0
 722 1275 802 1249 873 1196 c 128
 944 1143 996 1077 1027 998 c 128
 1058 919 1074 836 1074 748 c 2
 1074 744 l 1
805 1519 m 128
 822 1504 830 1486 830 1464 c 128
 830 1442 822 1424 805 1408 c 128
 788 1392 768 1385 745 1385 c 128
 722 1385 704 1392 687 1408 c 128
 670 1424 662 1443 662 1465 c 128
 662 1488 670 1504 687 1519 c 128
 704 1534 722 1541 745 1541 c 128
 768 1541 788 1534 805 1519 c 128
541 1519 m 128
 558 1504 566 1486 566 1464 c 128
 566 1442 558 1423 541 1408 c 128
 524 1393 505 1385 482 1385 c 128
 459 1385 440 1392 424 1408 c 128
 408 1424 400 1443 400 1465 c 128
 400 1488 408 1504 424 1519 c 128
 440 1534 459 1541 482 1541 c 128
 505 1541 524 1534 541 1519 c 128
EndSplineSet
EndChar

StartChar: multiply
Encoding: 215 215 151
Width: 556
VWidth: 1655
GlyphClass: 2
Flags: HMW
LayerCount: 2
Fore
SplineSet
298 380 m 1
 116 223 l 1
 61 305 l 1
 232 453 l 1
 99 607 l 1
 188 672 l 1
 320 520 l 1
 502 678 l 1
 555 595 l 1
 383 448 l 1
 519 291 l 1
 430 227 l 1
 298 380 l 1
EndSplineSet
EndChar

StartChar: Oslash
Encoding: 216 216 152
Width: 1293
VWidth: 1655
GlyphClass: 2
Flags: HMW
LayerCount: 2
Fore
SplineSet
353 205 m 1
 407 148 469 119 540 120 c 0
 637 120 715 167 776 260 c 128
 837 353 867 474 867 623 c 128
 867 772 835 895 771 992 c 1
 353 205 l 1
216 651 m 0
 216 496 246 370 305 272 c 1
 718 1053 l 1
 661 1104 597 1130 528 1130 c 128
 459 1130 401 1108 354 1064 c 1
 261 975 215 838 216 651 c 0
824 1296 m 1
 966 1304 l 1
 899 1176 l 1
 955 1128 999 1066 1029 989 c 128
 1059 912 1074 832 1074 748 c 2
 1074 744 l 1
 1072 596 1037 457 969 325 c 1
 892 179 793 78 675 21 c 0
 608 -12 540 -28 469 -28 c 128
 398 -28 334 -14 277 14 c 1
 227 -73 l 1
 84 -81 l 1
 176 84 l 1
 155 104 132 115 106 121 c 0
 81 127 65 131 58 136 c 0
 42 147 31 182 22 241 c 128
 13 300 8 394 8 521 c 128
 8 648 34 769 86 886 c 128
 138 1003 212 1098 307 1169 c 128
 402 1240 511 1275 631 1275 c 0
 689 1275 743 1264 794 1243 c 1
 824 1296 l 1
EndSplineSet
EndChar

StartChar: Ugrave
Encoding: 217 217 153
Width: 1425
VWidth: 1655
GlyphClass: 2
Flags: HMW
LayerCount: 2
Fore
SplineSet
230 1087 m 1
 8 1123 l 1
 30 1199 l 1
 140 1219 236 1231 318 1237 c 128
 400 1243 470 1245 530 1245 c 128
 590 1245 628 1245 646 1243 c 1
 628 1166 l 1
 429 1138 l 1
 381 745 l 2
 381 743 381 735 379 721 c 128
 377 707 375 682 370 647 c 128
 365 612 364 585 362 566 c 128
 360 547 360 521 360 488 c 128
 360 455 361 428 364 405 c 0
 367 382 371 357 378 330 c 0
 393 274 424 227 472 188 c 1
 522 145 581 123 650 123 c 0
 780 123 874 179 931 290 c 1
 958 343 978 425 994 534 c 2
 1068 1111 l 1
 843 1120 l 1
 861 1197 l 1
 1002 1228 1148 1243 1301 1243 c 0
 1312 1243 1352 1242 1421 1239 c 1
 1401 1163 l 1
 1194 1096 l 1
 1109 517 l 2
 1080 325 1029 191 954 114 c 0
 919 77 870 43 808 12 c 128
 746 -19 672 -34 587 -34 c 2
 579 -34 l 1
 451 -28 351 11 280 83 c 0
 199 164 159 277 158 425 c 0
 158 460 166 552 184 702 c 2
 230 1087 l 1
551 1655 m 1
 665 1693 l 1
 794 1365 l 1
 738 1332 l 1
 551 1655 l 1
EndSplineSet
EndChar

StartChar: Uacute
Encoding: 218 218 154
Width: 1425
VWidth: 1655
GlyphClass: 2
Flags: HMW
LayerCount: 2
Fore
SplineSet
230 1087 m 1
 8 1123 l 1
 30 1199 l 1
 140 1219 236 1231 318 1237 c 128
 400 1243 470 1245 530 1245 c 128
 590 1245 628 1245 646 1243 c 1
 628 1166 l 1
 429 1138 l 1
 381 745 l 2
 381 743 381 735 379 721 c 128
 377 707 375 682 370 647 c 128
 365 612 364 585 362 566 c 128
 360 547 360 521 360 488 c 128
 360 455 361 428 364 405 c 0
 367 382 371 357 378 330 c 0
 393 274 424 227 472 188 c 1
 522 145 581 123 650 123 c 0
 780 123 874 179 931 290 c 1
 958 343 978 425 994 534 c 2
 1068 1111 l 1
 843 1120 l 1
 861 1197 l 1
 1002 1228 1148 1243 1301 1243 c 0
 1312 1243 1352 1242 1421 1239 c 1
 1401 1163 l 1
 1194 1096 l 1
 1109 517 l 2
 1080 325 1029 191 954 114 c 0
 919 77 870 43 808 12 c 128
 746 -19 672 -34 587 -34 c 2
 579 -34 l 1
 451 -28 351 11 280 83 c 0
 199 164 159 277 158 425 c 0
 158 460 166 552 184 702 c 2
 230 1087 l 1
973 1661 m 1
 792 1351 l 1
 743 1382 l 1
 862 1701 l 1
 973 1661 l 1
EndSplineSet
EndChar

StartChar: Ucircumflex
Encoding: 219 219 155
Width: 1425
VWidth: 1655
GlyphClass: 2
Flags: HMW
LayerCount: 2
Fore
SplineSet
230 1087 m 1
 8 1123 l 1
 30 1199 l 1
 140 1219 236 1231 318 1237 c 128
 400 1243 470 1245 530 1245 c 128
 590 1245 628 1245 646 1243 c 1
 628 1166 l 1
 429 1138 l 1
 381 745 l 2
 381 743 381 735 379 721 c 128
 377 707 375 682 370 647 c 128
 365 612 364 585 362 566 c 128
 360 547 360 521 360 488 c 128
 360 455 361 428 364 405 c 0
 367 382 371 357 378 330 c 0
 393 274 424 227 472 188 c 1
 522 145 581 123 650 123 c 0
 780 123 874 179 931 290 c 1
 958 343 978 425 994 534 c 2
 1068 1111 l 1
 843 1120 l 1
 861 1197 l 1
 1002 1228 1148 1243 1301 1243 c 0
 1312 1243 1352 1242 1421 1239 c 1
 1401 1163 l 1
 1194 1096 l 1
 1109 517 l 2
 1080 325 1029 191 954 114 c 0
 919 77 870 43 808 12 c 128
 746 -19 672 -34 587 -34 c 2
 579 -34 l 1
 451 -28 351 11 280 83 c 0
 199 164 159 277 158 425 c 0
 158 460 166 552 184 702 c 2
 230 1087 l 1
773 1577 m 1
 948 1396 l 1
 900 1361 l 1
 739 1468 l 1
 729 1468 l 1
 592 1359 l 1
 555 1388 l 1
 720 1564 l 1
 773 1577 l 1
EndSplineSet
EndChar

StartChar: Udieresis
Encoding: 220 220 156
Width: 1425
VWidth: 1655
GlyphClass: 2
Flags: HMW
LayerCount: 2
Fore
SplineSet
230 1087 m 1
 8 1123 l 1
 30 1199 l 1
 140 1219 236 1231 318 1237 c 128
 400 1243 470 1245 530 1245 c 128
 590 1245 628 1245 646 1243 c 1
 628 1166 l 1
 429 1138 l 1
 381 745 l 2
 381 743 381 735 379 721 c 128
 377 707 375 682 370 647 c 128
 365 612 364 585 362 566 c 128
 360 547 360 521 360 488 c 128
 360 455 361 428 364 405 c 0
 367 382 371 357 378 330 c 0
 393 274 424 227 472 188 c 1
 522 145 581 123 650 123 c 0
 780 123 874 179 931 290 c 1
 958 343 978 425 994 534 c 2
 1068 1111 l 1
 843 1120 l 1
 861 1197 l 1
 1002 1228 1148 1243 1301 1243 c 0
 1312 1243 1352 1242 1421 1239 c 1
 1401 1163 l 1
 1194 1096 l 1
 1109 517 l 2
 1080 325 1029 191 954 114 c 0
 919 77 870 43 808 12 c 128
 746 -19 672 -34 587 -34 c 2
 579 -34 l 1
 451 -28 351 11 280 83 c 0
 199 164 159 277 158 425 c 0
 158 460 166 552 184 702 c 2
 230 1087 l 1
942 1519 m 128
 959 1504 967 1486 967 1464 c 128
 967 1442 959 1424 942 1408 c 128
 925 1392 905 1385 882 1385 c 128
 859 1385 841 1392 824 1408 c 128
 807 1424 799 1443 799 1465 c 128
 799 1488 807 1504 824 1519 c 128
 841 1534 859 1541 882 1541 c 128
 905 1541 925 1534 942 1519 c 128
679 1519 m 128
 696 1504 704 1486 704 1464 c 128
 704 1442 696 1423 679 1408 c 128
 662 1393 642 1385 619 1385 c 128
 596 1385 577 1392 561 1408 c 128
 545 1424 537 1443 537 1465 c 128
 537 1488 545 1504 561 1519 c 128
 577 1534 596 1541 619 1541 c 128
 642 1541 662 1534 679 1519 c 128
EndSplineSet
EndChar

StartChar: Yacute
Encoding: 221 221 157
Width: 1078
VWidth: 1655
GlyphClass: 2
Flags: HMW
LayerCount: 2
Fore
SplineSet
608 680 m 1
 579 583 557 476 543 359 c 2
 514 106 l 1
 727 81 l 1
 706 0 l 1
 80 0 l 1
 99 83 l 1
 320 129 l 1
 359 423 l 2
 366 470 369 519 369 569 c 0
 369 688 347 796 302 893 c 1
 241 1019 144 1092 8 1111 c 1
 18 1160 39 1197 73 1221 c 128
 107 1245 147 1259 191 1262 c 0
 193 1262 195 1262 197 1264 c 1
 202 1264 l 2
 309 1264 391 1204 446 1086 c 0
 493 985 516 857 514 702 c 2
 514 664 l 1
 530 664 l 1
 553 763 584 855 622 940 c 128
 660 1025 696 1088 729 1132 c 128
 762 1176 796 1206 833 1224 c 128
 870 1242 902 1250 931 1250 c 2
 941 1250 l 1
 945 1248 947 1248 951 1249 c 0
 988 1245 1018 1231 1040 1205 c 128
 1062 1179 1073 1150 1073 1120 c 0
 1073 1107 1072 1097 1069 1087 c 1
 1030 1085 986 1078 936 1063 c 128
 886 1048 840 1026 799 995 c 1
 752 957 715 915 688 869 c 128
 661 823 635 760 608 680 c 1
808 1661 m 1
 628 1351 l 1
 578 1382 l 1
 698 1701 l 1
 808 1661 l 1
EndSplineSet
EndChar

StartChar: Thorn
Encoding: 222 222 158
Width: 1122
VWidth: 1655
GlyphClass: 2
Flags: HMW
LayerCount: 2
Fore
SplineSet
637 0 m 1
 7 0 l 1
 24 78 l 1
 246 130 l 1
 372 1099 l 1
 146 1131 l 1
 163 1205 l 1
 348 1239 503 1256 628 1255 c 0
 673 1255 727 1253 790 1249 c 1
 771 1171 l 1
 567 1150 l 1
 555 1039 l 1
 618 1045 666 1047 699 1047 c 0
 840 1047 948 1017 1022 957 c 128
 1096 897 1133 809 1133 696 c 0
 1133 581 1081 480 976 393 c 1
 868 304 715 250 517 232 c 1
 510 315 l 1
 669 333 785 379 858 453 c 0
 912 508 940 579 939 665 c 128
 938 751 907 824 847 885 c 128
 787 946 706 977 604 977 c 0
 584 977 566 975 546 971 c 1
 444 108 l 1
 662 80 l 1
 637 0 l 1
EndSplineSet
EndChar

StartChar: germandbls
Encoding: 223 223 159
Width: 993
VWidth: 1655
GlyphClass: 2
Flags: HMW
LayerCount: 2
Fore
SplineSet
520 233 m 1
 557 125 611 66 683 57 c 1
 691 57 l 1
 693 55 698 55 707 56 c 128
 716 57 731 60 753 70 c 128
 775 80 792 92 804 106 c 1
 815 123 820 140 820 158 c 2
 820 165 l 1
 818 167 818 173 816 185 c 0
 812 214 788 250 744 295 c 0
 731 308 708 328 675 355 c 1
 604 412 561 455 543 485 c 128
 525 515 517 545 517 575 c 128
 517 605 521 629 529 650 c 128
 537 671 550 694 569 721 c 1
 595 756 643 804 712 864 c 1
 770 917 803 953 812 971 c 128
 821 989 826 1004 830 1018 c 128
 834 1032 835 1045 835 1058 c 0
 835 1113 813 1153 768 1178 c 0
 738 1196 704 1204 667 1203 c 0
 662 1203 647 1202 623 1200 c 128
 599 1198 575 1193 549 1185 c 128
 523 1177 497 1164 471 1145 c 128
 445 1126 425 1103 411 1074 c 0
 386 1023 371 949 364 851 c 1
 359 806 l 1
 338 468 324 251 316 155 c 128
 308 59 296 -21 279 -84 c 128
 262 -147 235 -200 200 -242 c 0
 153 -301 94 -342 23 -365 c 1
 -14 -375 -49 -378 -80 -379 c 128
 -111 -380 -140 -373 -165 -359 c 0
 -207 -334 -228 -297 -228 -248 c 0
 -228 -201 -210 -163 -173 -132 c 1
 -109 -196 -43 -228 24 -228 c 0
 46 -228 64 -224 80 -217 c 128
 96 -210 105 -200 111 -185 c 128
 117 -170 122 -148 126 -120 c 128
 130 -92 135 -49 140 8 c 128
 145 65 147 108 149 136 c 128
 151 164 151 186 153 204 c 128
 155 222 156 244 159 270 c 128
 162 296 162 309 162 313 c 2
 195 775 l 1
 84 766 l 1
 99 871 l 1
 204 855 l 1
 210 882 215 907 221 931 c 0
 242 1007 273 1070 315 1119 c 128
 357 1168 411 1206 479 1233 c 128
 547 1260 617 1274 688 1278 c 1
 696 1280 722 1280 766 1280 c 128
 810 1280 852 1272 895 1254 c 1
 925 1244 950 1229 972 1205 c 128
 994 1181 1006 1156 1010 1130 c 0
 1010 1126 1010 1124 1011 1120 c 1
 1011 1109 l 2
 1011 1052 970 989 888 918 c 2
 778 822 l 2
 776 820 771 817 763 810 c 128
 755 803 741 792 721 775 c 128
 701 758 683 741 666 723 c 128
 649 705 641 683 641 656 c 128
 641 629 650 601 670 573 c 1
 699 538 724 512 746 494 c 128
 768 476 792 456 818 435 c 128
 844 414 861 399 872 389 c 0
 903 362 925 335 940 306 c 128
 955 277 962 252 964 230 c 1
 964 218 l 2
 964 179 949 139 918 98 c 1
 886 59 843 27 789 2 c 128
 735 -23 683 -35 634 -35 c 0
 539 -36 473 -13 434 34 c 0
 415 56 406 83 406 116 c 128
 406 149 423 179 458 207 c 1
 477 221 497 229 520 233 c 1
EndSplineSet
EndChar

StartChar: agrave
Encoding: 224 224 160
Width: 839
VWidth: 1655
GlyphClass: 2
Flags: HMW
LayerCount: 2
Fore
SplineSet
587 918 m 1
 706 881 l 1
 634 491 l 1
 604 253 l 1
 599 214 597 186 597 168 c 0
 597 133 612 116 641 116 c 0
 659 116 683 133 713 166 c 128
 743 199 771 236 794 275 c 1
 835 240 l 1
 798 147 758 79 714 35 c 128
 670 -9 613 -31 543 -31 c 0
 510 -31 484 -18 466 6 c 128
 448 30 440 66 440 113 c 0
 440 161 452 219 476 287 c 1
 463 287 l 1
 428 203 382 131 325 70 c 128
 268 9 212 -21 157 -21 c 128
 102 -21 63 0 41 41 c 128
 19 82 8 143 8 225 c 128
 8 307 27 401 65 505 c 128
 103 609 154 701 218 779 c 128
 282 857 346 895 409 895 c 128
 472 895 520 870 553 820 c 1
 562 820 l 1
 576 909 l 1
 587 918 l 1
214 595 m 0
 180 490 163 398 163 317 c 128
 163 236 167 186 175 165 c 128
 183 144 200 134 227 134 c 0
 275 134 330 185 393 286 c 1
 456 387 500 512 527 660 c 1
 517 688 498 713 468 736 c 128
 438 759 408 770 376 770 c 128
 344 770 314 754 284 722 c 128
 254 690 231 648 214 595 c 0
286 1303 m 1
 398 1339 l 1
 527 1013 l 1
 471 978 l 1
 286 1303 l 1
EndSplineSet
EndChar

StartChar: aacute
Encoding: 225 225 161
Width: 839
VWidth: 1655
GlyphClass: 2
Flags: HMW
LayerCount: 2
Fore
SplineSet
587 918 m 1
 706 881 l 1
 634 491 l 1
 604 253 l 1
 599 214 597 186 597 168 c 0
 597 133 612 116 641 116 c 0
 659 116 683 133 713 166 c 128
 743 199 771 236 794 275 c 1
 835 240 l 1
 798 147 758 79 714 35 c 128
 670 -9 613 -31 543 -31 c 0
 510 -31 484 -18 466 6 c 128
 448 30 440 66 440 113 c 0
 440 161 452 219 476 287 c 1
 463 287 l 1
 428 203 382 131 325 70 c 128
 268 9 212 -21 157 -21 c 128
 102 -21 63 0 41 41 c 128
 19 82 8 143 8 225 c 128
 8 307 27 401 65 505 c 128
 103 609 154 701 218 779 c 128
 282 857 346 895 409 895 c 128
 472 895 520 870 553 820 c 1
 562 820 l 1
 576 909 l 1
 587 918 l 1
214 595 m 0
 180 490 163 398 163 317 c 128
 163 236 167 186 175 165 c 128
 183 144 200 134 227 134 c 0
 275 134 330 185 393 286 c 1
 456 387 500 512 527 660 c 1
 517 688 498 713 468 736 c 128
 438 759 408 770 376 770 c 128
 344 770 314 754 284 722 c 128
 254 690 231 648 214 595 c 0
706 1309 m 1
 525 998 l 1
 476 1029 l 1
 595 1347 l 1
 706 1309 l 1
EndSplineSet
EndChar

StartChar: acircumflex
Encoding: 226 226 162
Width: 839
VWidth: 1655
GlyphClass: 2
Flags: HMW
LayerCount: 2
Fore
SplineSet
587 918 m 1
 706 881 l 1
 634 491 l 1
 604 253 l 1
 599 214 597 186 597 168 c 0
 597 133 612 116 641 116 c 0
 659 116 683 133 713 166 c 128
 743 199 771 236 794 275 c 1
 835 240 l 1
 798 147 758 79 714 35 c 128
 670 -9 613 -31 543 -31 c 0
 510 -31 484 -18 466 6 c 128
 448 30 440 66 440 113 c 0
 440 161 452 219 476 287 c 1
 463 287 l 1
 428 203 382 131 325 70 c 128
 268 9 212 -21 157 -21 c 128
 102 -21 63 0 41 41 c 128
 19 82 8 143 8 225 c 128
 8 307 27 401 65 505 c 128
 103 609 154 701 218 779 c 128
 282 857 346 895 409 895 c 128
 472 895 520 870 553 820 c 1
 562 820 l 1
 576 909 l 1
 587 918 l 1
214 595 m 0
 180 490 163 398 163 317 c 128
 163 236 167 186 175 165 c 128
 183 144 200 134 227 134 c 0
 275 134 330 185 393 286 c 1
 456 387 500 512 527 660 c 1
 517 688 498 713 468 736 c 128
 438 759 408 770 376 770 c 128
 344 770 314 754 284 722 c 128
 254 690 231 648 214 595 c 0
507 1224 m 1
 681 1043 l 1
 632 1008 l 1
 472 1115 l 1
 463 1115 l 1
 325 1006 l 1
 288 1036 l 1
 453 1212 l 1
 507 1224 l 1
EndSplineSet
EndChar

StartChar: atilde
Encoding: 227 227 163
Width: 839
VWidth: 1655
GlyphClass: 2
Flags: HMW
LayerCount: 2
Fore
SplineSet
587 918 m 1
 706 881 l 1
 634 491 l 1
 604 253 l 1
 599 214 597 186 597 168 c 0
 597 133 612 116 641 116 c 0
 659 116 683 133 713 166 c 128
 743 199 771 236 794 275 c 1
 835 240 l 1
 798 147 758 79 714 35 c 128
 670 -9 613 -31 543 -31 c 0
 510 -31 484 -18 466 6 c 128
 448 30 440 66 440 113 c 0
 440 161 452 219 476 287 c 1
 463 287 l 1
 428 203 382 131 325 70 c 128
 268 9 212 -21 157 -21 c 128
 102 -21 63 0 41 41 c 128
 19 82 8 143 8 225 c 128
 8 307 27 401 65 505 c 128
 103 609 154 701 218 779 c 128
 282 857 346 895 409 895 c 128
 472 895 520 870 553 820 c 1
 562 820 l 1
 576 909 l 1
 587 918 l 1
214 595 m 0
 180 490 163 398 163 317 c 128
 163 236 167 186 175 165 c 128
 183 144 200 134 227 134 c 0
 275 134 330 185 393 286 c 1
 456 387 500 512 527 660 c 1
 517 688 498 713 468 736 c 128
 438 759 408 770 376 770 c 128
 344 770 314 754 284 722 c 128
 254 690 231 648 214 595 c 0
353 1066 m 2
 336 1066 317 1050 295 1019 c 1
 258 1027 l 1
 260 1034 263 1044 267 1058 c 128
 271 1072 278 1089 291 1110 c 0
 316 1149 344 1169 377 1168 c 2
 383 1168 l 1
 385 1166 387 1166 390 1166 c 2
 608 1137 l 1
 611 1137 l 2
 625 1137 644 1151 667 1178 c 1
 714 1176 l 1
 683 1082 640 1035 585 1036 c 2
 574 1036 l 1
 355 1066 l 1
 353 1066 l 2
EndSplineSet
EndChar

StartChar: adieresis
Encoding: 228 228 164
Width: 839
VWidth: 1655
GlyphClass: 2
Flags: HMW
LayerCount: 2
Fore
SplineSet
587 918 m 1
 706 881 l 1
 634 491 l 1
 604 253 l 1
 599 214 597 186 597 168 c 0
 597 133 612 116 641 116 c 0
 659 116 683 133 713 166 c 128
 743 199 771 236 794 275 c 1
 835 240 l 1
 798 147 758 79 714 35 c 128
 670 -9 613 -31 543 -31 c 0
 510 -31 484 -18 466 6 c 128
 448 30 440 66 440 113 c 0
 440 161 452 219 476 287 c 1
 463 287 l 1
 428 203 382 131 325 70 c 128
 268 9 212 -21 157 -21 c 128
 102 -21 63 0 41 41 c 128
 19 82 8 143 8 225 c 128
 8 307 27 401 65 505 c 128
 103 609 154 701 218 779 c 128
 282 857 346 895 409 895 c 128
 472 895 520 870 553 820 c 1
 562 820 l 1
 576 909 l 1
 587 918 l 1
214 595 m 0
 180 490 163 398 163 317 c 128
 163 236 167 186 175 165 c 128
 183 144 200 134 227 134 c 0
 275 134 330 185 393 286 c 1
 456 387 500 512 527 660 c 1
 517 688 498 713 468 736 c 128
 438 759 408 770 376 770 c 128
 344 770 314 754 284 722 c 128
 254 690 231 648 214 595 c 0
676 1165 m 128
 693 1150 701 1132 701 1110 c 128
 701 1088 693 1071 676 1055 c 128
 659 1039 638 1032 615 1032 c 128
 592 1032 574 1039 557 1055 c 128
 540 1071 532 1089 532 1111 c 128
 532 1133 540 1151 557 1166 c 128
 574 1181 592 1187 615 1187 c 128
 638 1187 659 1180 676 1165 c 128
412 1165 m 128
 429 1150 437 1132 437 1110 c 128
 437 1088 429 1070 412 1055 c 128
 395 1040 375 1032 352 1032 c 128
 329 1032 310 1039 294 1055 c 128
 278 1071 270 1089 270 1111 c 128
 270 1133 278 1151 294 1166 c 128
 310 1181 329 1187 352 1187 c 128
 375 1187 395 1180 412 1165 c 128
EndSplineSet
EndChar

StartChar: aring
Encoding: 229 229 165
Width: 839
VWidth: 1655
GlyphClass: 2
Flags: HMW
LayerCount: 2
Fore
SplineSet
587 918 m 1
 706 881 l 1
 634 491 l 1
 604 253 l 1
 599 214 597 186 597 168 c 0
 597 133 612 116 641 116 c 0
 659 116 683 133 713 166 c 128
 743 199 771 236 794 275 c 1
 835 240 l 1
 798 147 758 79 714 35 c 128
 670 -9 613 -31 543 -31 c 0
 510 -31 484 -18 466 6 c 128
 448 30 440 66 440 113 c 0
 440 161 452 219 476 287 c 1
 463 287 l 1
 428 203 382 131 325 70 c 128
 268 9 212 -21 157 -21 c 128
 102 -21 63 0 41 41 c 128
 19 82 8 143 8 225 c 128
 8 307 27 401 65 505 c 128
 103 609 154 701 218 779 c 128
 282 857 346 895 409 895 c 128
 472 895 520 870 553 820 c 1
 562 820 l 1
 576 909 l 1
 587 918 l 1
214 595 m 0
 180 490 163 398 163 317 c 128
 163 236 167 186 175 165 c 128
 183 144 200 134 227 134 c 0
 275 134 330 185 393 286 c 1
 456 387 500 512 527 660 c 1
 517 688 498 713 468 736 c 128
 438 759 408 770 376 770 c 128
 344 770 314 754 284 722 c 128
 254 690 231 648 214 595 c 0
420 1262 m 128
 405 1241 397 1215 397 1182 c 128
 397 1149 406 1120 423 1095 c 128
 440 1070 462 1058 491 1058 c 0
 547 1058 575 1095 574 1170 c 0
 574 1205 566 1234 548 1258 c 128
 530 1282 509 1294 482 1294 c 128
 455 1294 435 1283 420 1262 c 128
602 1296 m 128
 630 1267 644 1229 644 1182 c 128
 644 1135 628 1096 597 1062 c 128
 566 1028 526 1011 480 1011 c 128
 434 1011 397 1026 369 1056 c 128
 341 1086 327 1124 327 1171 c 128
 327 1218 343 1258 375 1291 c 128
 407 1324 446 1340 492 1340 c 128
 538 1340 574 1325 602 1296 c 128
EndSplineSet
EndChar

StartChar: ae
Encoding: 230 230 166
Width: 1130
VWidth: 1655
GlyphClass: 2
Flags: HMW
LayerCount: 2
Fore
SplineSet
892 897 m 0
 944 897 985 881 1014 850 c 128
 1043 819 1058 775 1058 718 c 128
 1058 661 1035 604 989 544 c 128
 943 484 888 434 822 393 c 128
 756 352 693 323 632 305 c 1
 633 235 646 184 672 152 c 128
 698 120 734 104 781 104 c 0
 868 104 941 151 1001 246 c 1
 1037 214 l 1
 1015 148 975 91 916 42 c 128
 857 -7 791 -31 720 -31 c 128
 649 -31 592 -8 549 39 c 128
 506 86 482 151 476 235 c 1
 434 159 388 97 339 50 c 128
 290 3 240 -21 191 -21 c 0
 95 -21 47 59 47 218 c 0
 47 305 66 400 104 505 c 128
 142 610 195 701 259 779 c 128
 323 857 389 895 458 895 c 0
 493 895 526 879 555 847 c 128
 584 815 604 775 616 726 c 1
 699 840 791 897 892 897 c 0
265 628 m 128
 247 587 232 537 220 479 c 128
 208 421 202 360 202 294 c 128
 202 228 206 186 214 165 c 128
 222 144 239 134 265 134 c 0
 313 134 369 185 432 286 c 1
 495 387 539 512 566 660 c 1
 556 688 537 713 507 736 c 128
 477 759 449 770 420 770 c 128
 391 770 361 757 333 730 c 128
 305 703 283 669 265 628 c 128
833 512 m 128
 882 571 906 632 906 696 c 128
 906 760 880 791 827 791 c 0
 717 791 652 653 634 377 c 1
 717 408 784 453 833 512 c 128
EndSplineSet
EndChar

StartChar: ccedilla
Encoding: 231 231 167
Width: 601
VWidth: 1655
GlyphClass: 2
Flags: HMW
LayerCount: 2
Fore
SplineSet
290 -75 m 1
 349 -126 378 -174 377 -221 c 0
 377 -290 312 -343 181 -381 c 1
 162 -323 l 1
 218 -303 246 -276 246 -242 c 0
 246 -215 222 -179 174 -134 c 1
 248 -31 l 1
 186 -25 142 -19 118 -8 c 128
 94 3 77 15 65 30 c 128
 53 45 42 70 28 105 c 128
 14 140 8 206 8 302 c 128
 8 398 20 480 44 549 c 128
 68 618 100 677 138 727 c 128
 176 777 220 817 269 847 c 128
 318 877 370 893 422 893 c 128
 474 893 516 878 548 847 c 128
 580 816 595 778 595 732 c 128
 595 686 584 653 562 632 c 128
 540 611 505 598 456 592 c 1
 456 602 453 625 446 663 c 0
 433 732 413 774 386 790 c 0
 376 795 366 797 354 796 c 0
 294 796 248 760 217 687 c 128
 186 614 170 521 170 411 c 128
 170 301 183 221 211 172 c 128
 239 123 286 98 353 98 c 2
 355 98 l 2
 387 98 418 110 450 133 c 128
 482 156 509 188 530 227 c 1
 566 195 l 1
 553 146 523 101 477 59 c 128
 431 17 380 -11 323 -24 c 1
 290 -75 l 1
EndSplineSet
EndChar

StartChar: egrave
Encoding: 232 232 168
Width: 598
VWidth: 1655
GlyphClass: 2
Flags: HMW
LayerCount: 2
Fore
SplineSet
548 849 m 128
 578 817 592 777 592 726 c 0
 592 630 543 547 444 477 c 1
 361 418 268 373 167 341 c 1
 171 183 225 104 330 104 c 0
 368 104 405 118 441 144 c 128
 477 170 508 204 536 246 c 1
 573 214 l 1
 550 147 508 89 450 41 c 128
 392 -7 325 -31 249 -31 c 128
 173 -31 115 -2 72 56 c 128
 29 114 8 193 8 293 c 128
 8 393 27 488 66 580 c 128
 105 672 157 749 222 808 c 128
 287 867 354 897 425 897 c 0
 477 897 518 881 548 849 c 128
440 698 m 0
 440 760 413 791 360 790 c 0
 248 790 184 664 168 414 c 1
 349 481 440 576 440 698 c 0
241 1315 m 1
 354 1351 l 1
 484 1024 l 1
 427 990 l 1
 241 1315 l 1
EndSplineSet
EndChar

StartChar: eacute
Encoding: 233 233 169
Width: 598
VWidth: 1655
GlyphClass: 2
Flags: HMW
LayerCount: 2
Fore
SplineSet
548 849 m 128
 578 817 592 777 592 726 c 0
 592 630 543 547 444 477 c 1
 361 418 268 373 167 341 c 1
 171 183 225 104 330 104 c 0
 368 104 405 118 441 144 c 128
 477 170 508 204 536 246 c 1
 573 214 l 1
 550 147 508 89 450 41 c 128
 392 -7 325 -31 249 -31 c 128
 173 -31 115 -2 72 56 c 128
 29 114 8 193 8 293 c 128
 8 393 27 488 66 580 c 128
 105 672 157 749 222 808 c 128
 287 867 354 897 425 897 c 0
 477 897 518 881 548 849 c 128
440 698 m 0
 440 760 413 791 360 790 c 0
 248 790 184 664 168 414 c 1
 349 481 440 576 440 698 c 0
662 1320 m 1
 483 1010 l 1
 432 1041 l 1
 551 1359 l 1
 662 1320 l 1
EndSplineSet
EndChar

StartChar: ecircumflex
Encoding: 234 234 170
Width: 598
VWidth: 1655
GlyphClass: 2
Flags: HMW
LayerCount: 2
Fore
SplineSet
548 849 m 128
 578 817 592 777 592 726 c 0
 592 630 543 547 444 477 c 1
 361 418 268 373 167 341 c 1
 171 183 225 104 330 104 c 0
 368 104 405 118 441 144 c 128
 477 170 508 204 536 246 c 1
 573 214 l 1
 550 147 508 89 450 41 c 128
 392 -7 325 -31 249 -31 c 128
 173 -31 115 -2 72 56 c 128
 29 114 8 193 8 293 c 128
 8 393 27 488 66 580 c 128
 105 672 157 749 222 808 c 128
 287 867 354 897 425 897 c 0
 477 897 518 881 548 849 c 128
440 698 m 0
 440 760 413 791 360 790 c 0
 248 790 184 664 168 414 c 1
 349 481 440 576 440 698 c 0
463 1236 m 1
 637 1055 l 1
 589 1019 l 1
 429 1127 l 1
 419 1127 l 1
 282 1018 l 1
 244 1047 l 1
 409 1224 l 1
 463 1236 l 1
EndSplineSet
EndChar

StartChar: edieresis
Encoding: 235 235 171
Width: 598
VWidth: 1655
GlyphClass: 2
Flags: HMW
LayerCount: 2
Fore
SplineSet
548 849 m 128
 578 817 592 777 592 726 c 0
 592 630 543 547 444 477 c 1
 361 418 268 373 167 341 c 1
 171 183 225 104 330 104 c 0
 368 104 405 118 441 144 c 128
 477 170 508 204 536 246 c 1
 573 214 l 1
 550 147 508 89 450 41 c 128
 392 -7 325 -31 249 -31 c 128
 173 -31 115 -2 72 56 c 128
 29 114 8 193 8 293 c 128
 8 393 27 488 66 580 c 128
 105 672 157 749 222 808 c 128
 287 867 354 897 425 897 c 0
 477 897 518 881 548 849 c 128
440 698 m 0
 440 760 413 791 360 790 c 0
 248 790 184 664 168 414 c 1
 349 481 440 576 440 698 c 0
631 1177 m 128
 648 1162 657 1144 657 1122 c 128
 657 1100 648 1082 631 1066 c 128
 614 1050 595 1043 572 1043 c 128
 549 1043 529 1050 513 1066 c 128
 497 1082 489 1100 489 1122 c 128
 489 1145 497 1163 513 1178 c 128
 529 1193 549 1199 572 1199 c 128
 595 1199 614 1192 631 1177 c 128
368 1177 m 128
 385 1162 393 1143 393 1121 c 128
 393 1099 385 1081 368 1066 c 128
 351 1051 333 1043 310 1043 c 128
 287 1043 267 1050 251 1066 c 128
 235 1082 227 1100 227 1122 c 128
 227 1145 235 1163 251 1178 c 128
 267 1193 287 1199 310 1199 c 128
 333 1199 351 1192 368 1177 c 128
EndSplineSet
EndChar

StartChar: igrave
Encoding: 236 236 172
Width: 584
VWidth: 1655
GlyphClass: 2
Flags: HMW
LayerCount: 2
Fore
SplineSet
348 254 m 1
 344 225 343 201 343 181 c 0
 343 142 354 123 377 123 c 128
 400 123 427 134 459 157 c 128
 491 180 517 209 537 246 c 1
 579 217 l 1
 519 57 423 -23 291 -23 c 0
 250 -23 220 -10 203 15 c 128
 186 40 178 71 178 108 c 128
 178 145 182 208 191 296 c 1
 227 611 l 2
 229 634 230 656 230 676 c 0
 230 728 218 754 194 754 c 128
 170 754 125 702 56 599 c 1
 8 631 l 1
 37 707 80 772 136 826 c 128
 192 880 247 906 302 906 c 0
 364 906 395 859 393 766 c 0
 393 758 388 692 376 569 c 1
 348 254 l 1
93 1331 m 1
 205 1367 l 1
 334 1041 l 1
 279 1006 l 1
 93 1331 l 1
EndSplineSet
EndChar

StartChar: iacute
Encoding: 237 237 173
Width: 584
VWidth: 1655
GlyphClass: 2
Flags: HMW
LayerCount: 2
Fore
SplineSet
348 254 m 1
 344 225 343 201 343 181 c 0
 343 142 354 123 377 123 c 128
 400 123 427 134 459 157 c 128
 491 180 517 209 537 246 c 1
 579 217 l 1
 519 57 423 -23 291 -23 c 0
 250 -23 220 -10 203 15 c 128
 186 40 178 71 178 108 c 128
 178 145 182 208 191 296 c 1
 227 611 l 2
 229 634 230 656 230 676 c 0
 230 728 218 754 194 754 c 128
 170 754 125 702 56 599 c 1
 8 631 l 1
 37 707 80 772 136 826 c 128
 192 880 247 906 302 906 c 0
 364 906 395 859 393 766 c 0
 393 758 388 692 376 569 c 1
 348 254 l 1
514 1336 m 1
 332 1026 l 1
 284 1057 l 1
 402 1375 l 1
 514 1336 l 1
EndSplineSet
EndChar

StartChar: icircumflex
Encoding: 238 238 174
Width: 584
VWidth: 1655
GlyphClass: 2
Flags: HMW
LayerCount: 2
Fore
SplineSet
348 254 m 1
 344 225 343 201 343 181 c 0
 343 142 354 123 377 123 c 128
 400 123 427 134 459 157 c 128
 491 180 517 209 537 246 c 1
 579 217 l 1
 519 57 423 -23 291 -23 c 0
 250 -23 220 -10 203 15 c 128
 186 40 178 71 178 108 c 128
 178 145 182 208 191 296 c 1
 227 611 l 2
 229 634 230 656 230 676 c 0
 230 728 218 754 194 754 c 128
 170 754 125 702 56 599 c 1
 8 631 l 1
 37 707 80 772 136 826 c 128
 192 880 247 906 302 906 c 0
 364 906 395 859 393 766 c 0
 393 758 388 692 376 569 c 1
 348 254 l 1
313 1252 m 1
 489 1071 l 1
 440 1036 l 1
 280 1142 l 1
 270 1142 l 1
 132 1034 l 1
 96 1064 l 1
 261 1239 l 1
 313 1252 l 1
EndSplineSet
EndChar

StartChar: idieresis
Encoding: 239 239 175
Width: 584
VWidth: 1655
GlyphClass: 2
Flags: HMW
LayerCount: 2
Fore
SplineSet
348 254 m 1
 344 225 343 201 343 181 c 0
 343 142 354 123 377 123 c 128
 400 123 427 134 459 157 c 128
 491 180 517 209 537 246 c 1
 579 217 l 1
 519 57 423 -23 291 -23 c 0
 250 -23 220 -10 203 15 c 128
 186 40 178 71 178 108 c 128
 178 145 182 208 191 296 c 1
 227 611 l 2
 229 634 230 656 230 676 c 0
 230 728 218 754 194 754 c 128
 170 754 125 702 56 599 c 1
 8 631 l 1
 37 707 80 772 136 826 c 128
 192 880 247 906 302 906 c 0
 364 906 395 859 393 766 c 0
 393 758 388 692 376 569 c 1
 348 254 l 1
483 1193 m 128
 501 1178 509 1160 509 1138 c 128
 509 1116 501 1099 483 1083 c 128
 465 1067 446 1060 423 1060 c 128
 400 1060 380 1067 363 1083 c 128
 346 1099 339 1117 339 1139 c 128
 339 1161 346 1179 363 1194 c 128
 380 1209 400 1215 423 1215 c 128
 446 1215 465 1208 483 1193 c 128
219 1193 m 128
 236 1178 244 1160 244 1138 c 128
 244 1116 236 1098 219 1083 c 128
 202 1068 183 1060 160 1060 c 128
 137 1060 117 1067 101 1083 c 128
 85 1099 78 1117 78 1139 c 128
 78 1161 85 1179 101 1194 c 128
 117 1209 137 1215 160 1215 c 128
 183 1215 202 1208 219 1193 c 128
EndSplineSet
EndChar

StartChar: eth
Encoding: 240 240 176
Width: 933
VWidth: 1655
GlyphClass: 2
Flags: HMW
LayerCount: 2
Fore
SplineSet
759 1085 m 1
 840 951 880 792 881 608 c 0
 881 389 828 221 722 105 c 0
 642 18 550 -26 446 -26 c 0
 377 -26 319 -9 272 24 c 0
 179 89 133 198 132 353 c 0
 132 382 133 411 137 442 c 1
 154 577 202 683 283 762 c 128
 364 841 458 881 566 881 c 0
 597 881 626 873 652 858 c 128
 678 843 694 821 701 791 c 1
 707 791 l 1
 695 853 668 939 625 1048 c 1
 418 1008 l 1
 437 1085 l 1
 597 1117 l 1
 574 1164 538 1218 489 1277 c 1
 597 1277 l 1
 648 1234 689 1190 721 1145 c 1
 862 1176 l 1
 843 1101 l 1
 759 1085 l 1
538 790 m 2
 472 790 421 766 384 717 c 128
 347 668 322 592 308 489 c 0
 303 457 301 420 303 377 c 0
 303 280 318 205 349 151 c 128
 380 97 426 70 487 70 c 0
 605 70 678 185 706 416 c 0
 710 445 711 474 711 502 c 0
 711 587 696 656 665 708 c 128
 634 760 594 787 545 790 c 1
 538 790 l 2
EndSplineSet
EndChar

StartChar: ntilde
Encoding: 241 241 177
Width: 998
VWidth: 1655
GlyphClass: 2
Flags: HMW
LayerCount: 2
Fore
SplineSet
349 344 m 1
 345 207 332 112 306 56 c 128
 280 0 238 -28 179 -28 c 0
 177 -28 163 -27 137 -24 c 1
 123 3 l 1
 205 388 l 1
 227 620 l 2
 229 648 230 673 230 696 c 0
 230 745 218 769 193 768 c 0
 180 768 160 751 131 718 c 128
 102 685 77 650 56 613 c 1
 8 651 l 1
 35 724 77 786 133 840 c 128
 189 894 247 921 308 921 c 0
 360 921 386 887 385 818 c 0
 385 788 381 753 372 713 c 0
 362 672 357 644 354 627 c 0
 346 592 343 574 344 573 c 1
 355 567 l 1
 385 658 430 737 489 801 c 128
 548 865 604 897 657 897 c 128
 710 897 750 883 776 856 c 128
 802 829 815 794 815 750 c 128
 815 706 812 662 806 615 c 1
 762 253 l 2
 757 218 755 195 755 181 c 0
 755 141 767 121 790 121 c 128
 813 121 841 133 873 156 c 128
 905 179 931 209 951 246 c 1
 994 216 l 1
 934 56 833 -24 690 -24 c 0
 625 -24 592 18 592 101 c 0
 592 112 599 177 613 295 c 2
 636 488 l 2
 646 571 650 625 651 649 c 0
 651 698 632 722 595 721 c 0
 490 721 408 595 349 344 c 1
822 1203 m 1
 791 1109 748 1062 695 1064 c 2
 683 1064 l 1
 465 1094 l 1
 461 1094 l 2
 441 1094 425 1082 411 1058 c 1
 402 1047 l 1
 365 1055 l 1
 367 1062 370 1072 374 1086 c 128
 378 1100 386 1116 400 1136 c 0
 425 1175 453 1195 486 1196 c 2
 492 1196 l 1
 494 1194 495 1194 499 1194 c 2
 718 1164 l 1
 720 1164 l 2
 738 1164 755 1178 775 1205 c 1
 822 1203 l 1
EndSplineSet
EndChar

StartChar: ograve
Encoding: 242 242 178
Width: 672
VWidth: 1655
GlyphClass: 2
Flags: HMW
LayerCount: 2
Fore
SplineSet
79 79 m 128
 31 149 8 236 8 340 c 128
 8 444 26 537 61 620 c 128
 96 703 143 770 204 821 c 128
 265 872 332 897 405 897 c 128
 478 897 541 863 592 795 c 128
 643 727 669 644 669 546 c 128
 669 448 654 358 623 274 c 128
 592 190 546 119 485 61 c 128
 424 3 353 -26 272 -26 c 128
 191 -26 127 9 79 79 c 128
230 733 m 0
 176 672 149 581 149 460 c 0
 149 325 180 221 241 146 c 0
 271 109 304 89 341 90 c 128
 378 91 411 107 440 139 c 0
 496 204 524 300 524 424 c 0
 524 558 494 659 435 730 c 0
 405 765 371 783 333 784 c 128
 295 785 261 767 230 733 c 0
199 1298 m 1
 311 1336 l 1
 442 1008 l 1
 385 973 l 1
 199 1298 l 1
EndSplineSet
EndChar

StartChar: oacute
Encoding: 243 243 179
Width: 672
VWidth: 1655
GlyphClass: 2
Flags: HMW
LayerCount: 2
Fore
SplineSet
79 79 m 128
 31 149 8 236 8 340 c 128
 8 444 26 537 61 620 c 128
 96 703 143 770 204 821 c 128
 265 872 332 897 405 897 c 128
 478 897 541 863 592 795 c 128
 643 727 669 644 669 546 c 128
 669 448 654 358 623 274 c 128
 592 190 546 119 485 61 c 128
 424 3 353 -26 272 -26 c 128
 191 -26 127 9 79 79 c 128
230 733 m 0
 176 672 149 581 149 460 c 0
 149 325 180 221 241 146 c 0
 271 109 304 89 341 90 c 128
 378 91 411 107 440 139 c 0
 496 204 524 300 524 424 c 0
 524 558 494 659 435 730 c 0
 405 765 371 783 333 784 c 128
 295 785 261 767 230 733 c 0
620 1304 m 1
 440 994 l 1
 390 1024 l 1
 510 1342 l 1
 620 1304 l 1
EndSplineSet
EndChar

StartChar: ocircumflex
Encoding: 244 244 180
Width: 672
VWidth: 1655
GlyphClass: 2
Flags: HMW
LayerCount: 2
Fore
SplineSet
79 79 m 128
 31 149 8 236 8 340 c 128
 8 444 26 537 61 620 c 128
 96 703 143 770 204 821 c 128
 265 872 332 897 405 897 c 128
 478 897 541 863 592 795 c 128
 643 727 669 644 669 546 c 128
 669 448 654 358 623 274 c 128
 592 190 546 119 485 61 c 128
 424 3 353 -26 272 -26 c 128
 191 -26 127 9 79 79 c 128
230 733 m 0
 176 672 149 581 149 460 c 0
 149 325 180 221 241 146 c 0
 271 109 304 89 341 90 c 128
 378 91 411 107 440 139 c 0
 496 204 524 300 524 424 c 0
 524 558 494 659 435 730 c 0
 405 765 371 783 333 784 c 128
 295 785 261 767 230 733 c 0
421 1220 m 1
 595 1039 l 1
 546 1003 l 1
 386 1111 l 1
 377 1111 l 1
 240 1001 l 1
 202 1031 l 1
 367 1207 l 1
 421 1220 l 1
EndSplineSet
EndChar

StartChar: otilde
Encoding: 245 245 181
Width: 672
VWidth: 1655
GlyphClass: 2
Flags: HMW
LayerCount: 2
Fore
SplineSet
79 79 m 128
 31 149 8 236 8 340 c 128
 8 444 26 537 61 620 c 128
 96 703 143 770 204 821 c 128
 265 872 332 897 405 897 c 128
 478 897 541 863 592 795 c 128
 643 727 669 644 669 546 c 128
 669 448 654 358 623 274 c 128
 592 190 546 119 485 61 c 128
 424 3 353 -26 272 -26 c 128
 191 -26 127 9 79 79 c 128
230 733 m 0
 176 672 149 581 149 460 c 0
 149 325 180 221 241 146 c 0
 271 109 304 89 341 90 c 128
 378 91 411 107 440 139 c 0
 496 204 524 300 524 424 c 0
 524 558 494 659 435 730 c 0
 405 765 371 783 333 784 c 128
 295 785 261 767 230 733 c 0
628 1171 m 1
 597 1077 554 1030 500 1031 c 2
 489 1031 l 1
 270 1062 l 1
 267 1062 l 2
 247 1062 231 1050 217 1026 c 1
 209 1015 l 1
 171 1022 l 1
 173 1029 176 1039 180 1053 c 128
 184 1067 192 1084 205 1105 c 0
 230 1144 258 1164 291 1163 c 2
 298 1163 l 1
 300 1161 301 1161 305 1161 c 2
 522 1132 l 1
 525 1132 l 2
 543 1132 561 1146 581 1173 c 1
 628 1171 l 1
EndSplineSet
EndChar

StartChar: odieresis
Encoding: 246 246 182
Width: 672
VWidth: 1655
GlyphClass: 2
Flags: HMW
LayerCount: 2
Fore
SplineSet
79 79 m 128
 31 149 8 236 8 340 c 128
 8 444 26 537 61 620 c 128
 96 703 143 770 204 821 c 128
 265 872 332 897 405 897 c 128
 478 897 541 863 592 795 c 128
 643 727 669 644 669 546 c 128
 669 448 654 358 623 274 c 128
 592 190 546 119 485 61 c 128
 424 3 353 -26 272 -26 c 128
 191 -26 127 9 79 79 c 128
230 733 m 0
 176 672 149 581 149 460 c 0
 149 325 180 221 241 146 c 0
 271 109 304 89 341 90 c 128
 378 91 411 107 440 139 c 0
 496 204 524 300 524 424 c 0
 524 558 494 659 435 730 c 0
 405 765 371 783 333 784 c 128
 295 785 261 767 230 733 c 0
589 1160 m 128
 607 1145 615 1127 615 1105 c 128
 615 1083 607 1066 589 1050 c 128
 571 1034 552 1027 529 1027 c 128
 506 1027 487 1034 470 1050 c 128
 453 1066 446 1084 446 1106 c 128
 446 1128 453 1146 470 1161 c 128
 487 1176 506 1182 529 1182 c 128
 552 1182 571 1175 589 1160 c 128
326 1160 m 128
 343 1145 351 1127 351 1105 c 128
 351 1083 343 1065 326 1050 c 128
 309 1035 291 1027 268 1027 c 128
 245 1027 225 1034 208 1050 c 128
 191 1066 184 1084 184 1106 c 128
 184 1128 191 1146 208 1161 c 128
 225 1176 245 1182 268 1182 c 128
 291 1182 309 1175 326 1160 c 128
EndSplineSet
EndChar

StartChar: divide
Encoding: 247 247 183
Width: 967
VWidth: 1655
GlyphClass: 2
Flags: HMW
LayerCount: 2
Fore
SplineSet
704 790 m 0
 704 782 704 777 702 773 c 1
 696 740 681 711 654 688 c 128
 627 665 598 653 567 653 c 128
 536 653 511 662 493 682 c 128
 475 702 467 720 467 740 c 128
 467 760 467 771 468 775 c 1
 472 806 487 832 513 853 c 128
 539 874 568 885 599 885 c 132
 630 885 655 876 675 857 c 128
 695 838 704 817 704 790 c 0
616 238 m 0
 616 230 616 225 615 221 c 1
 609 188 593 160 566 137 c 128
 539 114 509 103 479 103 c 128
 449 103 425 112 406 131 c 128
 387 150 378 168 378 188 c 128
 378 208 378 219 380 223 c 1
 384 254 399 280 426 301 c 128
 453 322 481 332 512 332 c 128
 543 332 567 323 587 305 c 128
 607 287 616 265 616 238 c 0
163 548 m 1
 959 548 l 1
 931 446 l 1
 136 446 l 1
 163 548 l 1
EndSplineSet
EndChar

StartChar: oslash
Encoding: 248 248 184
Width: 814
VWidth: 1655
GlyphClass: 2
Flags: HMW
LayerCount: 2
Fore
SplineSet
227 163 m 1
 261 114 297 89 337 90 c 128
 377 91 411 107 440 139 c 0
 496 204 524 300 524 424 c 0
 524 503 511 576 484 644 c 1
 227 163 l 1
230 733 m 0
 176 672 149 581 149 460 c 0
 149 377 162 301 189 233 c 1
 446 716 l 1
 415 761 379 784 338 784 c 128
 297 784 261 767 230 733 c 0
529 915 m 1
 658 923 l 1
 590 794 l 1
 642 727 668 645 669 547 c 128
 670 449 654 358 623 274 c 128
 592 190 546 119 485 61 c 128
 424 3 354 -26 275 -26 c 0
 236 -26 198 -17 163 2 c 1
 121 -77 l 1
 -8 -84 l 1
 81 80 l 1
 32 149 8 235 8 339 c 128
 8 443 26 537 61 620 c 128
 96 703 143 770 204 821 c 128
 265 872 330 897 400 897 c 0
 432 897 467 888 505 869 c 1
 529 915 l 1
EndSplineSet
EndChar

StartChar: ugrave
Encoding: 249 249 185
Width: 975
VWidth: 1655
GlyphClass: 2
Flags: HMW
LayerCount: 2
Fore
SplineSet
657 817 m 1
 680 872 719 900 776 900 c 0
 790 900 803 899 818 895 c 1
 834 867 l 1
 764 484 l 1
 747 284 l 2
 742 233 739 199 740 178 c 128
 741 157 743 143 749 135 c 128
 755 127 766 123 782 123 c 128
 798 123 821 139 852 170 c 128
 883 201 908 234 928 270 c 1
 967 242 l 1
 915 64 818 -25 674 -24 c 0
 615 -24 586 17 585 98 c 0
 585 139 594 194 613 263 c 1
 602 265 l 1
 569 174 527 102 478 51 c 128
 429 0 377 -26 324 -26 c 128
 271 -26 230 -12 204 16 c 128
 178 44 165 77 165 118 c 128
 165 159 168 205 174 256 c 1
 227 602 l 1
 232 637 234 661 233 676 c 0
 233 717 222 737 199 738 c 0
 168 738 120 689 56 592 c 1
 8 623 l 1
 37 699 80 765 136 819 c 128
 192 873 247 900 302 900 c 0
 367 900 400 857 398 770 c 0
 398 743 390 673 372 561 c 2
 344 385 l 1
 334 328 330 281 330 242 c 128
 330 203 333 179 342 167 c 128
 351 155 365 150 385 150 c 0
 433 150 476 179 515 237 c 1
 554 296 589 393 620 527 c 1
 622 668 634 764 657 817 c 1
359 1331 m 1
 472 1367 l 1
 602 1041 l 1
 545 1006 l 1
 359 1331 l 1
EndSplineSet
EndChar

StartChar: uacute
Encoding: 250 250 186
Width: 975
VWidth: 1655
GlyphClass: 2
Flags: HMW
LayerCount: 2
Fore
SplineSet
657 817 m 1
 680 872 719 900 776 900 c 0
 790 900 803 899 818 895 c 1
 834 867 l 1
 764 484 l 1
 747 284 l 2
 742 233 739 199 740 178 c 128
 741 157 743 143 749 135 c 128
 755 127 766 123 782 123 c 128
 798 123 821 139 852 170 c 128
 883 201 908 234 928 270 c 1
 967 242 l 1
 915 64 818 -25 674 -24 c 0
 615 -24 586 17 585 98 c 0
 585 139 594 194 613 263 c 1
 602 265 l 1
 569 174 527 102 478 51 c 128
 429 0 377 -26 324 -26 c 128
 271 -26 230 -12 204 16 c 128
 178 44 165 77 165 118 c 128
 165 159 168 205 174 256 c 1
 227 602 l 1
 232 637 234 661 233 676 c 0
 233 717 222 737 199 738 c 0
 168 738 120 689 56 592 c 1
 8 623 l 1
 37 699 80 765 136 819 c 128
 192 873 247 900 302 900 c 0
 367 900 400 857 398 770 c 0
 398 743 390 673 372 561 c 2
 344 385 l 1
 334 328 330 281 330 242 c 128
 330 203 333 179 342 167 c 128
 351 155 365 150 385 150 c 0
 433 150 476 179 515 237 c 1
 554 296 589 393 620 527 c 1
 622 668 634 764 657 817 c 1
780 1336 m 1
 600 1026 l 1
 550 1057 l 1
 670 1375 l 1
 780 1336 l 1
EndSplineSet
EndChar

StartChar: ucircumflex
Encoding: 251 251 187
Width: 975
VWidth: 1655
GlyphClass: 2
Flags: HMW
LayerCount: 2
Fore
SplineSet
657 817 m 1
 680 872 719 900 776 900 c 0
 790 900 803 899 818 895 c 1
 834 867 l 1
 764 484 l 1
 747 284 l 2
 742 233 739 199 740 178 c 128
 741 157 743 143 749 135 c 128
 755 127 766 123 782 123 c 128
 798 123 821 139 852 170 c 128
 883 201 908 234 928 270 c 1
 967 242 l 1
 915 64 818 -25 674 -24 c 0
 615 -24 586 17 585 98 c 0
 585 139 594 194 613 263 c 1
 602 265 l 1
 569 174 527 102 478 51 c 128
 429 0 377 -26 324 -26 c 128
 271 -26 230 -12 204 16 c 128
 178 44 165 77 165 118 c 128
 165 159 168 205 174 256 c 1
 227 602 l 1
 232 637 234 661 233 676 c 0
 233 717 222 737 199 738 c 0
 168 738 120 689 56 592 c 1
 8 623 l 1
 37 699 80 765 136 819 c 128
 192 873 247 900 302 900 c 0
 367 900 400 857 398 770 c 0
 398 743 390 673 372 561 c 2
 344 385 l 1
 334 328 330 281 330 242 c 128
 330 203 333 179 342 167 c 128
 351 155 365 150 385 150 c 0
 433 150 476 179 515 237 c 1
 554 296 589 393 620 527 c 1
 622 668 634 764 657 817 c 1
581 1252 m 1
 755 1071 l 1
 707 1036 l 1
 546 1142 l 1
 537 1142 l 1
 400 1034 l 1
 362 1064 l 1
 527 1239 l 1
 581 1252 l 1
EndSplineSet
EndChar

StartChar: udieresis
Encoding: 252 252 188
Width: 975
VWidth: 1655
GlyphClass: 2
Flags: HMW
LayerCount: 2
Fore
SplineSet
657 817 m 1
 680 872 719 900 776 900 c 0
 790 900 803 899 818 895 c 1
 834 867 l 1
 764 484 l 1
 747 284 l 2
 742 233 739 199 740 178 c 128
 741 157 743 143 749 135 c 128
 755 127 766 123 782 123 c 128
 798 123 821 139 852 170 c 128
 883 201 908 234 928 270 c 1
 967 242 l 1
 915 64 818 -25 674 -24 c 0
 615 -24 586 17 585 98 c 0
 585 139 594 194 613 263 c 1
 602 265 l 1
 569 174 527 102 478 51 c 128
 429 0 377 -26 324 -26 c 128
 271 -26 230 -12 204 16 c 128
 178 44 165 77 165 118 c 128
 165 159 168 205 174 256 c 1
 227 602 l 1
 232 637 234 661 233 676 c 0
 233 717 222 737 199 738 c 0
 168 738 120 689 56 592 c 1
 8 623 l 1
 37 699 80 765 136 819 c 128
 192 873 247 900 302 900 c 0
 367 900 400 857 398 770 c 0
 398 743 390 673 372 561 c 2
 344 385 l 1
 334 328 330 281 330 242 c 128
 330 203 333 179 342 167 c 128
 351 155 365 150 385 150 c 0
 433 150 476 179 515 237 c 1
 554 296 589 393 620 527 c 1
 622 668 634 764 657 817 c 1
749 1193 m 128
 767 1178 775 1160 775 1138 c 128
 775 1116 767 1099 749 1083 c 128
 731 1067 712 1060 689 1060 c 128
 666 1060 647 1067 631 1083 c 128
 615 1099 607 1117 607 1139 c 128
 607 1161 615 1179 631 1194 c 128
 647 1209 666 1215 689 1215 c 128
 712 1215 731 1208 749 1193 c 128
487 1193 m 128
 504 1178 512 1160 512 1138 c 128
 512 1116 504 1098 487 1083 c 128
 470 1068 451 1060 428 1060 c 128
 405 1060 385 1067 368 1083 c 128
 351 1099 344 1117 344 1139 c 128
 344 1161 351 1179 368 1194 c 128
 385 1209 405 1215 428 1215 c 128
 451 1215 470 1208 487 1193 c 128
EndSplineSet
EndChar

StartChar: yacute
Encoding: 253 253 189
Width: 835
VWidth: 1655
GlyphClass: 2
Flags: HMW
LayerCount: 2
Fore
SplineSet
57 592 m 1
 8 629 l 1
 33 700 70 764 122 819 c 128
 174 874 225 902 273 902 c 128
 321 902 357 885 382 852 c 128
 407 819 424 766 434 693 c 2
 495 205 l 1
 500 162 l 1
 509 162 l 1
 585 276 631 354 646 395 c 128
 661 436 669 467 672 490 c 128
 675 513 676 545 676 585 c 128
 676 625 662 671 635 723 c 128
 608 775 576 817 541 848 c 1
 554 864 572 877 596 889 c 128
 620 901 644 906 667 906 c 0
 712 906 750 886 783 846 c 128
 816 806 832 760 832 707 c 0
 832 616 807 524 758 429 c 128
 709 334 623 206 499 46 c 1
 486 -73 446 -174 380 -257 c 128
 314 -340 237 -381 150 -381 c 0
 112 -381 80 -370 52 -349 c 128
 24 -328 10 -302 10 -270 c 2
 10 -265 l 1
 13 -236 18 -213 27 -195 c 128
 36 -177 52 -160 75 -141 c 1
 126 -189 177 -213 226 -212 c 128
 275 -211 311 -198 334 -170 c 128
 357 -142 369 -93 369 -24 c 0
 369 13 366 57 359 109 c 2
 295 610 l 2
 289 652 279 685 261 710 c 128
 243 735 224 748 203 748 c 128
 182 748 160 733 133 703 c 128
 106 673 80 635 57 592 c 1
729 1336 m 1
 550 1026 l 1
 500 1057 l 1
 620 1375 l 1
 729 1336 l 1
EndSplineSet
EndChar

StartChar: thorn
Encoding: 254 254 190
Width: 968
VWidth: 1655
GlyphClass: 2
Flags: HMW
LayerCount: 2
Fore
SplineSet
88 -251 m 1
 233 887 l 1
 269 1145 l 1
 130 1171 l 1
 141 1246 l 1
 429 1269 l 1
 446 1248 l 1
 388 839 l 1
 320 560 l 1
 332 558 l 1
 369 652 412 730 463 791 c 128
 514 852 567 882 623 882 c 128
 679 882 725 852 762 790 c 128
 799 728 818 646 818 545 c 128
 818 444 803 355 774 278 c 128
 745 201 704 142 653 103 c 0
 556 27 446 -11 325 -13 c 1
 315 61 l 1
 357 66 390 71 415 79 c 128
 440 87 468 99 500 119 c 0
 532 139 557 164 577 195 c 0
 623 268 646 378 646 527 c 0
 646 596 639 645 626 676 c 128
 613 707 592 722 561 722 c 0
 510 722 457 673 404 574 c 1
 350 473 314 341 295 179 c 1
 232 -270 l 1
 414 -291 l 1
 397 -362 l 1
 -63 -362 l 1
 -44 -293 l 1
 88 -251 l 1
EndSplineSet
EndChar

StartChar: ydieresis
Encoding: 255 255 191
Width: 835
VWidth: 1655
GlyphClass: 2
Flags: HMW
LayerCount: 2
Fore
SplineSet
57 592 m 1
 8 629 l 1
 33 700 70 764 122 819 c 128
 174 874 225 902 273 902 c 128
 321 902 357 885 382 852 c 128
 407 819 424 766 434 693 c 2
 495 205 l 1
 500 162 l 1
 509 162 l 1
 585 276 631 354 646 395 c 128
 661 436 669 467 672 490 c 128
 675 513 676 545 676 585 c 128
 676 625 662 671 635 723 c 128
 608 775 576 817 541 848 c 1
 554 864 572 877 596 889 c 128
 620 901 644 906 667 906 c 0
 712 906 750 886 783 846 c 128
 816 806 832 760 832 707 c 0
 832 616 807 524 758 429 c 128
 709 334 623 206 499 46 c 1
 486 -73 446 -174 380 -257 c 128
 314 -340 237 -381 150 -381 c 0
 112 -381 80 -370 52 -349 c 128
 24 -328 10 -302 10 -270 c 2
 10 -265 l 1
 13 -236 18 -213 27 -195 c 128
 36 -177 52 -160 75 -141 c 1
 126 -189 177 -213 226 -212 c 128
 275 -211 311 -198 334 -170 c 128
 357 -142 369 -93 369 -24 c 0
 369 13 366 57 359 109 c 2
 295 610 l 2
 289 652 279 685 261 710 c 128
 243 735 224 748 203 748 c 128
 182 748 160 733 133 703 c 128
 106 673 80 635 57 592 c 1
700 1193 m 128
 717 1178 724 1160 724 1138 c 128
 724 1116 717 1099 700 1083 c 128
 683 1067 663 1060 640 1060 c 128
 617 1060 597 1067 581 1083 c 128
 565 1099 557 1117 557 1139 c 128
 557 1161 565 1179 581 1194 c 128
 597 1209 617 1215 640 1215 c 128
 663 1215 683 1208 700 1193 c 128
437 1193 m 128
 454 1178 461 1160 461 1138 c 128
 461 1116 454 1098 437 1083 c 128
 420 1068 400 1060 377 1060 c 128
 354 1060 335 1067 319 1083 c 128
 303 1099 295 1117 295 1139 c 128
 295 1161 303 1179 319 1194 c 128
 335 1209 354 1215 377 1215 c 128
 400 1215 420 1208 437 1193 c 128
EndSplineSet
EndChar

StartChar: Amacron
Encoding: 256 256 192
Width: 1214
VWidth: 1655
GlyphClass: 2
Flags: HMW
LayerCount: 2
Fore
SplineSet
768 505 m 1
 680 1062 l 1
 676 1062 l 1
 579 724 l 1
 550 627 530 564 520 536 c 1
 768 505 l 1
822 1271 m 1
 1032 132 l 1
 1210 81 l 1
 1187 0 l 1
 611 0 l 1
 634 72 l 1
 832 108 l 1
 781 430 l 1
 489 446 l 1
 440 310 399 215 366 157 c 128
 333 99 303 56 275 29 c 128
 247 2 212 -16 173 -24 c 1
 155 -26 146 -27 142 -28 c 0
 104 -28 69 -16 37 8 c 128
 5 32 -18 62 -31 101 c 1
 19 120 64 142 103 168 c 1
 172 213 236 274 295 349 c 0
 372 450 445 596 514 786 c 1
 569 947 613 1098 644 1241 c 1
 822 1271 l 1
541 1479 m 1
 973 1479 l 1
 961 1380 l 1
 529 1380 l 1
 541 1479 l 1
EndSplineSet
EndChar

StartChar: amacron
Encoding: 257 257 193
Width: 839
VWidth: 1655
GlyphClass: 2
Flags: HMW
LayerCount: 2
Fore
SplineSet
587 918 m 1
 706 881 l 1
 634 491 l 1
 604 253 l 1
 599 214 597 186 597 168 c 0
 597 133 612 116 641 116 c 0
 659 116 683 133 713 166 c 128
 743 199 771 236 794 275 c 1
 835 240 l 1
 798 147 758 79 714 35 c 128
 670 -9 613 -31 543 -31 c 0
 510 -31 484 -18 466 6 c 128
 448 30 440 66 440 113 c 0
 440 161 452 219 476 287 c 1
 463 287 l 1
 428 203 382 131 325 70 c 128
 268 9 212 -21 157 -21 c 128
 102 -21 63 0 41 41 c 128
 19 82 8 143 8 225 c 128
 8 307 27 401 65 505 c 128
 103 609 154 701 218 779 c 128
 282 857 346 895 409 895 c 128
 472 895 520 870 553 820 c 1
 562 820 l 1
 576 909 l 1
 587 918 l 1
214 595 m 0
 180 490 163 398 163 317 c 128
 163 236 167 186 175 165 c 128
 183 144 200 134 227 134 c 0
 275 134 330 185 393 286 c 1
 456 387 500 512 527 660 c 1
 517 688 498 713 468 736 c 128
 438 759 408 770 376 770 c 128
 344 770 314 754 284 722 c 128
 254 690 231 648 214 595 c 0
284 1127 m 1
 716 1127 l 1
 702 1027 l 1
 270 1027 l 1
 284 1127 l 1
EndSplineSet
EndChar

StartChar: Abreve
Encoding: 258 258 194
Width: 1214
VWidth: 1655
GlyphClass: 2
Flags: HMW
LayerCount: 2
Fore
SplineSet
768 505 m 1
 680 1062 l 1
 676 1062 l 1
 579 724 l 1
 550 627 530 564 520 536 c 1
 768 505 l 1
822 1271 m 1
 1032 132 l 1
 1210 81 l 1
 1187 0 l 1
 611 0 l 1
 634 72 l 1
 832 108 l 1
 781 430 l 1
 489 446 l 1
 440 310 399 215 366 157 c 128
 333 99 303 56 275 29 c 128
 247 2 212 -16 173 -24 c 1
 155 -26 146 -27 142 -28 c 0
 104 -28 69 -16 37 8 c 128
 5 32 -18 62 -31 101 c 1
 19 120 64 142 103 168 c 1
 172 213 236 274 295 349 c 0
 372 450 445 596 514 786 c 1
 569 947 613 1098 644 1241 c 1
 822 1271 l 1
557 1549 m 1
 602 1580 l 1
 610 1564 l 1
 621 1541 639 1521 663 1505 c 128
 687 1489 714 1482 743 1482 c 0
 802 1482 849 1510 882 1566 c 2
 892 1582 l 1
 931 1554 l 1
 925 1536 l 2
 909 1488 885 1450 854 1420 c 128
 823 1390 785 1375 741 1375 c 128
 697 1375 658 1390 626 1419 c 128
 594 1448 573 1486 561 1531 c 2
 557 1549 l 1
EndSplineSet
EndChar

StartChar: abreve
Encoding: 259 259 195
Width: 839
VWidth: 1655
GlyphClass: 2
Flags: HMW
LayerCount: 2
Fore
SplineSet
587 918 m 1
 706 881 l 1
 634 491 l 1
 604 253 l 1
 599 214 597 186 597 168 c 0
 597 133 612 116 641 116 c 0
 659 116 683 133 713 166 c 128
 743 199 771 236 794 275 c 1
 835 240 l 1
 798 147 758 79 714 35 c 128
 670 -9 613 -31 543 -31 c 0
 510 -31 484 -18 466 6 c 128
 448 30 440 66 440 113 c 0
 440 161 452 219 476 287 c 1
 463 287 l 1
 428 203 382 131 325 70 c 128
 268 9 212 -21 157 -21 c 128
 102 -21 63 0 41 41 c 128
 19 82 8 143 8 225 c 128
 8 307 27 401 65 505 c 128
 103 609 154 701 218 779 c 128
 282 857 346 895 409 895 c 128
 472 895 520 870 553 820 c 1
 562 820 l 1
 576 909 l 1
 587 918 l 1
214 595 m 0
 180 490 163 398 163 317 c 128
 163 236 167 186 175 165 c 128
 183 144 200 134 227 134 c 0
 275 134 330 185 393 286 c 1
 456 387 500 512 527 660 c 1
 517 688 498 713 468 736 c 128
 438 759 408 770 376 770 c 128
 344 770 314 754 284 722 c 128
 254 690 231 648 214 595 c 0
298 1197 m 1
 343 1228 l 1
 351 1212 l 1
 362 1189 380 1170 404 1154 c 128
 428 1138 455 1130 484 1130 c 0
 543 1130 590 1158 623 1213 c 2
 632 1229 l 1
 674 1202 l 1
 667 1182 l 2
 651 1134 627 1095 595 1066 c 128
 563 1037 525 1022 481 1022 c 128
 437 1022 399 1037 367 1067 c 128
 335 1097 314 1133 303 1178 c 2
 298 1197 l 1
EndSplineSet
EndChar

StartChar: Aogonek
Encoding: 260 260 196
Width: 1214
VWidth: 1655
GlyphClass: 2
Flags: HMW
LayerCount: 2
Fore
SplineSet
768 505 m 1
 680 1062 l 1
 676 1062 l 1
 579 724 l 1
 550 627 530 564 520 536 c 1
 768 505 l 1
1196 -315 m 1
 1161 -365 l 1
 1092 -357 1036 -338 993 -305 c 128
 950 -272 928 -234 928 -191 c 0
 928 -134 968 -71 1047 0 c 1
 611 0 l 1
 634 72 l 1
 832 108 l 1
 781 430 l 1
 489 446 l 1
 440 310 399 215 366 157 c 128
 333 99 303 56 275 29 c 128
 247 2 212 -16 173 -24 c 1
 155 -26 146 -27 142 -28 c 0
 104 -28 69 -16 37 8 c 128
 5 32 -18 62 -31 101 c 1
 19 120 64 142 103 168 c 1
 172 213 236 274 295 349 c 0
 372 450 445 596 514 786 c 1
 569 947 613 1098 644 1241 c 1
 822 1271 l 1
 1032 132 l 1
 1210 81 l 1
 1187 0 l 1
 1125 0 l 1
 1091 -57 1074 -101 1074 -132 c 0
 1075 -207 1115 -268 1196 -315 c 1
EndSplineSet
EndChar

StartChar: aogonek
Encoding: 261 261 197
Width: 839
VWidth: 1655
GlyphClass: 2
Flags: HMW
LayerCount: 2
Fore
SplineSet
214 595 m 0
 180 490 163 398 163 317 c 128
 163 236 167 186 175 165 c 128
 183 144 200 134 227 134 c 0
 275 134 330 185 393 286 c 1
 456 387 500 512 527 660 c 1
 517 688 498 713 468 736 c 128
 438 759 408 770 376 770 c 128
 344 770 314 754 284 722 c 128
 254 690 231 648 214 595 c 0
675 -332 m 1
 641 -381 l 1
 572 -373 516 -354 473 -321 c 128
 430 -288 408 -248 408 -199 c 128
 408 -150 443 -93 514 -28 c 1
 464 -15 439 29 440 106 c 0
 440 159 452 219 476 287 c 1
 463 287 l 1
 428 203 382 131 325 70 c 128
 268 9 212 -21 157 -21 c 128
 102 -21 63 0 41 41 c 128
 19 82 8 143 8 225 c 128
 8 307 27 401 65 505 c 128
 103 609 154 701 218 779 c 128
 282 857 346 895 409 895 c 128
 472 895 520 870 553 820 c 1
 562 820 l 1
 576 909 l 1
 587 918 l 1
 706 881 l 1
 634 491 l 1
 604 253 l 1
 599 214 597 186 597 168 c 0
 597 133 612 116 641 116 c 0
 659 116 683 133 713 166 c 128
 743 199 771 236 794 275 c 1
 835 240 l 1
 804 161 770 100 733 57 c 128
 696 14 652 -14 599 -26 c 1
 568 -79 553 -120 553 -149 c 0
 554 -224 594 -285 675 -332 c 1
EndSplineSet
EndChar

StartChar: Cacute
Encoding: 262 262 198
Width: 951
VWidth: 1655
GlyphClass: 2
Flags: HMW
LayerCount: 2
Fore
SplineSet
712 802 m 1
 721 844 725 893 725 949 c 128
 725 1005 709 1048 676 1081 c 1
 645 1118 600 1137 541 1135 c 1
 493 1133 449 1117 407 1087 c 128
 365 1057 332 1018 307 971 c 0
 264 894 239 785 230 641 c 0
 228 604 227 583 227 578 c 0
 227 405 271 278 359 196 c 0
 411 148 472 124 541 125 c 0
 583 125 623 133 662 149 c 128
 701 165 736 190 769 223 c 128
 802 256 825 285 841 310 c 1
 883 248 l 1
 869 213 849 177 820 142 c 0
 759 69 683 19 594 -10 c 0
 552 -23 510 -29 468 -30 c 128
 426 -31 384 -24 339 -12 c 1
 246 17 170 71 109 151 c 128
 48 231 16 332 10 455 c 1
 10 471 l 1
 8 477 8 482 8 488 c 0
 8 707 79 899 221 1064 c 1
 331 1192 461 1255 611 1254 c 0
 759 1254 862 1197 921 1085 c 1
 939 1055 947 1021 946 982 c 2
 946 971 l 1
 945 932 933 897 909 865 c 128
 885 833 858 814 829 806 c 128
 800 798 778 794 761 794 c 128
 744 794 728 796 712 802 c 1
825 1675 m 1
 646 1363 l 1
 595 1394 l 1
 716 1714 l 1
 825 1675 l 1
EndSplineSet
EndChar

StartChar: cacute
Encoding: 263 263 199
Width: 601
VWidth: 1655
GlyphClass: 2
Flags: HMW
LayerCount: 2
Fore
SplineSet
456 592 m 1
 456 602 453 625 446 663 c 0
 433 732 413 774 386 790 c 0
 376 795 366 797 354 796 c 0
 294 796 248 760 217 687 c 128
 186 614 170 522 170 412 c 128
 170 302 184 222 212 173 c 128
 240 124 287 99 353 99 c 2
 355 99 l 2
 387 99 418 111 450 134 c 128
 482 157 509 188 530 227 c 1
 566 195 l 1
 553 136 517 84 456 38 c 128
 395 -8 332 -31 265 -31 c 0
 181 -31 117 2 73 68 c 128
 29 134 8 222 8 332 c 0
 8 405 20 478 44 548 c 128
 68 618 100 677 138 727 c 128
 176 777 220 817 269 847 c 128
 318 877 370 893 422 893 c 128
 474 893 516 878 548 847 c 128
 580 816 595 778 595 732 c 128
 595 686 584 653 562 632 c 128
 540 611 505 598 456 592 c 1
676 1304 m 1
 497 994 l 1
 446 1024 l 1
 566 1342 l 1
 676 1304 l 1
EndSplineSet
EndChar

StartChar: Cdotaccent
Encoding: 266 266 200
Width: 951
VWidth: 1655
GlyphClass: 2
Flags: HMW
LayerCount: 2
Fore
SplineSet
712 802 m 1
 721 844 725 893 725 949 c 128
 725 1005 709 1048 676 1081 c 1
 645 1118 600 1137 541 1135 c 1
 493 1133 449 1117 407 1087 c 128
 365 1057 332 1018 307 971 c 0
 264 894 239 785 230 641 c 0
 228 604 227 583 227 578 c 0
 227 405 271 278 359 196 c 0
 411 148 472 124 541 125 c 0
 583 125 623 133 662 149 c 128
 701 165 736 190 769 223 c 128
 802 256 825 285 841 310 c 1
 883 248 l 1
 869 213 849 177 820 142 c 0
 759 69 683 19 594 -10 c 0
 552 -23 510 -29 468 -30 c 128
 426 -31 384 -24 339 -12 c 1
 246 17 170 71 109 151 c 128
 48 231 16 332 10 455 c 1
 10 471 l 1
 8 477 8 482 8 488 c 0
 8 707 79 899 221 1064 c 1
 331 1192 461 1255 611 1254 c 0
 759 1254 862 1197 921 1085 c 1
 939 1055 947 1021 946 982 c 2
 946 971 l 1
 945 932 933 897 909 865 c 128
 885 833 858 814 829 806 c 128
 800 798 778 794 761 794 c 128
 744 794 728 796 712 802 c 1
688 1570 m 128
 711 1549 722 1521 722 1489 c 128
 722 1457 711 1430 688 1406 c 128
 665 1382 637 1370 604 1370 c 128
 571 1370 544 1382 522 1406 c 128
 500 1430 488 1458 488 1490 c 128
 488 1522 499 1550 522 1571 c 128
 545 1592 572 1602 604 1602 c 128
 636 1602 665 1591 688 1570 c 128
EndSplineSet
EndChar

StartChar: cdotaccent
Encoding: 267 267 201
Width: 601
VWidth: 1655
GlyphClass: 2
Flags: HMW
LayerCount: 2
Fore
SplineSet
456 592 m 1
 456 602 453 625 446 663 c 0
 433 732 413 774 386 790 c 0
 376 795 366 797 354 796 c 0
 294 796 248 760 217 687 c 128
 186 614 170 522 170 412 c 128
 170 302 184 222 212 173 c 128
 240 124 287 99 353 99 c 2
 355 99 l 2
 387 99 418 111 450 134 c 128
 482 157 509 188 530 227 c 1
 566 195 l 1
 553 136 517 84 456 38 c 128
 395 -8 332 -31 265 -31 c 0
 181 -31 117 2 73 68 c 128
 29 134 8 222 8 332 c 0
 8 405 20 478 44 548 c 128
 68 618 100 677 138 727 c 128
 176 777 220 817 269 847 c 128
 318 877 370 893 422 893 c 128
 474 893 516 878 548 847 c 128
 580 816 595 778 595 732 c 128
 595 686 584 653 562 632 c 128
 540 611 505 598 456 592 c 1
539 1199 m 128
 562 1177 574 1150 574 1118 c 128
 574 1086 562 1059 539 1035 c 128
 516 1011 488 999 455 999 c 128
 422 999 395 1011 372 1035 c 128
 349 1059 338 1087 338 1119 c 128
 338 1151 349 1179 372 1200 c 128
 395 1221 423 1231 455 1231 c 128
 487 1231 516 1221 539 1199 c 128
EndSplineSet
EndChar

StartChar: Ccaron
Encoding: 268 268 202
Width: 951
VWidth: 1655
GlyphClass: 2
Flags: HMW
LayerCount: 2
Fore
SplineSet
712 802 m 1
 721 844 725 893 725 949 c 128
 725 1005 709 1048 676 1081 c 1
 645 1118 600 1137 541 1135 c 1
 493 1133 449 1117 407 1087 c 128
 365 1057 332 1018 307 971 c 0
 264 894 239 785 230 641 c 0
 228 604 227 583 227 578 c 0
 227 405 271 278 359 196 c 0
 411 148 472 124 541 125 c 0
 583 125 623 133 662 149 c 128
 701 165 736 190 769 223 c 128
 802 256 825 285 841 310 c 1
 883 248 l 1
 869 213 849 177 820 142 c 0
 759 69 683 19 594 -10 c 0
 552 -23 510 -29 468 -30 c 128
 426 -31 384 -24 339 -12 c 1
 246 17 170 71 109 151 c 128
 48 231 16 332 10 455 c 1
 10 471 l 1
 8 477 8 482 8 488 c 0
 8 707 79 899 221 1064 c 1
 331 1192 461 1255 611 1254 c 0
 759 1254 862 1197 921 1085 c 1
 939 1055 947 1021 946 982 c 2
 946 971 l 1
 945 932 933 897 909 865 c 128
 885 833 858 814 829 806 c 128
 800 798 778 794 761 794 c 128
 744 794 728 796 712 802 c 1
583 1372 m 1
 406 1534 l 1
 486 1593 l 1
 631 1453 l 1
 641 1453 l 1
 762 1590 l 1
 804 1561 l 1
 636 1385 l 1
 583 1372 l 1
EndSplineSet
EndChar

StartChar: ccaron
Encoding: 269 269 203
Width: 601
VWidth: 1655
GlyphClass: 2
Flags: HMW
LayerCount: 2
Fore
SplineSet
456 592 m 1
 456 602 453 625 446 663 c 0
 433 732 413 774 386 790 c 0
 376 795 366 797 354 796 c 0
 294 796 248 760 217 687 c 128
 186 614 170 522 170 412 c 128
 170 302 184 222 212 173 c 128
 240 124 287 99 353 99 c 2
 355 99 l 2
 387 99 418 111 450 134 c 128
 482 157 509 188 530 227 c 1
 566 195 l 1
 553 136 517 84 456 38 c 128
 395 -8 332 -31 265 -31 c 0
 181 -31 117 2 73 68 c 128
 29 134 8 222 8 332 c 0
 8 405 20 478 44 548 c 128
 68 618 100 677 138 727 c 128
 176 777 220 817 269 847 c 128
 318 877 370 893 422 893 c 128
 474 893 516 878 548 847 c 128
 580 816 595 778 595 732 c 128
 595 686 584 653 562 632 c 128
 540 611 505 598 456 592 c 1
434 1001 m 1
 258 1163 l 1
 336 1224 l 1
 483 1083 l 1
 492 1083 l 1
 613 1220 l 1
 655 1191 l 1
 488 1015 l 1
 434 1001 l 1
EndSplineSet
EndChar

StartChar: Dcaron
Encoding: 270 270 204
Width: 1388
VWidth: 1655
GlyphClass: 2
Flags: HMW
LayerCount: 2
Fore
SplineSet
434 106 m 1
 444 106 l 1
 448 104 458 104 479 104 c 128
 500 104 538 107 595 113 c 0
 735 126 852 160 946 218 c 128
 1040 276 1106 353 1143 450 c 1
 1168 515 1180 589 1180 672 c 0
 1180 755 1162 832 1127 904 c 1
 1102 957 1068 1001 1026 1037 c 128
 984 1073 925 1104 849 1132 c 128
 773 1160 713 1174 668 1175 c 128
 623 1176 587 1175 561 1171 c 1
 434 106 l 1
8 0 m 1
 28 77 l 1
 237 129 l 1
 364 1068 l 1
 147 1085 l 1
 168 1158 l 1
 333 1220 525 1251 743 1250 c 2
 817 1250 l 1
 995 1242 1129 1202 1220 1127 c 1
 1260 1094 1293 1055 1319 1009 c 0
 1362 932 1384 846 1383 752 c 0
 1383 727 1382 704 1378 681 c 1
 1360 507 1284 358 1150 234 c 0
 1025 119 868 47 680 18 c 0
 601 6 487 0 336 0 c 2
 8 0 l 1
866 1359 m 1
 690 1522 l 1
 768 1580 l 1
 915 1440 l 1
 925 1440 l 1
 1045 1577 l 1
 1087 1548 l 1
 920 1372 l 1
 866 1359 l 1
EndSplineSet
EndChar

StartChar: dcaron
Encoding: 271 271 205
Width: 835
VWidth: 1655
GlyphClass: 2
Flags: HMW
LayerCount: 2
Fore
SplineSet
167 295 m 2
 167 228 170 181 177 152 c 128
 184 123 198 109 223 109 c 0
 264 109 304 136 346 188 c 128
 388 240 424 310 455 398 c 128
 486 486 507 579 517 678 c 1
 486 743 442 776 385 775 c 0
 344 775 306 752 272 706 c 128
 238 660 211 601 193 530 c 128
 175 459 167 384 167 305 c 2
 167 295 l 2
608 284 m 1
 602 231 600 196 600 176 c 0
 600 140 614 122 641 123 c 0
 658 123 682 139 713 170 c 0
 745 201 770 234 790 270 c 1
 829 242 l 1
 777 64 679 -25 534 -24 c 0
 478 -24 450 17 450 98 c 0
 450 146 458 200 476 259 c 1
 463 263 l 1
 430 172 388 102 338 51 c 128
 288 0 234 -26 176 -26 c 128
 118 -26 75 -3 48 41 c 128
 21 85 8 146 8 225 c 128
 8 304 26 394 63 494 c 128
 100 594 151 684 217 763 c 128
 283 842 356 882 434 882 c 0
 486 882 517 872 527 851 c 1
 541 855 l 1
 561 1142 l 1
 427 1170 l 1
 437 1243 l 1
 712 1269 l 1
 731 1245 l 1
 608 284 l 1
270 1296 m 2
 284 1296 l 1
 325 1290 356 1262 376 1213 c 1
 384 1196 388 1177 386 1156 c 0
 386 1069 345 996 264 935 c 1
 227 905 186 879 141 858 c 1
 113 900 l 1
 130 908 150 921 172 939 c 128
 194 957 209 973 219 987 c 0
 239 1017 249 1047 249 1076 c 1
 246 1099 l 2
 242 1122 233 1141 218 1157 c 128
 203 1173 183 1187 158 1203 c 1
 166 1234 181 1256 203 1272 c 128
 225 1288 247 1296 270 1296 c 2
EndSplineSet
EndChar

StartChar: Dcroat
Encoding: 272 272 206
Width: 1298
VWidth: 1655
GlyphClass: 2
Flags: HMW
LayerCount: 2
Fore
SplineSet
488 551 m 1
 434 106 l 1
 444 106 l 1
 448 104 458 104 479 104 c 128
 500 104 538 107 595 113 c 0
 735 126 852 160 946 218 c 128
 1040 276 1106 353 1143 450 c 1
 1168 515 1180 589 1180 672 c 0
 1180 755 1162 832 1127 904 c 1
 1102 957 1068 1001 1026 1037 c 128
 984 1073 925 1104 849 1132 c 128
 773 1160 713 1174 668 1175 c 128
 623 1176 587 1175 561 1171 c 1
 499 649 l 1
 750 660 l 1
 722 561 l 1
 488 551 l 1
8 0 m 1
 28 77 l 1
 237 129 l 1
 293 541 l 1
 127 536 l 1
 153 634 l 1
 307 641 l 1
 364 1068 l 1
 147 1085 l 1
 168 1158 l 1
 333 1220 524 1251 741 1250 c 0
 781 1250 806 1250 817 1249 c 1
 997 1240 1131 1200 1220 1127 c 1
 1260 1094 1293 1055 1319 1009 c 0
 1362 932 1384 846 1383 752 c 0
 1383 727 1382 704 1378 681 c 1
 1360 507 1284 358 1150 234 c 0
 1025 119 868 47 680 18 c 0
 601 6 487 0 336 0 c 2
 8 0 l 1
EndSplineSet
EndChar

StartChar: dcroat
Encoding: 273 273 207
Width: 835
VWidth: 1655
GlyphClass: 2
Flags: HMW
LayerCount: 2
Fore
SplineSet
167 295 m 2
 167 228 170 181 177 152 c 128
 184 123 198 109 223 109 c 0
 264 109 304 136 346 188 c 128
 388 240 424 310 455 398 c 128
 486 486 507 579 517 678 c 1
 486 743 442 776 385 775 c 0
 344 775 306 752 272 706 c 128
 238 660 211 601 193 530 c 128
 175 459 167 384 167 305 c 2
 167 295 l 2
608 284 m 1
 602 231 600 196 600 176 c 0
 600 140 614 122 641 123 c 0
 658 123 682 139 713 170 c 0
 745 201 770 234 790 270 c 1
 829 242 l 1
 777 64 679 -25 534 -24 c 0
 478 -24 450 17 450 98 c 0
 450 146 458 200 476 259 c 1
 463 263 l 1
 430 172 388 102 338 51 c 128
 288 0 234 -26 176 -26 c 128
 118 -26 75 -3 48 41 c 128
 21 85 8 146 8 225 c 128
 8 304 26 394 63 494 c 128
 100 594 151 684 217 763 c 128
 283 842 356 882 434 882 c 0
 486 882 517 872 527 851 c 1
 541 855 l 1
 550 975 l 1
 364 975 l 1
 377 1058 l 1
 556 1058 l 1
 561 1142 l 1
 427 1170 l 1
 437 1243 l 1
 712 1269 l 1
 731 1245 l 1
 708 1058 l 1
 809 1058 l 1
 794 975 l 1
 698 975 l 1
 608 284 l 1
EndSplineSet
EndChar

StartChar: Emacron
Encoding: 274 274 208
Width: 1203
VWidth: 1655
GlyphClass: 2
Flags: HMW
LayerCount: 2
Fore
SplineSet
1058 0 m 1
 690 2 483 3 440 3 c 1
 8 -3 l 1
 31 80 l 1
 249 134 l 1
 374 1094 l 1
 147 1117 l 1
 167 1194 l 1
 240 1209 348 1221 493 1233 c 128
 638 1245 774 1250 900 1250 c 2
 973 1250 l 1
 1197 1246 l 1
 1117 835 l 1
 1031 848 l 1
 999 1111 l 1
 971 1117 l 1
 870 1136 747 1145 602 1143 c 2
 569 1143 l 1
 514 680 l 1
 969 712 l 1
 935 569 l 1
 502 578 l 1
 440 99 l 1
 657 108 l 1
 779 115 863 122 908 132 c 1
 931 169 957 222 988 292 c 128
 1019 362 1038 415 1048 451 c 1
 1135 440 l 1
 1135 434 l 2
 1135 345 1128 262 1114 182 c 128
 1100 102 1082 41 1058 0 c 1
597 1479 m 1
 1029 1479 l 1
 1016 1380 l 1
 583 1380 l 1
 597 1479 l 1
EndSplineSet
EndChar

StartChar: emacron
Encoding: 275 275 209
Width: 598
VWidth: 1655
GlyphClass: 2
Flags: HMW
LayerCount: 2
Fore
SplineSet
548 849 m 128
 578 817 592 777 592 726 c 0
 592 630 543 547 444 477 c 1
 361 418 268 373 167 341 c 1
 171 183 225 104 330 104 c 0
 368 104 405 118 441 144 c 128
 477 170 508 204 536 246 c 1
 573 214 l 1
 550 147 508 89 450 41 c 128
 392 -7 325 -31 249 -31 c 128
 173 -31 115 -2 72 56 c 128
 29 114 8 193 8 293 c 128
 8 393 27 488 66 580 c 128
 105 672 157 749 222 808 c 128
 287 867 354 897 425 897 c 0
 477 897 518 881 548 849 c 128
440 698 m 0
 440 760 413 791 360 790 c 0
 248 790 184 664 168 414 c 1
 349 481 440 576 440 698 c 0
240 1137 m 1
 672 1137 l 1
 658 1039 l 1
 227 1039 l 1
 240 1137 l 1
EndSplineSet
EndChar

StartChar: Edotaccent
Encoding: 278 278 210
Width: 1203
VWidth: 1655
GlyphClass: 2
Flags: HMW
LayerCount: 2
Fore
SplineSet
1058 0 m 1
 690 2 483 3 440 3 c 1
 8 -3 l 1
 31 80 l 1
 249 134 l 1
 374 1094 l 1
 147 1117 l 1
 167 1194 l 1
 240 1209 348 1221 493 1233 c 128
 638 1245 774 1250 900 1250 c 2
 973 1250 l 1
 1197 1246 l 1
 1117 835 l 1
 1031 848 l 1
 999 1111 l 1
 971 1117 l 1
 870 1136 747 1145 602 1143 c 2
 569 1143 l 1
 514 680 l 1
 969 712 l 1
 935 569 l 1
 502 578 l 1
 440 99 l 1
 657 108 l 1
 779 115 863 122 908 132 c 1
 931 169 957 222 988 292 c 128
 1019 362 1038 415 1048 451 c 1
 1135 440 l 1
 1135 434 l 2
 1135 345 1128 262 1114 182 c 128
 1100 102 1082 41 1058 0 c 1
882 1557 m 128
 906 1535 918 1508 918 1476 c 128
 918 1444 906 1416 882 1392 c 128
 858 1368 830 1357 797 1357 c 128
 764 1357 736 1369 714 1393 c 128
 692 1417 681 1446 681 1478 c 128
 681 1510 692 1537 715 1558 c 128
 738 1579 765 1589 798 1589 c 128
 831 1589 858 1579 882 1557 c 128
EndSplineSet
EndChar

StartChar: edotaccent
Encoding: 279 279 211
Width: 598
VWidth: 1655
GlyphClass: 2
Flags: HMW
LayerCount: 2
Fore
SplineSet
548 849 m 128
 578 817 592 777 592 726 c 0
 592 630 543 547 444 477 c 1
 361 418 268 373 167 341 c 1
 171 183 225 104 330 104 c 0
 368 104 405 118 441 144 c 128
 477 170 508 204 536 246 c 1
 573 214 l 1
 550 147 508 89 450 41 c 128
 392 -7 325 -31 249 -31 c 128
 173 -31 115 -2 72 56 c 128
 29 114 8 193 8 293 c 128
 8 393 27 488 66 580 c 128
 105 672 157 749 222 808 c 128
 287 867 354 897 425 897 c 0
 477 897 518 881 548 849 c 128
440 698 m 0
 440 760 413 791 360 790 c 0
 248 790 184 664 168 414 c 1
 349 481 440 576 440 698 c 0
525 1215 m 128
 548 1193 560 1166 560 1134 c 128
 560 1102 549 1076 525 1052 c 128
 501 1028 473 1016 441 1016 c 128
 409 1016 380 1028 357 1052 c 128
 334 1076 323 1103 323 1135 c 128
 323 1167 334 1195 357 1216 c 128
 380 1237 408 1248 441 1248 c 128
 474 1248 502 1237 525 1215 c 128
EndSplineSet
EndChar

StartChar: Eogonek
Encoding: 280 280 212
Width: 1203
VWidth: 1655
GlyphClass: 2
Flags: HMW
LayerCount: 2
Fore
SplineSet
973 0 m 1
 440 3 l 1
 8 -3 l 1
 31 80 l 1
 249 134 l 1
 374 1094 l 1
 147 1117 l 1
 167 1194 l 1
 240 1209 348 1221 493 1233 c 128
 638 1245 774 1250 900 1250 c 2
 973 1250 l 1
 1197 1246 l 1
 1117 835 l 1
 1031 848 l 1
 999 1111 l 1
 971 1117 l 1
 870 1136 747 1145 602 1143 c 2
 569 1143 l 1
 514 680 l 1
 969 712 l 1
 935 569 l 1
 502 578 l 1
 440 99 l 1
 657 108 l 1
 779 115 863 122 908 132 c 1
 931 169 957 222 988 292 c 128
 1019 362 1038 415 1048 451 c 1
 1135 440 l 1
 1135 434 l 2
 1135 345 1129 262 1115 182 c 128
 1101 102 1083 41 1058 0 c 1
 1052 0 l 1
 1018 -57 1001 -101 1001 -132 c 0
 1001 -207 1042 -268 1123 -315 c 1
 1089 -365 l 1
 1020 -357 964 -338 921 -305 c 128
 878 -272 856 -238 856 -201 c 128
 856 -164 864 -131 880 -103 c 128
 896 -75 927 -41 973 0 c 1
EndSplineSet
EndChar

StartChar: eogonek
Encoding: 281 281 213
Width: 598
VWidth: 1655
GlyphClass: 2
Flags: HMW
LayerCount: 2
Fore
SplineSet
440 698 m 0
 440 760 413 791 360 790 c 0
 248 790 184 664 168 414 c 1
 349 481 440 576 440 698 c 0
444 -332 m 1
 409 -381 l 1
 340 -373 284 -354 241 -321 c 128
 198 -288 176 -250 176 -207 c 0
 176 -179 183 -152 198 -125 c 128
 213 -98 241 -67 280 -30 c 1
 275 -32 267 -32 253 -31 c 0
 176 -31 115 -2 72 56 c 128
 29 114 8 193 8 293 c 128
 8 393 27 488 66 580 c 128
 105 672 157 749 222 808 c 128
 287 867 354 897 425 897 c 0
 477 897 518 881 548 849 c 128
 578 817 592 777 592 726 c 0
 592 630 543 547 444 477 c 1
 361 418 268 373 167 341 c 1
 171 183 225 104 330 104 c 0
 368 104 405 118 441 144 c 128
 477 170 508 204 536 246 c 1
 573 214 l 1
 559 171 534 130 499 90 c 128
 464 50 425 20 380 -2 c 1
 341 -67 322 -116 322 -149 c 0
 323 -224 363 -285 444 -332 c 1
EndSplineSet
EndChar

StartChar: Ecaron
Encoding: 282 282 214
Width: 1203
VWidth: 1655
GlyphClass: 2
Flags: HMW
LayerCount: 2
Fore
SplineSet
1058 0 m 1
 690 2 483 3 440 3 c 1
 8 -3 l 1
 31 80 l 1
 249 134 l 1
 374 1094 l 1
 147 1117 l 1
 167 1194 l 1
 240 1209 348 1221 493 1233 c 128
 638 1245 774 1250 900 1250 c 2
 973 1250 l 1
 1197 1246 l 1
 1117 835 l 1
 1031 848 l 1
 999 1111 l 1
 971 1117 l 1
 870 1136 747 1145 602 1143 c 2
 569 1143 l 1
 514 680 l 1
 969 712 l 1
 935 569 l 1
 502 578 l 1
 440 99 l 1
 657 108 l 1
 779 115 863 122 908 132 c 1
 931 169 957 222 988 292 c 128
 1019 362 1038 415 1048 451 c 1
 1135 440 l 1
 1135 434 l 2
 1135 345 1128 262 1114 182 c 128
 1100 102 1082 41 1058 0 c 1
776 1359 m 1
 600 1522 l 1
 680 1580 l 1
 825 1440 l 1
 835 1440 l 1
 956 1577 l 1
 998 1548 l 1
 830 1372 l 1
 776 1359 l 1
EndSplineSet
EndChar

StartChar: ecaron
Encoding: 283 283 215
Width: 598
VWidth: 1655
GlyphClass: 2
Flags: HMW
LayerCount: 2
Fore
SplineSet
548 849 m 128
 578 817 592 777 592 726 c 0
 592 630 543 547 444 477 c 1
 361 418 268 373 167 341 c 1
 171 183 225 104 330 104 c 0
 368 104 405 118 441 144 c 128
 477 170 508 204 536 246 c 1
 573 214 l 1
 550 147 508 89 450 41 c 128
 392 -7 325 -31 249 -31 c 128
 173 -31 115 -2 72 56 c 128
 29 114 8 193 8 293 c 128
 8 393 27 488 66 580 c 128
 105 672 157 749 222 808 c 128
 287 867 354 897 425 897 c 0
 477 897 518 881 548 849 c 128
440 698 m 0
 440 760 413 791 360 790 c 0
 248 790 184 664 168 414 c 1
 349 481 440 576 440 698 c 0
419 1018 m 1
 242 1179 l 1
 322 1239 l 1
 468 1099 l 1
 477 1099 l 1
 599 1236 l 1
 641 1207 l 1
 472 1031 l 1
 419 1018 l 1
EndSplineSet
EndChar

StartChar: Gbreve
Encoding: 286 286 216
Width: 1236
VWidth: 1655
GlyphClass: 2
Flags: HMW
LayerCount: 2
Fore
SplineSet
1107 843 m 1
 1019 858 l 1
 1008 1050 l 1
 986 1084 948 1111 894 1132 c 128
 840 1153 773 1164 695 1164 c 0
 574 1164 469 1123 380 1041 c 0
 334 997 298 937 273 861 c 128
 248 785 235 699 235 602 c 0
 235 591 235 582 237 573 c 1
 237 540 l 1
 244 403 284 292 358 206 c 128
 432 120 533 77 658 77 c 0
 746 77 809 92 848 123 c 1
 885 437 l 1
 653 474 l 1
 675 557 l 1
 1233 557 l 1
 1212 483 l 1
 1081 440 l 1
 1039 88 l 1
 917 8 745 -32 524 -33 c 0
 366 -33 243 12 154 104 c 128
 65 196 18 317 10 468 c 1
 10 492 l 1
 8 499 8 506 8 514 c 0
 8 603 22 689 51 771 c 128
 80 853 119 923 168 983 c 0
 268 1104 392 1188 540 1233 c 0
 613 1255 685 1266 757 1266 c 0
 943 1266 1082 1233 1173 1166 c 1
 1107 843 l 1
660 1549 m 1
 706 1580 l 1
 714 1564 l 1
 725 1541 742 1521 766 1505 c 128
 790 1489 817 1482 846 1482 c 0
 905 1482 952 1510 985 1566 c 2
 995 1582 l 1
 1036 1554 l 1
 1029 1536 l 2
 1013 1488 989 1450 958 1420 c 128
 927 1390 889 1375 844 1375 c 128
 799 1375 761 1390 729 1419 c 128
 697 1448 677 1486 665 1531 c 2
 660 1549 l 1
EndSplineSet
EndChar

StartChar: gbreve
Encoding: 287 287 217
Width: 769
VWidth: 1655
GlyphClass: 2
Flags: HMW
LayerCount: 2
Fore
SplineSet
246 23 m 1
 215 11 191 -1 171 -14 c 128
 151 -27 132 -44 113 -67 c 1
 93 -94 83 -120 84 -143 c 0
 84 -187 98 -223 125 -251 c 0
 137 -263 150 -271 167 -279 c 1
 219 -305 281 -318 353 -317 c 2
 381 -317 l 2
 428 -317 467 -305 499 -280 c 1
 530 -254 545 -220 544 -177 c 128
 543 -134 521 -100 476 -73 c 1
 443 -54 412 -40 381 -29 c 128
 350 -18 331 -11 323 -8 c 128
 315 -5 304 0 288 7 c 2
 246 23 l 1
235 205 m 0
 235 197 241 192 253 188 c 2
 300 170 l 2
 428 121 496 95 505 91 c 0
 596 51 657 2 688 -56 c 1
 702 -79 709 -106 709 -137 c 0
 709 -142 708 -152 706 -170 c 1
 694 -231 652 -282 578 -322 c 128
 504 -362 422 -384 332 -388 c 1
 307 -388 l 2
 252 -388 199 -382 148 -369 c 128
 97 -356 60 -345 34 -331 c 128
 8 -317 -17 -298 -40 -272 c 128
 -63 -246 -75 -212 -75 -173 c 128
 -75 -134 -63 -100 -39 -72 c 128
 -15 -44 23 -19 77 5 c 128
 131 29 164 43 178 49 c 1
 133 76 111 89 109 91 c 0
 96 107 90 122 92 138 c 0
 92 181 137 234 227 298 c 1
 212 306 196 318 178 336 c 1
 133 384 110 444 106 515 c 1
 106 520 l 1
 104 522 104 523 104 525 c 0
 104 626 143 718 220 802 c 1
 279 864 342 895 409 895 c 0
 421 895 428 895 432 893 c 1
 478 887 517 867 550 832 c 1
 558 824 l 1
 620 872 672 896 714 895 c 0
 741 895 762 887 776 870 c 128
 790 853 796 837 796 817 c 2
 796 806 l 1
 789 765 763 730 718 702 c 1
 681 734 657 753 646 760 c 128
 635 767 625 772 617 774 c 128
 609 776 603 777 597 779 c 128
 591 781 588 781 585 781 c 1
 608 736 619 682 620 620 c 0
 620 530 590 452 530 385 c 0
 507 360 479 338 446 318 c 0
 397 289 352 275 311 276 c 0
 301 276 294 277 286 279 c 1
 262 259 246 237 237 214 c 1
 237 211 l 1
 235 209 235 207 235 205 c 0
282 754 m 1
 259 704 248 650 247 593 c 128
 246 536 247 495 251 471 c 128
 255 447 262 424 275 401 c 1
 297 366 320 349 343 349 c 128
 366 349 389 356 411 372 c 1
 462 415 488 486 488 587 c 0
 488 628 483 666 472 702 c 0
 449 779 413 818 362 818 c 0
 342 818 328 814 316 803 c 128
 304 792 293 776 282 754 c 1
332 1224 m 1
 378 1255 l 1
 386 1239 l 1
 397 1216 414 1196 439 1180 c 128
 464 1164 490 1156 519 1156 c 0
 578 1156 625 1184 658 1241 c 2
 669 1257 l 1
 709 1229 l 1
 702 1210 l 2
 686 1162 662 1123 630 1094 c 128
 598 1065 561 1050 517 1050 c 128
 473 1050 434 1064 402 1093 c 128
 370 1122 349 1160 338 1205 c 2
 332 1224 l 1
EndSplineSet
EndChar

StartChar: Gdotaccent
Encoding: 288 288 218
Width: 1236
VWidth: 1655
GlyphClass: 2
Flags: HMW
LayerCount: 2
Fore
SplineSet
1107 843 m 1
 1019 858 l 1
 1008 1050 l 1
 986 1084 948 1111 894 1132 c 128
 840 1153 773 1164 695 1164 c 0
 574 1164 469 1123 380 1041 c 0
 334 997 298 937 273 861 c 128
 248 785 235 699 235 602 c 0
 235 591 235 582 237 573 c 1
 237 540 l 1
 244 403 284 292 358 206 c 128
 432 120 533 77 658 77 c 0
 746 77 809 92 848 123 c 1
 885 437 l 1
 653 474 l 1
 675 557 l 1
 1233 557 l 1
 1212 483 l 1
 1081 440 l 1
 1039 88 l 1
 917 8 745 -32 524 -33 c 0
 366 -33 243 12 154 104 c 128
 65 196 18 317 10 468 c 1
 10 492 l 1
 8 499 8 506 8 514 c 0
 8 603 22 689 51 771 c 128
 80 853 119 923 168 983 c 0
 268 1104 392 1188 540 1233 c 0
 613 1255 685 1266 757 1266 c 0
 943 1266 1082 1233 1173 1166 c 1
 1107 843 l 1
931 1557 m 128
 954 1535 966 1508 966 1476 c 128
 966 1444 955 1416 931 1392 c 128
 907 1368 879 1357 846 1357 c 128
 813 1357 786 1369 763 1393 c 128
 740 1417 729 1446 729 1478 c 128
 729 1510 740 1537 763 1558 c 128
 786 1579 814 1589 847 1589 c 128
 880 1589 908 1579 931 1557 c 128
EndSplineSet
EndChar

StartChar: gdotaccent
Encoding: 289 289 219
Width: 769
VWidth: 1655
GlyphClass: 2
Flags: HMW
LayerCount: 2
Fore
SplineSet
246 23 m 1
 215 11 191 -1 171 -14 c 128
 151 -27 132 -44 113 -67 c 1
 93 -94 83 -120 84 -143 c 0
 84 -187 98 -223 125 -251 c 0
 137 -263 150 -271 167 -279 c 1
 219 -305 281 -318 353 -317 c 2
 381 -317 l 2
 428 -317 467 -305 499 -280 c 1
 530 -254 545 -220 544 -177 c 128
 543 -134 521 -100 476 -73 c 1
 443 -54 412 -40 381 -29 c 128
 350 -18 331 -11 323 -8 c 128
 315 -5 304 0 288 7 c 2
 246 23 l 1
235 205 m 0
 235 197 241 192 253 188 c 2
 300 170 l 2
 428 121 496 95 505 91 c 0
 596 51 657 2 688 -56 c 1
 702 -79 709 -106 709 -137 c 0
 709 -142 708 -152 706 -170 c 1
 694 -231 652 -282 578 -322 c 128
 504 -362 422 -384 332 -388 c 1
 307 -388 l 2
 252 -388 199 -382 148 -369 c 128
 97 -356 60 -345 34 -331 c 128
 8 -317 -17 -298 -40 -272 c 128
 -63 -246 -75 -212 -75 -173 c 128
 -75 -134 -63 -100 -39 -72 c 128
 -15 -44 23 -19 77 5 c 128
 131 29 164 43 178 49 c 1
 133 76 111 89 109 91 c 0
 96 107 90 122 92 138 c 0
 92 181 137 234 227 298 c 1
 212 306 196 318 178 336 c 1
 133 384 110 444 106 515 c 1
 106 520 l 1
 104 522 104 523 104 525 c 0
 104 626 143 718 220 802 c 1
 279 864 342 895 409 895 c 0
 421 895 428 895 432 893 c 1
 478 887 517 867 550 832 c 1
 558 824 l 1
 620 872 672 896 714 895 c 0
 741 895 762 887 776 870 c 128
 790 853 796 837 796 817 c 2
 796 806 l 1
 789 765 763 730 718 702 c 1
 681 734 657 753 646 760 c 128
 635 767 625 772 617 774 c 128
 609 776 603 777 597 779 c 128
 591 781 588 781 585 781 c 1
 608 736 619 682 620 620 c 0
 620 530 590 452 530 385 c 0
 507 360 479 338 446 318 c 0
 397 289 352 275 311 276 c 0
 301 276 294 277 286 279 c 1
 262 259 246 237 237 214 c 1
 237 211 l 1
 235 209 235 207 235 205 c 0
282 754 m 1
 259 704 248 650 247 593 c 128
 246 536 247 495 251 471 c 128
 255 447 262 424 275 401 c 1
 297 366 320 349 343 349 c 128
 366 349 389 356 411 372 c 1
 462 415 488 486 488 587 c 0
 488 628 483 666 472 702 c 0
 449 779 413 818 362 818 c 0
 342 818 328 814 316 803 c 128
 304 792 293 776 282 754 c 1
603 1231 m 128
 627 1209 639 1183 639 1151 c 128
 639 1119 627 1092 603 1068 c 128
 579 1044 551 1032 519 1032 c 128
 487 1032 460 1044 437 1068 c 128
 414 1092 402 1121 402 1153 c 128
 402 1185 414 1211 437 1232 c 128
 460 1253 488 1264 520 1264 c 128
 552 1264 579 1253 603 1231 c 128
EndSplineSet
EndChar

StartChar: Gcommaaccent
Encoding: 290 290 220
Width: 1236
VWidth: 1655
GlyphClass: 2
Flags: HMW
LayerCount: 2
Fore
SplineSet
545 -39 m 0
 546 -39 547 -39 550 -37 c 128
 553 -35 555 -34 557 -33 c 1
 524 -33 l 2
 366 -33 243 12 154 104 c 128
 65 196 18 317 10 468 c 1
 10 492 l 1
 8 499 8 506 8 514 c 0
 8 603 22 689 51 771 c 128
 80 853 119 923 168 983 c 0
 268 1104 392 1188 540 1233 c 0
 613 1255 685 1266 757 1266 c 0
 943 1266 1082 1233 1173 1166 c 1
 1107 843 l 1
 1019 858 l 1
 1008 1050 l 1
 986 1084 948 1111 894 1132 c 128
 840 1153 773 1164 695 1164 c 0
 574 1164 469 1123 380 1041 c 0
 334 997 298 937 273 861 c 128
 248 785 235 699 235 602 c 0
 235 591 235 582 237 573 c 1
 237 540 l 1
 244 403 284 292 358 206 c 128
 432 120 533 77 658 77 c 0
 746 77 809 92 848 123 c 1
 885 437 l 1
 653 474 l 1
 675 557 l 1
 1233 557 l 1
 1212 483 l 1
 1081 440 l 1
 1039 88 l 1
 939 21 796 -18 611 -30 c 1
 634 -38 651 -57 665 -88 c 1
 672 -103 675 -114 675 -125 c 128
 675 -136 674 -149 672 -167 c 1
 656 -237 595 -299 489 -354 c 1
 470 -322 l 1
 509 -299 535 -277 548 -256 c 1
 564 -235 571 -213 571 -191 c 0
 571 -169 563 -150 546 -131 c 128
 529 -112 516 -100 504 -94 c 1
 509 -72 522 -55 545 -39 c 0
EndSplineSet
EndChar

